<?xml version="1.0" encoding="utf-8"?>
<!-- Generator: Adobe Illustrator 21.0.0, SVG Export Plug-In . SVG Version: 6.00 Build 0)  -->
<svg version="1.1" id="Layer_1" xmlns="http://www.w3.org/2000/svg" xmlns:xlink="http://www.w3.org/1999/xlink" x="0px" y="0px"
	 viewBox="0 0 166.8 103.5" style="enable-background:new 0 0 166.8 103.5;" xml:space="preserve">
<style type="text/css">
	.st0{fill:#FFFFFF;}
	.st1{fill:#111111;}
</style>
<g>
	<path class="st0" d="M129,26.3c-3.1,0.3-6.1,1-8.8,2.1C112.9,12.1,95.7,1.4,76.9,3.2C60.2,4.8,46.7,15.8,41,30.4
		c-3.5-1-7.3-1.4-11.1-1C13.5,30.9,1.5,45.5,3.1,61.8c1.6,16.4,16.1,28.3,32.5,26.8c3.7-0.4,7.2-1.4,10.4-3
		c7.3,10.2,22.9,16.3,40.2,14.6C99,99,110,93.8,117,86.6c5.4,2.9,11.6,4.2,18.1,3.6c17.6-1.7,30.6-17.4,28.9-35
		C162.3,37.6,146.6,24.6,129,26.3z"/>
	<g>
		<g>
			<g>
				<g>
					<path class="st1" d="M53.5,80.8c0.2,0.3-1,1.7-3.5,3.9c-1.3,1.1-2.9,2.4-5.1,3.6c-1.1,0.6-2.3,1.2-3.8,1.6
						c-0.7,0.2-1.5,0.4-2.3,0.5c-0.8,0.1-1.6,0.1-2.3,0.2c-3.1,0.1-6.5-0.1-10.1-0.9c-3.6-0.7-7.4-2.1-11-4.2
						c-3.6-2.1-7.1-5.2-9.7-9c-2.7-3.8-4.6-8.3-5.3-13.2c-0.8-4.9-0.3-9.8,1.1-14.2c1.4-4.4,3.7-8.3,6.5-11.5
						c2.8-3.2,6.2-5.5,9.5-7.2c3.3-1.6,6.7-2.6,9.8-3c3.1-0.5,5.9-0.5,8.3-0.3c2.5,0.2,4.6,0.7,6.2,1.4c1.6,0.7,2.8,1.5,3.4,2.2
						c0.6,0.7,0.8,1.1,0.7,1.3c-0.3,0.3-1.7-0.9-4.8-1.5c-1.5-0.3-3.4-0.5-5.7-0.4c-2.3,0.1-4.8,0.4-7.5,1c-2.7,0.7-5.6,1.7-8.4,3.3
						c-2.8,1.6-5.6,3.7-7.8,6.4c-4.6,5.4-7.4,13.5-6.1,21.6c0.6,4,2.2,7.9,4.4,11.1c2.2,3.2,4.9,5.8,8,7.7c3,1.9,6.3,3.2,9.5,4.1
						c3.2,0.9,6.3,1.2,9.1,1.4c0.7,0,1.4,0.1,2,0c0.6,0,1.2-0.1,1.8-0.2c1.2-0.2,2.3-0.6,3.3-1c2.1-0.8,3.8-1.8,5.2-2.6
						C51.7,81.4,53.3,80.5,53.5,80.8z"/>
				</g>
			</g>
		</g>
	</g>
	<g>
		<g>
			<g>
				<g>
					<path class="st1" d="M120.7,36.4c-0.4,0.1-1-1.6-2.2-4.4c-1.2-2.8-3.2-6.8-6.5-11c-3.3-4.2-8.1-8.6-14.4-11.6
						c-6.2-3-14-4.6-22-3.8c-8.6,0.8-16.2,4.6-21.8,9.4c-2.8,2.4-5.2,5-7.1,7.7c-0.5,0.7-0.9,1.3-1.3,2c-0.4,0.7-0.8,1.3-1.2,2
						c-0.4,0.8-0.9,1.6-1.3,2.4c-0.3,0.5-0.7,1-1.3,1.2c-0.5,0.3-1.1,0.3-1.7,0.3c-1.2-0.1-1.6-0.2-2.2-0.2
						c-0.6-0.1-1.1-0.2-1.7-0.2c-1.1-0.1-2.1-0.3-3-0.3c-1.8-0.1-3.4-0.1-4.7,0.1c-2.6,0.3-4,0.8-4.2,0.5c-0.1-0.2,1-1.4,3.7-2.4
						c1.4-0.5,3.1-0.8,5.1-1c1-0.1,2.1-0.1,3.2-0.1c0.6,0,1.1,0,1.7,0c0.5,0,1.3,0,1.4,0c0.1,0,0.2,0,0.3-0.1
						c0.1-0.1,0.1-0.2,0.2-0.3l0-0.2l0,0l0-0.1l0.1-0.1l0.1-0.3c0.2-0.4,0.3-0.7,0.5-1.1c0.3-0.8,0.7-1.5,1.1-2.3
						c0.4-0.8,0.9-1.5,1.3-2.3c1.9-3,4.4-6.1,7.4-8.9c3.1-2.8,6.7-5.3,10.8-7.3c4.1-2,8.8-3.3,13.7-3.8C84.1-0.7,92.8,1.3,99.8,5
						c7,3.7,12,8.9,15.2,13.8c3.2,4.9,4.8,9.4,5.5,12.6C121.1,34.5,121,36.3,120.7,36.4z"/>
				</g>
			</g>
		</g>
	</g>
	<g>
		<g>
			<g>
				<g>
					<path class="st1" d="M122.3,78.5c0.3,0.1,0.3,1.4-0.5,3.7c-0.8,2.2-2.5,5.4-5.7,8.4c-1.6,1.5-3.5,2.9-5.7,4.1
						c-2.1,1.2-4.3,2.4-6.7,3.7c-2.4,1.3-5.1,2.5-8.2,3.4c-1.5,0.5-3.1,0.8-4.7,1c-1.6,0.2-3.1,0.4-4.7,0.5c-3.2,0.2-6.3,0.3-9.4,0
						c-3.1-0.2-6-0.8-8.7-1.7c-5.4-1.7-9.8-4.1-13.3-6.4c-7-4.7-10.1-8.9-9.7-9.3c0.5-0.6,4.5,2.5,11.6,6.1
						c3.5,1.7,7.8,3.7,12.8,4.9c4.9,1.3,10.5,1.5,16.4,1.1c1.5-0.1,3-0.3,4.4-0.4c1.3-0.1,2.7-0.4,4-0.8c2.6-0.7,5.1-1.7,7.5-2.8
						c2.4-1.1,4.7-2.2,6.8-3.2c2-1,3.8-2,5.4-3.1c3.1-2.2,5-4.7,6.3-6.4C121.3,79.4,122,78.3,122.3,78.5z"/>
				</g>
			</g>
		</g>
	</g>
	<g>
		<g>
			<g>
				<g>
					<path class="st1" d="M111.6,16.2c0.1-0.1,0.6,0.1,1.4,0.7c0.8,0.7,1.7,1.8,2.8,3.3c0.5,0.8,1.1,1.6,1.6,2.6
						c0.3,0.5,0.6,1,0.9,1.5c0.2,0.2,0.3,0.5,0.5,0.7c0.1,0.1,0.2,0.2,0.3,0.3c0.1,0.1,0.2,0.3,0.3,0.3c0.1,0,0.3-0.1,0.4-0.1
						l0.2-0.1l0.1,0l0.1,0l0.3-0.1c0.4-0.1,0.7-0.1,1.1-0.2c1.5-0.3,3-0.5,4.6-0.8c3.3-0.4,7-0.8,11-0.6c4,0.2,8.4,1.1,12.6,3.1
						c2.1,1,4.2,2.4,6,4.1c1.8,1.7,3.4,3.7,4.7,5.8c2.7,4.2,4.6,9,5.7,14.2c0.3,1.3,0.4,2.6,0.6,4c0.1,0.7,0.1,1.3,0.1,2
						c0,0.7,0,1.3-0.1,2c-0.2,2.6-0.6,5.2-1.4,7.6c-1.4,4.9-4,9.1-7,12.6c-1.5,1.7-3.2,3.2-5,4.5c-0.9,0.7-1.8,1.2-2.7,1.8
						c-0.9,0.5-1.8,1-2.7,1.4c-3.6,1.8-7.1,3.1-10.4,3.8c-3.3,0.8-6.4,1-9.2,0.9c-2.7-0.1-5.1-0.8-6.8-1.6c-0.4-0.2-0.8-0.4-1.2-0.6
						c-0.4-0.2-0.7-0.4-1-0.6c-0.6-0.4-1.1-0.7-1.5-1.1c-0.7-0.7-1-1.1-0.9-1.3c0.3-0.4,2,0.8,5.3,1.6c1.7,0.4,3.8,0.7,6.2,0.5
						c2.4-0.1,5.2-0.6,8.1-1.5c3-0.9,6.1-2.3,9.3-4.1c0.8-0.4,1.6-0.9,2.4-1.4c0.8-0.5,1.5-1,2.2-1.6c1.5-1.2,2.9-2.5,4.1-4
						c2.5-3,4.6-6.7,5.7-10.9c0.6-2.1,1-4.2,1.1-6.4c0.1-2.2-0.1-4.4-0.5-6.6c-0.9-4.5-2.6-8.8-4.9-12.5c-1.1-1.8-2.4-3.5-3.8-4.9
						c-1.4-1.4-3-2.5-4.7-3.4c-3.4-1.8-7.2-2.7-10.8-3.1c-3.6-0.4-7.1-0.3-10.2-0.1c-1.6,0.1-3.1,0.2-4.6,0.4
						c-0.4,0-0.7,0.1-1.1,0.1c-0.5,0.1-1,0.1-1.4,0.2c-0.5,0.1-1.1,0.1-1.6,0.2c-0.1,0-0.1,0-0.2,0l-0.1-0.2l-0.2-0.3
						c-0.1-0.2-0.3-0.4-0.4-0.7c-0.2-0.4-0.5-0.9-0.7-1.3c-0.1-0.3-0.3-0.6-0.4-0.9c-0.2-0.6-0.5-1.1-0.7-1.6
						c-0.4-1-0.8-1.9-1.2-2.8C112.6,18,111.3,16.5,111.6,16.2z"/>
				</g>
			</g>
		</g>
	</g>
</g>
</svg>
