<?xml version="1.0" encoding="utf-8"?>
<!-- Generator: Adobe Illustrator 21.0.0, SVG Export Plug-In . SVG Version: 6.00 Build 0)  -->
<svg version="1.1" id="Layer_1" xmlns="http://www.w3.org/2000/svg" xmlns:xlink="http://www.w3.org/1999/xlink" x="0px" y="0px"
	 viewBox="0 0 800 800" style="enable-background:new 0 0 800 800;" xml:space="preserve">
<path d="M740.5,688.4h-4.3v-26c0-12-9.7-21.7-21.7-21.7v-386h23.9l28.2-95.4H632V63.9H159.3v95.4H33.5l28.2,95.4h23.9v386
	c-12,0-21.7,9.7-21.7,21.7v26h-4.3c-12,0-21.7,9.7-21.7,21.7v26h121.4h69.4h52v-26c0-12-9.7-21.7-21.7-21.7h-4.3v-26
	c0-12-9.7-21.7-21.7-21.7h-4.3V428.2h0.7c7.7-85.1,79.2-151.8,166.3-151.8S554.3,343.1,562,428.2h0.7v213
	c-9.9,2-17.3,10.8-17.3,21.3v26H541c-12,0-21.7,9.7-21.7,21.7v26h43.4H632h130.1v-26C762.2,698.1,752.5,688.4,740.5,688.4z"/>
</svg>
