<?xml version="1.0" encoding="utf-8"?>
<!-- Generator: Adobe Illustrator 26.5.0, SVG Export Plug-In . SVG Version: 6.00 Build 0)  -->
<svg version="1.1" id="Layer_1" xmlns="http://www.w3.org/2000/svg" xmlns:xlink="http://www.w3.org/1999/xlink" x="0px" y="0px"
	 viewBox="0 0 350 200" style="enable-background:new 0 0 350 200;" xml:space="preserve">
<style type="text/css">
	.st0{display:none;}
</style>
<path class="st0" d="M174.5,84c-11,0-19,7.2-19,18s9,18,20,18c6.7,0,12.6-2.6,16.2-7.1l-7.6-4.4c-2,2.2-5.1,3.5-8.5,3.5
	c-4.8,0-8.9-2.5-10.4-6.5h28c0.2-1.1,0.4-2.3,0.4-3.5C193.5,91.2,185.6,84,174.5,84L174.5,84z M165.1,98.5c1.2-4,4.7-6.5,9.4-6.5
	c4.8,0,8.2,2.5,9.4,6.5H165.1z M282.2,84c-11,0-19,7.2-19,18s9,18,20,18c6.7,0,12.5-2.6,16.2-7.1l-7.6-4.4c-2,2.2-5.1,3.5-8.5,3.5
	c-4.8,0-8.9-2.5-10.4-6.5h28c0.2-1.1,0.4-2.3,0.4-3.5C301.2,91.2,293.3,84,282.2,84L282.2,84z M272.8,98.5c1.2-4,4.7-6.5,9.4-6.5
	c4.8,0,8.2,2.5,9.5,6.5H272.8L272.8,98.5z M233.7,102c0,6,3.9,10,10,10c4.1,0,7.2-1.9,8.8-4.9l7.7,4.4c-3.2,5.3-9.1,8.5-16.5,8.5
	c-11.1,0-19-7.2-19-18s8-18,19-18c7.3,0,13.3,3.2,16.5,8.5l-7.7,4.4c-1.6-3-4.7-4.9-8.8-4.9C237.7,92,233.7,96,233.7,102z M316.2,73
	v46h-9V73H316.2z M70.5,68l37,64h-74L70.5,68z M162.8,73l-27.7,48l-27.7-48h10.4l17.3,30l17.3-30H162.8z M221.7,85v9.7
	c-1-0.3-2.1-0.5-3.2-0.5c-5.8,0-10,4-10,10V119h-9V85h9v9.2C208.5,89.1,214.5,85,221.7,85z"/>
<g>
	<path d="M78.5,199c-3.2,0-5.7-0.8-7.4-2.5c-1.7-1.7-2.7-4.4-2.7-7.8v-42.8c1.5-1.3,3.4-2.4,5.7-3c2.2-0.7,4.6-1,6.9-1
		c3.5,0,6.6,0.8,8.9,2.7c2.7,2,4,4.7,4,8.3v24c-1.7,0.2-3.2,0.7-4.9,1.3c-1.5,0.8-2.4,1.5-2.4,2.4c0,0.5,0.3,0.8,0.8,1.3
		c2.9-2.4,7.3-3.7,12.8-3.7h10.3c1.9,3.4,2.9,6.9,2.9,10.3c0,1.7-0.3,3.7-0.8,5.7c-0.7,2.2-1.3,3.7-2.5,4.9
		C110.2,199,78.5,199,78.5,199z"/>
	<path d="M134.4,183.3c-0.3,0.3-0.5,0.8-0.5,1.2c0,0.8,0.8,1.5,2.4,2.2c1.5,0.5,3.5,0.8,5.7,1c0.3,4.2,0.8,6.6,1.2,7.3
		c-0.5,1-2,2.2-4.6,3.2c-2.5,1-5.4,1.7-8.4,1.7c-4.2,0-7.8-0.8-10.8-2.7c-3-1.9-4.4-4-4.4-6.9c0-0.7,0-1.3,0.2-2l9.3-41.7
		c2.4-1.5,5.1-2.7,8.4-3.5c3.2-0.8,6.6-1.3,10.1-1.3c5.1,0,9.3,0.8,12.8,2.5c4,1.9,6.6,4.7,7.4,8.4l10.1,41.2
		c-3,3.9-7.9,5.9-14.8,5.9c-3.4,0-6.1-0.7-8.4-1.9c-2.4-1.2-3.7-2.9-4-5.1l-1-5.4c1.7,0,3.4-0.3,5.1-1c1.7-0.7,2.5-1.3,2.5-2
		c0-0.5-0.2-0.8-0.5-1.2c-1.2,0.8-2.5,1.3-4,1.9c-1.7,0.3-3,0.7-4.4,0.7C139.6,185.7,136.5,184.8,134.4,183.3z M144.1,170.5
		c0.5,0,0.8-0.2,1.3-0.3c-0.7-4.4-1.3-7.1-1.5-7.9c-0.3-0.8-0.8-1.3-1.5-1.3c-0.3,0-0.7,0.2-1,0.3l1.7,8.8
		C143.3,170.5,143.6,170.5,144.1,170.5z"/>
	<path d="M174.7,148.6c0-0.7,0.5-1.3,1.7-2.2c2.4-1.9,6.4-3.2,12.3-4.2c3-0.5,6.4-0.7,10.1-0.7c8.8,0,15.3,1.7,19.9,5.1
		c3.9,3,5.9,6.9,5.9,11.6c0,1.7-0.3,3.5-0.8,5.1c-0.7,1.7-1.5,2.9-2.7,3.7c-1.5-0.8-3-1.2-4.4-1.2c-0.7,0-1.2,0.2-1.5,0.3
		c-0.3,0.3-0.5,0.7-0.5,1.5c4.2,0.2,7.6,1.7,10,4.6c2.2,2.7,3.2,5.9,3.2,10c0,6.1-2.5,10.5-7.6,13.3c-4.7,2.5-12,3.9-21.6,3.9
		c-6.7,0-11.6-0.2-14.8-0.7c-3.2-0.5-5.4-1.3-6.7-3c-1.3-1.5-2-4-2-7.3v-39.8H174.7z M198.4,165.3c0.2,0.2,0.5,0.2,1,0.2
		c0.5,0,1-0.2,1.3-0.7c0.3-0.5,0.5-1.2,0.5-2.2v-0.3c0-1-0.2-1.9-0.3-2.2c-0.2-0.5-0.7-0.7-1.2-0.7c-0.5,0-1,0-1.2,0.2
		c0,0.2,0,0.3,0,0.7v5.1H198.4z M198.4,181.8c0.2,0.2,0.5,0.2,1,0.2c0.5,0,1-0.2,1.3-0.5c0.3-0.3,0.5-1,0.5-2v-0.8
		c0-1-0.2-1.9-0.3-2.4s-0.7-0.7-1.2-0.7c-0.5,0-1,0-1.2,0.2c0,0.2,0,0.3,0,0.7v5.4H198.4z"/>
	<path d="M253.6,183c1-0.2,1.5-0.7,1.5-1.5s-0.3-1.7-0.8-2.7c-0.5-1-1.2-2-2.2-2.9c-2.5-2.4-6.1-3.5-10.5-3.5c-2.2,0-4.2,0.3-6.1,1
		c-2-1-3.5-2.7-4.9-4.9c-1.2-2.2-1.9-4.6-1.9-7.3c0-6.7,2.9-11.8,8.4-15.5c4.9-3,10.8-4.7,17.9-4.7c5.2,0,9.6,0.5,13.3,1.7
		c3.5,1.2,6.6,2.5,8.8,4.4c0.7,1.9,1,3.9,1,6.1c0,2-0.3,3.9-0.8,5.6s-1.3,3-2.4,4c-1-0.7-2.9-1.5-5.4-2.2c-2.5-0.7-4.9-1.2-7.1-1.2
		s-3.5,0.2-4.2,0.3c-0.7,0.3-1,0.7-1,1.2c0,0.3,0,0.5,0.2,0.7c1-0.3,2.4-0.3,3.9-0.3c5.7,0,10.3,1.3,13.8,4
		c4.2,3.2,6.4,8.1,6.4,14.5c0,5.7-2.4,10.3-6.9,14.2c-4.9,4-11.6,6.1-20.1,6.1c-4.6,0-8.6-0.3-12-1c-3.4-0.7-6.7-1.9-10-3.5
		c-2.2-3.2-3.2-6.4-3.2-9.6s1.2-6.1,3.4-8.1c2.2-2.2,5.1-3.2,8.3-3.2c3.2,0,5.9,0.7,8.1,2C251.1,177.7,252.6,179.9,253.6,183z"/>
</g>
<g>
	<path d="M37.5,106.2v16.2c-2,1.7-4.7,3.2-7.8,4.2c-3.2,1.2-7.1,1.7-11.8,1.7s-8.6-1-12-3.2c-3.4-2.2-5.4-5.4-5.4-9.6V51.1
		c0-3.9,9.6-5.9,28.7-5.9h37.2c1.2,2.2,2.2,4.7,2.7,7.6c0.5,2.7,1,5.1,1,7.3c0,9.8-4.2,14.5-12.7,14.5h-22c-1.7,0-2.4,0.7-2.4,2v0.5
		c0,0.2,0,0.5,0.2,0.5h28.2c2.2,3.7,3.2,7.8,3.2,12.5c0,5.9-1.2,10.3-3.9,13.5H29.4c-0.2,0.2-0.5,0.7-0.5,1.2c0,0.7,0.5,1,1.5,1.2
		c1,0.2,2.2,0.2,3.4,0.2C35.3,106.2,36.5,106.2,37.5,106.2z"/>
	<path d="M127.6,44c5.1,0,9.6,1.5,13.2,4.2s5.6,6.6,5.6,11.8v35.3c0,10.8-3.2,19.1-9.8,25c-6.6,5.9-15.7,8.8-27.2,8.8
		s-20.6-2.9-26.9-8.6c-6.6-5.6-9.8-14-9.8-25V49.9C77.6,46,83.5,44,90.1,44c5.4,0,9.8,1.5,13,4.4c3.2,2.9,4.9,7.3,4.9,13.2v37
		c0.5,0.2,1,0.5,1.7,0.5c0.7,0,1-0.2,1.2-0.5c0.2-0.2,0.5-1,0.5-1.7V61.4c0-2.7-0.2-4.9-0.5-6.4c-0.2-1.5-0.7-3.2-1.5-4.7
		C114.4,46.2,120.5,44,127.6,44z"/>
	<path d="M188.3,57.2v2.9c-1.7,3.4-2.9,6.4-3.9,8.3c-1,2-1.2,3.4-1.2,3.9c0,1.2,0.7,2,2.2,2l12.5-27.4c2.9-2,6.9-2.9,12-2.9
		c5.1,0,9.3,1.5,13,4.2c3.9,3.2,5.9,7.3,5.9,12.7c0,4.4-1.5,9.1-4.7,13.5c-3.2,4.4-7.1,8.1-12.2,11.5c-2.4-1.2-4.4-2-6.4-2
		c-2,0-2.7,1-2.7,2.7c2,0.5,3.7,1,5.4,1.7c1.5,0.7,3.4,2,5.6,3.9l16.9,15.7c-1.2,13.7-8.1,20.6-20.6,20.6c-4.7,0-8.6-1.2-11.8-3.7
		c-3.9-2.7-6.9-6.9-9.1-12.5l-5.9-14.7h-0.2c-1.5,0-2.2,0.5-2.2,1.7c0,0.7,0.5,2.7,1.7,5.6c1.2,3.2,2.9,7.3,5.4,12.7v4.9
		c-4.4,3.9-11,5.9-19.3,5.9c-4.7,0-8.6-1-11.8-3.2c-3.7-2.2-5.6-5.4-5.6-9.6V50.1c4.4-3.9,11-5.9,19.8-5.9c4.7,0,8.6,1,11.8,2.9
		C186.4,49.4,188.3,52.8,188.3,57.2z"/>
	<path d="M270.1,56.7v65.6c-2,1.7-4.7,3.2-7.8,4.2c-3.2,1.2-7.1,1.7-11.8,1.7c-4.7,0-8.6-1-11.8-3.2c-3.7-2.2-5.6-5.4-5.6-9.6V50.1
		c2-1.7,4.7-3.2,7.8-4.2c3.2-1.2,7.1-1.7,11.8-1.7c4.7,0,8.6,1,12,2.9C268.2,49.4,270.1,52.6,270.1,56.7z"/>
	<path d="M274.8,115.5V51.8c0-2.2,1.7-3.9,5.4-5.4c3.4-1.5,7.6-2.2,12.5-2.2c2.7,0,5.1,0.2,7.6,1c2.4,0.7,4.2,1.5,5.4,2.4
		c1.7,2.2,3.4,4.4,4.7,6.6c1.5,2.2,4.7,7.6,9.8,15.9c0.5,0,1-0.2,1.2-0.5c0.5-0.2,0.5-0.7,0.5-1.5c0-0.5-0.5-1.7-1.5-3.7l-6.9-11.8
		v-3.4c2.2-1.7,4.9-3.2,7.8-4.2c3.2-1,6.4-1.5,9.6-1.5c5.4,0,9.8,1,13,2.9c3.9,2.4,5.9,5.9,5.9,11V118c0,3.7-1.7,6.4-5.1,7.8
		c-2.9,1.5-6.9,2.2-11.8,2.2c-2.7,0-5.4-0.2-8.1-1c-2.7-0.5-4.7-1.5-6.1-2.2c-2.9-3.9-5.9-8.1-9.1-13l-6.4-10.8c-1.2,0.2-2,0.7-2,2
		c0,0.7,0.7,2.2,2,4.2l7.8,12.7v3.4c-4.9,3.2-10.5,4.7-16.7,4.7s-11-1.2-14.5-3.4C276.5,122.6,274.8,119.4,274.8,115.5z"/>
	<path d="M149.9,20c0,2.7-0.5,4.9-1.2,6.9c-0.7,2-2,4.2-3.4,6.4h-29.1c-2.9-4.2-4.4-8.6-4.4-13.2c0-2.7,0.5-4.9,1.2-7.1
		s2-4.4,3.4-6.6h29.1c1.7,2.2,2.7,4.4,3.4,6.6C149.4,15.1,149.9,17.6,149.9,20z"/>
</g>
</svg>
