<?xml version="1.0" encoding="utf-8"?>
<!-- Generator: Adobe Illustrator 21.0.0, SVG Export Plug-In . SVG Version: 6.00 Build 0)  -->
<svg version="1.1" id="Layer_1" xmlns="http://www.w3.org/2000/svg" xmlns:xlink="http://www.w3.org/1999/xlink" x="0px" y="0px"
	 viewBox="0 0 216.8 73.8" style="enable-background:new 0 0 216.8 73.8;" xml:space="preserve">
<style type="text/css">
	.st0{fill:#FFFFFF;stroke:#000000;stroke-miterlimit:10;}
</style>
<g>
	<path d="M36.6,8c-0.2,0-0.4,0-0.6-0.1c-1-0.3-2.1-0.5-3.5-0.5c-0.5,0-1,0-1.6,0.1c-0.6,0.1-1.3,0.1-2,0.3c0,1.4,0,2.7,0,3.7
		C30,11.2,31,11,31.7,11c1.4,0,2.6,0.1,3.6,0.2c1,0.1,1.4,0.6,1.4,1.5c0,0.4-0.2,0.8-0.5,1.1s-0.7,0.4-1.1,0.4c-0.4,0-1,0-1.7-0.1
		c-0.8-0.1-1.4-0.1-1.7-0.1c-0.5,0-1.5,0.2-2.8,0.5v7c0,0.4-0.2,0.8-0.5,1.1c-0.3,0.3-0.7,0.4-1.2,0.4c-0.4,0-0.8-0.1-1.1-0.4
		c-0.3-0.3-0.4-0.7-0.4-1.1V8.8c0-0.3,0-0.7,0-1.3c0-0.6,0-1,0-1.3c0-0.4,0.1-0.8,0.4-1.1s0.7-0.4,1.1-0.4c0.3,0,0.5,0.1,0.8,0.2
		c0.9-0.1,1.7-0.3,2.4-0.3c0.7-0.1,1.4-0.1,2-0.1c0.9,0,1.9,0.2,3.2,0.5c1.6,0.4,2.4,1,2.4,1.5c0,0.4-0.2,0.8-0.5,1.1
		C37.3,7.8,37,8,36.6,8z"/>
	<path d="M49.6,15.5c0,0.5,0,1.3,0,2.3c0,1,0,1.8,0,2.3c0,0.2,0,0.4,0,0.7c0,0.3,0,0.5,0,0.7c0,0.4-0.2,0.8-0.5,1
		c-0.3,0.3-0.7,0.4-1.1,0.4c-0.6,0-1.1-0.3-1.4-0.8c-1,0.4-1.9,0.5-3,0.5c-1.1,0-2-0.2-2.7-0.7c-0.8-0.5-1.3-1.3-1.5-2.2
		c-0.3-1.9-0.4-3.5-0.4-5c0-1,0.1-2.1,0.3-3.3c0.1-0.8,0.7-1.3,1.5-1.3c0.4,0,0.8,0.1,1.1,0.4s0.5,0.6,0.5,1c0,0.3-0.1,0.8-0.2,1.5
		c-0.1,0.7-0.2,1.2-0.2,1.6c0,1,0,2,0.1,2.7c0.1,0.8,0.2,1.4,0.3,1.9c0.2,0.1,0.4,0.1,0.5,0.2c0.2,0,0.3,0.1,0.5,0.1
		c0.8,0,1.7-0.1,2.7-0.4c0-0.6,0-1.2,0-2c0-0.9,0-1.5,0-1.9c0-1.5,0.1-2.9,0.2-4c0.1-0.9,0.6-1.3,1.5-1.3c0.4,0,0.8,0.1,1.1,0.4
		c0.3,0.3,0.5,0.6,0.4,1C49.7,14.4,49.6,15.7,49.6,15.5z"/>
	<path d="M60.4,17.1c-1,0.1-2.9,0.1-5.5,0.1c-0.5,0-0.9-0.1-1.2-0.3c-0.4-0.3-0.6-0.6-0.6-1s0.2-0.8,0.6-1c0.4-0.2,0.8-0.3,1.2-0.3
		c0.6,0,1.5,0,2.7-0.1c1.2,0,2.1-0.1,2.7-0.1c0.5,0,0.9,0.1,1.2,0.3c0.4,0.2,0.7,0.6,0.7,1.1C62.1,16.6,61.5,17.1,60.4,17.1z"/>
	<path d="M69,17l0,4.7c0,0.3-0.1,0.6-0.3,0.9c-0.3,0.4-0.6,0.6-1.1,0.6c-0.6,0-1.1-0.2-1.4-0.7c-0.3-0.4-0.4-0.8-0.4-1.2
		c0-1.7,0.1-4.2,0.2-7.5c0.1-3.3,0.2-5.8,0.2-7.5c0-0.4,0.1-0.8,0.4-1.1c0.3-0.3,0.7-0.4,1.1-0.4c0.4,0,0.8,0.1,1.1,0.4
		c0.3,0.3,0.4,0.7,0.4,1.1c0,0.7,0,1.6-0.1,2.7c-0.1,1.3-0.1,2.2-0.1,2.7c0.5-0.5,2.5-2.6,5.8-6.2C75.2,5.2,75.6,5,76,5
		c0.4,0,0.8,0.1,1.1,0.4c0.3,0.3,0.5,0.7,0.5,1.1c0,0.5-0.9,1.7-2.7,3.6c-1.3,1.4-2.7,2.8-4.2,4.2c0.8,0.8,1.6,1.5,2.5,2.3
		c1,0.9,1.8,1.6,2.6,2.2c0.4,0.3,0.8,0.5,1.2,0.6c0.8,0.3,1.2,0.7,1.2,1.5c0,0.3-0.1,0.6-0.3,0.9c-0.3,0.4-0.7,0.6-1.2,0.6
		c-1.1,0-2.5-0.7-4.2-2.1C72.1,20,70.9,18.8,69,17z"/>
	<path d="M83.3,16.7c0,0.4,0,1.1,0,2.1c0,0.9,0,1.6,0,2.1c0,0.4-0.1,0.8-0.4,1.1s-0.7,0.4-1.1,0.4c-0.4,0-0.8-0.1-1.1-0.4
		c-0.3-0.3-0.4-0.6-0.4-1.1c0-0.4,0-1.1,0-2.1c0-0.9,0-1.6,0-2.1c0-0.7,0-1.5,0.1-2.5s0.1-1.8,0.1-2.5c0-0.4,0.1-0.8,0.4-1.1
		s0.7-0.4,1.1-0.4s0.8,0.1,1.1,0.4s0.4,0.6,0.4,1.1c0,0.7,0,1.5-0.1,2.5S83.3,16,83.3,16.7z M82.3,8.5c-0.5,0-0.9-0.2-1.2-0.5
		c-0.4-0.3-0.5-0.7-0.5-1.2c0-0.5,0.2-0.9,0.5-1.2s0.8-0.5,1.2-0.5c0.5,0,0.9,0.2,1.2,0.5c0.3,0.3,0.5,0.7,0.5,1.2
		c0,0.5-0.2,0.9-0.5,1.2C83.2,8.3,82.8,8.5,82.3,8.5z"/>
	<path d="M95,22.8c-0.9,0-1.4-0.5-1.5-1.4c-0.1-0.8-0.2-1.5-0.3-2.3c-0.1-0.8-0.2-1.6-0.2-2.3c0-0.2,0-0.5,0-1c0-0.5,0-0.8,0-1
		c0-0.1,0-0.2,0-0.4c0-0.2,0-0.4,0-0.5c0-0.6-0.1-0.9-0.4-0.9c-0.6,0-1.3,0.4-1.9,1.2c-0.6,0.8-1.1,1.9-1.4,3.1c0,0.3,0,0.6-0.1,1
		c0,0.3-0.1,0.7-0.1,1c0,0.2,0,0.5-0.1,1c0,0.4-0.1,0.8-0.1,1c0,0.4-0.1,0.8-0.4,1.1c-0.3,0.3-0.7,0.4-1.1,0.4
		c-0.4,0-0.8-0.1-1.1-0.4C86.1,22,86,21.7,86,21.3c0-0.2,0-0.5-0.1-1c0-0.4-0.1-0.8-0.1-1c0-0.7,0.1-1.7,0.2-3
		c0.1-1.3,0.2-2.3,0.2-3c0-0.2,0-0.6,0-1c0-0.5,0-0.8,0-1c0-0.4,0.2-0.8,0.5-1.1c0.3-0.3,0.7-0.4,1.1-0.4c1,0,1.5,0.6,1.6,1.8l0,0.1
		c1.1-1.1,2.2-1.6,3.5-1.6c1.4,0,2.4,0.6,2.9,1.8c0.4,0.8,0.5,2,0.5,3.6v0.8c0,0.3,0,0.6,0,0.7c0,0.6,0.1,1.3,0.2,2.3
		c0.2,0.9,0.2,1.7,0.2,2.2c0,0.4-0.1,0.8-0.4,1C95.8,22.6,95.5,22.8,95,22.8z"/>
	<path d="M120.5,8.2c-0.1,0-0.3,0-0.6,0c-0.3,0-0.5,0-0.7,0h-0.9c0-0.1,0,0.1,0,0.8c0,5.4-0.4,9.2-1.1,11.7c-0.6,1.8-1.6,2.7-3,2.7
		c-1.4,0-2.8-0.5-4.1-1.4c-1.5-1.1-2.3-2.3-2.3-3.8c0-1.2,0.5-1.7,1.6-1.7c1.1,0,1.6,0.6,1.6,1.7c0,0.4,0.4,0.9,1.1,1.4
		c0.8,0.5,1.5,0.8,2.1,0.8c0.3,0,0.5-0.5,0.6-1.5c0-0.2,0.1-1.4,0.2-3.5c0.1-1.7,0.2-3.8,0.2-6.4c0-0.1,0-0.3,0-0.7l-0.3,0
		c-0.3,0-0.8,0-1.3,0c-0.7,0-1.1,0-1.3,0c-0.4,0-0.8-0.1-1.1-0.4c-0.3-0.3-0.5-0.7-0.5-1.1c0-1,0.7-1.5,2-1.5c0.3,0,0.6,0,1.1,0
		c0.5,0,0.9,0,1.1,0c0.5,0,1.2,0,2.1-0.1S118.5,5,119,5c2,0,3,0.6,3,1.7c0,0.4-0.1,0.7-0.4,1C121.3,8,120.9,8.2,120.5,8.2z"/>
	<path d="M128.1,22.6c-1.4,0-2.6-0.5-3.6-1.4c-1.1-1-1.7-2.4-1.7-4.2c-0.1-1.7,0.4-3.1,1.4-4.4c1.1-1.5,2.7-2.3,4.7-2.3
		c1.5,0,2.7,0.6,3.6,1.8c0.8,1.1,1.2,2.4,1.2,4c0,1.7-0.5,3.2-1.4,4.4C131.2,21.9,129.8,22.6,128.1,22.6z M128.7,13.3
		c-0.9,0-1.6,0.4-2.2,1.3c-0.4,0.7-0.7,1.5-0.7,2.5c0,0.9,0.3,1.6,0.8,2.1c0.4,0.4,0.9,0.6,1.4,0.6c0.6,0,1.2-0.2,1.7-0.7
		c0.5-0.5,0.8-1.2,0.9-2.1C130.7,14.5,130.1,13.3,128.7,13.3z"/>
	<path d="M145.3,15.5c0,0.5,0,1.3,0,2.3c0,1,0,1.8,0,2.3c0,0.2,0,0.4,0,0.7c0,0.3,0,0.5,0,0.7c0,0.4-0.2,0.8-0.5,1
		c-0.3,0.3-0.7,0.4-1.1,0.4c-0.6,0-1.1-0.3-1.4-0.8c-1,0.4-1.9,0.5-3,0.5c-1.1,0-2-0.2-2.7-0.7c-0.8-0.5-1.3-1.3-1.5-2.2
		c-0.3-1.9-0.4-3.5-0.4-5c0-1,0.1-2.1,0.3-3.3c0.1-0.8,0.7-1.3,1.5-1.3c0.4,0,0.8,0.1,1.1,0.4s0.5,0.6,0.5,1c0,0.3-0.1,0.8-0.2,1.5
		s-0.2,1.2-0.2,1.6c0,1,0,2,0.1,2.7s0.2,1.4,0.3,1.9c0.2,0.1,0.4,0.1,0.5,0.2s0.3,0.1,0.5,0.1c0.8,0,1.7-0.1,2.7-0.4
		c0-0.6,0-1.2,0-2c0-0.9,0-1.5,0-1.9c0-1.5,0.1-2.9,0.2-4c0.1-0.9,0.6-1.3,1.5-1.3c0.4,0,0.8,0.1,1.1,0.4c0.3,0.3,0.5,0.6,0.4,1
		C145.4,14.4,145.3,15.7,145.3,15.5z"/>
	<path d="M156.9,13.9c-0.1,1.1-0.6,1.7-1.6,1.7c-0.9,0-1.4-0.5-1.4-1.5l-0.1-1.1c-1.7,0.3-2.9,1.1-3.6,2.6l0,5.6
		c0,0.4-0.1,0.8-0.4,1.1c-0.3,0.3-0.7,0.4-1.1,0.4c-0.5,0-0.8-0.1-1.1-0.4c-0.2-0.3-0.4-0.6-0.4-1v-7.3c0-0.2,0-0.6,0-1
		c0-0.5,0-0.8,0-1c0-0.4,0.1-0.8,0.4-1c0.3-0.3,0.6-0.4,1.1-0.4c0.8,0,1.3,0.4,1.5,1.3c1.3-1,2.8-1.5,4.4-1.5c1.5,0,2.2,1,2.2,3
		C156.9,13.5,156.9,13.8,156.9,13.9z"/>
	<path d="M167.3,22.8c-0.9,0-1.4-0.5-1.5-1.4c-0.1-0.8-0.2-1.5-0.3-2.3c-0.1-0.8-0.2-1.6-0.2-2.3c0-0.2,0-0.5,0-1c0-0.5,0-0.8,0-1
		c0-0.1,0-0.2,0-0.4s0-0.4,0-0.5c0-0.6-0.1-0.9-0.4-0.9c-0.6,0-1.3,0.4-1.9,1.2c-0.6,0.8-1.1,1.9-1.4,3.1c0,0.3,0,0.6-0.1,1
		c0,0.3-0.1,0.7-0.1,1c0,0.2,0,0.5-0.1,1s-0.1,0.8-0.1,1c0,0.4-0.1,0.8-0.4,1.1c-0.3,0.3-0.7,0.4-1.1,0.4c-0.4,0-0.8-0.1-1.1-0.4
		c-0.3-0.3-0.4-0.6-0.4-1.1c0-0.2,0-0.5-0.1-1c0-0.4-0.1-0.8-0.1-1c0-0.7,0.1-1.7,0.2-3c0.1-1.3,0.2-2.3,0.2-3c0-0.2,0-0.6,0-1
		c0-0.5,0-0.8,0-1c0-0.4,0.2-0.8,0.5-1.1c0.3-0.3,0.7-0.4,1.1-0.4c1,0,1.5,0.6,1.6,1.8l0,0.1c1.1-1.1,2.2-1.6,3.5-1.6
		c1.4,0,2.4,0.6,2.9,1.8c0.4,0.8,0.5,2,0.5,3.6v0.8c0,0.3,0,0.6,0,0.7c0,0.6,0.1,1.3,0.2,2.3c0.2,0.9,0.2,1.7,0.2,2.2
		c0,0.4-0.1,0.8-0.4,1C168.1,22.6,167.8,22.8,167.3,22.8z"/>
	<path d="M176.2,22.5c-1.8,0-3.2-0.4-4.4-1.3c-1.3-0.9-1.9-2.3-1.9-4c0-1.9,0.5-3.5,1.5-4.8c1.1-1.4,2.6-2.2,4.5-2.2
		c1.3,0,2.4,0.2,3.2,0.6c1.1,0.6,1.7,1.4,1.7,2.6c0,0.8-0.5,1.6-1.4,2.2c-0.4,0.3-1.3,0.7-2.5,1.3l-3.8,1.7c0.4,0.4,0.8,0.7,1.3,0.9
		c0.5,0.2,1.1,0.3,1.7,0.3c1,0,1.8-0.2,2.5-0.6c0.6-0.4,1.1-0.5,1.5-0.5c0.8,0,1.2,0.4,1.2,1.1c0,0.9-0.6,1.5-1.9,2.1
		C178.4,22.3,177.3,22.5,176.2,22.5z M175.9,13c-0.7,0-1.3,0.2-1.8,0.7c-0.5,0.5-0.9,1.2-1.2,2.1c0.8-0.4,1.7-0.7,2.5-1.1
		c1-0.5,1.8-0.9,2.4-1.3C177.3,13.1,176.7,13,175.9,13z"/>
	<path d="M194.5,12.5c-0.8,1.7-2.1,4.4-3.9,8c-1,2-1.7,3.6-2.2,4.9c-0.2,0.5-0.4,1.2-0.7,2.1c-0.3,0.7-0.7,1.1-1.4,1.1
		c-0.4,0-0.8-0.1-1.1-0.4s-0.5-0.6-0.5-1c0-0.7,0.8-2.8,2.4-6.2c-0.8-1.6-2.1-4-3.9-7.2c-0.2-0.3-0.4-0.6-0.5-0.9
		c-0.2-0.3-0.3-0.7-0.3-0.9c0-0.4,0.2-0.8,0.5-1.1c0.3-0.3,0.7-0.5,1.1-0.5c0.5,0,0.9,0.2,1.2,0.5c1.1,1.4,2.3,3.5,3.7,6.4
		c0.8-1.8,1.3-2.8,1.5-3.2c0.5-1.1,1-2.1,1.6-2.9c0.3-0.5,0.8-0.8,1.3-0.8c0.4,0,0.8,0.1,1.1,0.4c0.3,0.3,0.5,0.6,0.5,1
		C194.7,12,194.6,12.2,194.5,12.5z"/>
</g>
<g>
	<path d="M32.4,57.6c0,0.6-0.1,1.6-0.3,3c-0.2,1.6-1.2,2.4-2.7,2.4c-0.9,0-1.9-0.5-3-1.5c-4.8-4.3-10.2-10.4-16.2-18.2
		c-0.1,3.2-0.1,5.2-0.1,6c0,1,0,2.5,0.1,4.4c0,2,0.1,3.5,0.1,4.4c0,3.7-0.9,5.5-2.7,5.5c-0.9,0-1.6-0.3-2.2-0.8
		c-0.5-0.5-0.7-1.1-0.7-1.8c0-0.5,0-1.3,0.1-2.3s0.1-1.8,0.1-2.3c0-0.7,0-1.8,0.1-3.3c0-1.5,0.1-2.6,0.1-3.3c0-0.8,0-2-0.1-3.5
		c0-1.6-0.1-2.8-0.1-3.5c0-0.7-0.1-1.9-0.2-3.3s-0.2-2.6-0.2-3.3s0.3-1.4,1-2c0.6-0.6,1.4-0.9,2.2-0.9c0.9,0,1.9,0.8,3.1,2.4
		c5.7,8.1,11.2,14.7,16.7,19.7c0-0.4,0-1.3,0-2.8c0-6.1-0.1-10.3-0.2-12.4c0-0.4-0.1-1-0.2-2c-0.1-0.9-0.2-1.6-0.2-2.1
		c0-1.7,0.9-2.6,2.7-2.6c2,0,3,3.1,3,9.4c0,0.1,0,1.1,0,3C32.4,52.1,32.4,56,32.4,57.6z"/>
	<path d="M43.5,63.3c-2.3,0-4.3-0.8-5.9-2.4c-1.8-1.7-2.8-4-2.9-6.9c-0.1-2.8,0.7-5.2,2.3-7.4c1.9-2.5,4.5-3.8,7.9-3.8
		c2.5,0,4.5,1,5.9,3c1.3,1.8,2,4,2,6.7c0,2.9-0.8,5.4-2.3,7.4C48.8,62.1,46.5,63.3,43.5,63.3z M44.7,47.7c-1.5,0-2.7,0.7-3.6,2.1
		c-0.7,1.2-1.1,2.6-1.1,4.1c0,1.5,0.4,2.6,1.3,3.4c0.7,0.6,1.5,1,2.4,1c1.1,0,2-0.4,2.8-1.1c0.9-0.9,1.4-2,1.5-3.5
		C48,49.8,46.9,47.8,44.7,47.7z"/>
	<path d="M72.3,51.4c0,0.8,0,2.1,0,3.8c0,1.7,0,2.9,0,3.8c0,0.3,0,0.7,0.1,1.2c0,0.5,0.1,0.9,0.1,1.2c0,0.7-0.3,1.3-0.8,1.7
		s-1.1,0.7-1.9,0.7c-1,0-1.8-0.5-2.3-1.4c-1.6,0.6-3.2,0.9-5,0.9c-1.8,0-3.3-0.4-4.5-1.1c-1.4-0.9-2.2-2.1-2.4-3.7
		C55.3,55.2,55,52.4,55,50c0-1.6,0.2-3.4,0.6-5.5c0.2-1.4,1.1-2.1,2.5-2.1c0.7,0,1.3,0.2,1.8,0.7c0.5,0.5,0.8,1,0.8,1.7
		c0,0.5-0.1,1.4-0.3,2.6c-0.2,1.2-0.3,2-0.3,2.7c0,1.7,0.1,3.3,0.2,4.6c0.1,1.3,0.3,2.4,0.5,3.2c0.3,0.1,0.6,0.2,0.9,0.3
		c0.3,0.1,0.6,0.1,0.8,0.1c1.4,0,2.9-0.2,4.6-0.6c0-1,0-2,0-3.3c0-1.5,0-2.5,0-3.1c0-2.6,0.1-4.8,0.4-6.6c0.2-1.5,1-2.2,2.5-2.2
		c0.7,0,1.4,0.2,1.9,0.7c0.5,0.5,0.8,1,0.7,1.7C72.4,49.6,72.3,51.7,72.3,51.4z"/>
	<path d="M90.6,63.5c-1.5,0-2.4-0.8-2.6-2.3c-0.2-1.3-0.3-2.6-0.5-3.9c-0.2-1.4-0.3-2.7-0.3-3.9c0-0.3,0-0.9,0.1-1.7
		s0.1-1.3,0.1-1.7c0-0.1,0-0.3,0-0.7c0-0.4,0-0.6,0-0.9c0-1-0.2-1.6-0.7-1.6c-1.1,0-2.1,0.7-3.1,2.1c-1,1.4-1.8,3.1-2.4,5.2
		c0,0.4-0.1,1-0.2,1.7c-0.1,0.6-0.1,1.1-0.1,1.7c0,0.4,0,0.9-0.1,1.6c-0.1,0.7-0.1,1.3-0.1,1.6c0,0.7-0.2,1.3-0.7,1.8
		c-0.5,0.5-1.1,0.7-1.9,0.7s-1.4-0.2-1.8-0.7c-0.5-0.5-0.7-1.1-0.7-1.8c0-0.4,0-0.9-0.1-1.6c-0.1-0.7-0.1-1.3-0.1-1.6
		c0-1.2,0.1-2.9,0.3-5.1s0.3-3.9,0.3-5.1c0-0.4,0-0.9-0.1-1.7c0-0.8-0.1-1.3-0.1-1.7c0-0.7,0.3-1.3,0.8-1.8s1.1-0.7,1.9-0.7
		c1.6,0,2.5,1,2.6,2.9l0,0.2c1.8-1.8,3.7-2.7,5.8-2.7c2.4,0,4,1,4.9,3c0.6,1.3,0.9,3.3,0.9,5.9v1.3c0,0.6,0,1,0,1.2
		c0,1,0.1,2.2,0.4,3.8c0.3,1.5,0.4,2.8,0.4,3.7c0,0.7-0.2,1.3-0.7,1.7C91.9,63.3,91.3,63.5,90.6,63.5z"/>
	<path d="M109,48.5c-1.2,0-2-0.5-2.2-1.6c-0.5-0.1-1-0.1-1.5-0.1c-3,0-4.5,0.4-4.5,1.2c0,0.5,0.9,1.1,2.7,2c2.5,1.1,4.1,2,5,2.7
		c1.8,1.3,2.7,2.8,2.7,4.4c0,2.1-1,3.8-3,4.9c-1.6,0.9-3.6,1.3-5.9,1.3c-1.7,0-3.2-0.3-4.5-0.8c-1.9-0.7-2.8-1.7-2.8-3.1
		c0-1.2,0.7-1.9,2.2-1.9c0.6,0,1.4,0.2,2.5,0.5c1.1,0.4,1.9,0.5,2.5,0.5c2.5,0,3.8-0.5,3.8-1.5c0-0.6-0.9-1.3-2.6-2.1
		c-2.6-1.1-4.2-1.9-4.9-2.4c-1.8-1.2-2.6-2.7-2.6-4.5c0-2.5,1.3-4.2,4-5.1c1.6-0.5,3.9-0.8,7.1-0.8c1.2,0,2.2,0.2,2.8,0.5
		c0.8,0.4,1.2,1.2,1.2,2.4C110.8,47.4,110.2,48.5,109,48.5z"/>
	<path d="M134.5,62.4c-0.7,0-1.4-0.3-1.8-0.8c-0.5-0.5-0.7-1.1-0.7-1.8c0-1.2,0.1-3.1,0.2-5.6s0.2-4.4,0.2-5.6c0-1.4,0-3.5-0.1-6.2
		c-0.1-2.8-0.1-4.8-0.1-6.2c0-0.7,0.3-1.4,1-2s1.4-1,2.1-1c0.4,0,1.4,0.4,3.1,1.2c1.9,0.9,3.1,1.4,3.4,1.6c3.6,1.2,6.8,3,9.3,5.5
		c3.1,3,4.6,6.2,4.6,9.8c0,2.2-0.5,4.2-1.6,6.1c-1.1,2-2.5,3.6-4.4,4.8c-2.1,1.3-5,2-8.7,2c-0.9,0-2-0.1-3.1-0.4
		C136.4,63.3,135.3,62.9,134.5,62.4z M145,43.2c-1.2-0.8-3.8-2-7.8-3.6v18.5c0.5,0.3,1,0.5,1.7,0.7s1.3,0.2,2.1,0.2
		c2.7,0,4.6-0.4,5.8-1.1c1.1-0.7,2-1.7,2.6-2.9c0.7-1.2,1-2.5,1-3.8C150.4,48.1,148.6,45.4,145,43.2z"/>
	<path d="M174.8,63.2c-0.6,0-1.5-0.6-2.7-1.7c-1.1,0.5-2.2,1-3,1.2c-0.9,0.3-1.6,0.4-2.2,0.4c-3,0-5.3-0.8-6.8-2.4s-2.3-4-2.3-7.2
		c0-3,1.1-5.6,3.3-7.7s4.9-3.2,8-3.2c1.2,0,2.6,0.3,4.1,1c1.9,0.8,2.8,1.7,2.8,2.8c0,0.4-0.1,0.8-0.4,1.2c-0.1,0.5-0.2,1.1-0.3,1.9
		s-0.1,1.6-0.1,2.6c0,2.4,0.2,4.1,0.5,5.1c0,0.1,0.3,0.8,0.9,1.9c0.5,1.1,0.7,1.7,0.7,1.8c0,0.7-0.3,1.2-0.8,1.6
		C176.1,63,175.5,63.2,174.8,63.2z M170.2,50.6c0-0.4,0-0.9,0.1-1.4c0.1-0.5,0.1-1.1,0.3-1.7c-0.2-0.1-0.5-0.2-0.7-0.3
		c-0.2-0.1-0.4-0.1-0.5-0.1c-1.7,0-3.2,0.7-4.4,2c-1.3,1.3-1.9,2.9-1.9,4.6c0,1.7,0.3,2.9,0.9,3.8c0.6,0.8,1.5,1.3,2.7,1.3
		c0.8,0,1.5-0.1,2.2-0.4s1.3-0.6,2-1.1C170.4,54.3,170.2,52.1,170.2,50.6z"/>
	<path d="M187.7,63.3c-2.3,0-4.3-0.8-5.9-2.4c-1.8-1.7-2.8-4-2.9-6.9c-0.1-2.8,0.7-5.2,2.3-7.4c1.9-2.5,4.5-3.8,7.9-3.8
		c2.5,0,4.5,1,5.9,3c1.3,1.8,2,4,2,6.7c0,2.9-0.8,5.4-2.3,7.4C192.9,62.1,190.6,63.3,187.7,63.3z M188.8,47.7
		c-1.5,0-2.7,0.7-3.6,2.1c-0.7,1.2-1.1,2.6-1.1,4.1c0,1.5,0.4,2.6,1.3,3.4c0.7,0.6,1.5,1,2.4,1c1.1,0,2-0.4,2.8-1.1
		c0.9-0.9,1.4-2,1.5-3.5C192.1,49.8,191,47.8,188.8,47.7z"/>
	<path d="M213.2,48.5c-1.2,0-2-0.5-2.2-1.6c-0.5-0.1-1-0.1-1.5-0.1c-3,0-4.5,0.4-4.5,1.2c0,0.5,0.9,1.1,2.7,2c2.5,1.1,4.1,2,5,2.7
		c1.8,1.3,2.7,2.8,2.7,4.4c0,2.1-1,3.8-3,4.9c-1.6,0.9-3.6,1.3-5.9,1.3c-1.7,0-3.2-0.3-4.5-0.8c-1.9-0.7-2.8-1.7-2.8-3.1
		c0-1.2,0.7-1.9,2.2-1.9c0.6,0,1.4,0.2,2.5,0.5c1.1,0.4,1.9,0.5,2.5,0.5c2.5,0,3.8-0.5,3.8-1.5c0-0.6-0.9-1.3-2.6-2.1
		c-2.6-1.1-4.2-1.9-4.9-2.4c-1.8-1.2-2.6-2.7-2.6-4.5c0-2.5,1.3-4.2,4-5.1c1.6-0.5,3.9-0.8,7.1-0.8c1.2,0,2.2,0.2,2.8,0.5
		c0.8,0.4,1.2,1.2,1.2,2.4C215,47.4,214.4,48.5,213.2,48.5z"/>
</g>
<g>
	<path class="st0" d="M35,6.7c-0.2,0-0.4,0-0.6-0.1c-1-0.3-2.1-0.5-3.5-0.5c-0.5,0-1,0-1.6,0.1c-0.6,0.1-1.3,0.1-2,0.3
		c0,1.4,0,2.7,0,3.7c1.1-0.3,2.1-0.4,2.8-0.4c1.4,0,2.6,0.1,3.6,0.2c1,0.1,1.4,0.6,1.4,1.5c0,0.4-0.2,0.8-0.5,1.1S34.1,13,33.6,13
		c-0.4,0-1,0-1.7-0.1c-0.8-0.1-1.4-0.1-1.7-0.1c-0.5,0-1.5,0.2-2.8,0.5v7c0,0.4-0.2,0.8-0.5,1.1c-0.3,0.3-0.7,0.4-1.2,0.4
		c-0.4,0-0.8-0.1-1.1-0.4c-0.3-0.3-0.4-0.7-0.4-1.1V7.5c0-0.3,0-0.7,0-1.3c0-0.6,0-1,0-1.3c0-0.4,0.1-0.8,0.4-1.1s0.7-0.4,1.1-0.4
		c0.3,0,0.5,0.1,0.8,0.2c0.9-0.1,1.7-0.3,2.4-0.3c0.7-0.1,1.4-0.1,2-0.1c0.9,0,1.9,0.2,3.2,0.5c1.6,0.4,2.4,1,2.4,1.5
		c0,0.4-0.2,0.8-0.5,1.1C35.8,6.5,35.4,6.7,35,6.7z"/>
	<path class="st0" d="M48,14.2c0,0.5,0,1.3,0,2.3c0,1,0,1.8,0,2.3c0,0.2,0,0.4,0,0.7c0,0.3,0,0.5,0,0.7c0,0.4-0.2,0.8-0.5,1
		c-0.3,0.3-0.7,0.4-1.1,0.4c-0.6,0-1.1-0.3-1.4-0.8c-1,0.4-1.9,0.5-3,0.5c-1.1,0-2-0.2-2.7-0.7c-0.8-0.5-1.3-1.3-1.5-2.2
		c-0.3-1.9-0.4-3.5-0.4-5c0-1,0.1-2.1,0.3-3.3c0.1-0.8,0.7-1.3,1.5-1.3c0.4,0,0.8,0.1,1.1,0.4s0.5,0.6,0.5,1c0,0.3-0.1,0.8-0.2,1.5
		c-0.1,0.7-0.2,1.2-0.2,1.6c0,1,0,2,0.1,2.7c0.1,0.8,0.2,1.4,0.3,1.9c0.2,0.1,0.4,0.1,0.5,0.2c0.2,0,0.3,0.1,0.5,0.1
		c0.8,0,1.7-0.1,2.7-0.4c0-0.6,0-1.2,0-2c0-0.9,0-1.5,0-1.9c0-1.5,0.1-2.9,0.2-4c0.1-0.9,0.6-1.3,1.5-1.3c0.4,0,0.8,0.1,1.1,0.4
		c0.3,0.3,0.5,0.6,0.4,1C48.1,13.1,48,14.4,48,14.2z"/>
	<path class="st0" d="M58.8,15.9c-1,0.1-2.9,0.1-5.5,0.1c-0.5,0-0.9-0.1-1.2-0.3c-0.4-0.3-0.6-0.6-0.6-1s0.2-0.8,0.6-1
		c0.4-0.2,0.8-0.3,1.2-0.3c0.6,0,1.5,0,2.7-0.1c1.2,0,2.1-0.1,2.7-0.1c0.5,0,0.9,0.1,1.2,0.3c0.4,0.2,0.7,0.6,0.7,1.1
		C60.5,15.3,60,15.8,58.8,15.9z"/>
	<path class="st0" d="M67.5,15.7l0,4.7c0,0.3-0.1,0.6-0.3,0.9c-0.3,0.4-0.6,0.6-1.1,0.6c-0.6,0-1.1-0.2-1.4-0.7
		c-0.3-0.4-0.4-0.8-0.4-1.2c0-1.7,0.1-4.2,0.2-7.5c0.1-3.3,0.2-5.8,0.2-7.5c0-0.4,0.1-0.8,0.4-1.1c0.3-0.3,0.7-0.4,1.1-0.4
		c0.4,0,0.8,0.1,1.1,0.4c0.3,0.3,0.4,0.7,0.4,1.1c0,0.7,0,1.6-0.1,2.7c-0.1,1.3-0.1,2.2-0.1,2.7c0.5-0.5,2.5-2.6,5.8-6.2
		c0.3-0.4,0.7-0.6,1.2-0.6c0.4,0,0.8,0.1,1.1,0.4C75.9,4.5,76,4.8,76,5.2c0,0.5-0.9,1.7-2.7,3.6c-1.3,1.4-2.7,2.8-4.2,4.2
		c0.8,0.8,1.6,1.5,2.5,2.3c1,0.9,1.8,1.6,2.6,2.2c0.4,0.3,0.8,0.5,1.2,0.6c0.8,0.3,1.2,0.7,1.2,1.5c0,0.3-0.1,0.6-0.3,0.9
		c-0.3,0.4-0.7,0.6-1.2,0.6c-1.1,0-2.5-0.7-4.2-2.1C70.6,18.7,69.4,17.6,67.5,15.7z"/>
	<path class="st0" d="M81.7,15.4c0,0.4,0,1.1,0,2.1c0,0.9,0,1.6,0,2.1c0,0.4-0.1,0.8-0.4,1.1S80.7,21,80.2,21
		c-0.4,0-0.8-0.1-1.1-0.4c-0.3-0.3-0.4-0.6-0.4-1.1c0-0.4,0-1.1,0-2.1c0-0.9,0-1.6,0-2.1c0-0.7,0-1.5,0.1-2.5s0.1-1.8,0.1-2.5
		c0-0.4,0.1-0.8,0.4-1.1s0.7-0.4,1.1-0.4s0.8,0.1,1.1,0.4s0.4,0.6,0.4,1.1c0,0.7,0,1.5-0.1,2.5S81.7,14.8,81.7,15.4z M80.8,7.2
		c-0.5,0-0.9-0.2-1.2-0.5C79.2,6.4,79,6,79,5.6c0-0.5,0.2-0.9,0.5-1.2s0.8-0.5,1.2-0.5c0.5,0,0.9,0.2,1.2,0.5
		c0.3,0.3,0.5,0.7,0.5,1.2c0,0.5-0.2,0.9-0.5,1.2C81.6,7.1,81.2,7.2,80.8,7.2z"/>
	<path class="st0" d="M93.5,21.5c-0.9,0-1.4-0.5-1.5-1.4c-0.1-0.8-0.2-1.5-0.3-2.3c-0.1-0.8-0.2-1.6-0.2-2.3c0-0.2,0-0.5,0-1
		c0-0.5,0-0.8,0-1c0-0.1,0-0.2,0-0.4c0-0.2,0-0.4,0-0.5c0-0.6-0.1-0.9-0.4-0.9c-0.6,0-1.3,0.4-1.9,1.2c-0.6,0.8-1.1,1.9-1.4,3.1
		c0,0.3,0,0.6-0.1,1c0,0.3-0.1,0.7-0.1,1c0,0.2,0,0.5-0.1,1c0,0.4-0.1,0.8-0.1,1c0,0.4-0.1,0.8-0.4,1.1c-0.3,0.3-0.7,0.4-1.1,0.4
		c-0.4,0-0.8-0.1-1.1-0.4c-0.3-0.3-0.4-0.6-0.4-1.1c0-0.2,0-0.5-0.1-1c0-0.4-0.1-0.8-0.1-1c0-0.7,0.1-1.7,0.2-3
		c0.1-1.3,0.2-2.3,0.2-3c0-0.2,0-0.6,0-1c0-0.5,0-0.8,0-1c0-0.4,0.2-0.8,0.5-1.1c0.3-0.3,0.7-0.4,1.1-0.4c1,0,1.5,0.6,1.6,1.8l0,0.1
		c1.1-1.1,2.2-1.6,3.5-1.6c1.4,0,2.4,0.6,2.9,1.8c0.4,0.8,0.5,2,0.5,3.6v0.8c0,0.3,0,0.6,0,0.7c0,0.6,0.1,1.3,0.2,2.3
		c0.2,0.9,0.2,1.7,0.2,2.2c0,0.4-0.1,0.8-0.4,1C94.3,21.3,93.9,21.5,93.5,21.5z"/>
	<path class="st0" d="M118.9,6.9c-0.1,0-0.3,0-0.6,0c-0.3,0-0.5,0-0.7,0h-0.9c0-0.1,0,0.1,0,0.8c0,5.4-0.4,9.2-1.1,11.7
		c-0.6,1.8-1.6,2.7-3,2.7c-1.4,0-2.8-0.5-4.1-1.4c-1.5-1.1-2.3-2.3-2.3-3.8c0-1.2,0.5-1.7,1.6-1.7c1.1,0,1.6,0.6,1.6,1.7
		c0,0.4,0.4,0.9,1.1,1.4c0.8,0.5,1.5,0.8,2.1,0.8c0.3,0,0.5-0.5,0.6-1.5c0-0.2,0.1-1.4,0.2-3.5c0.1-1.7,0.2-3.8,0.2-6.4
		c0-0.1,0-0.3,0-0.7l-0.3,0c-0.3,0-0.8,0-1.3,0c-0.7,0-1.1,0-1.3,0c-0.4,0-0.8-0.1-1.1-0.4c-0.3-0.3-0.5-0.7-0.5-1.1
		c0-1,0.7-1.5,2-1.5c0.3,0,0.6,0,1.1,0c0.5,0,0.9,0,1.1,0c0.5,0,1.2,0,2.1-0.1c0.9-0.1,1.6-0.1,2.1-0.1c2,0,3,0.6,3,1.7
		c0,0.4-0.1,0.7-0.4,1C119.7,6.8,119.3,6.9,118.9,6.9z"/>
	<path class="st0" d="M126.5,21.4c-1.4,0-2.6-0.5-3.6-1.4c-1.1-1-1.7-2.4-1.7-4.2c-0.1-1.7,0.4-3.1,1.4-4.4c1.1-1.5,2.7-2.3,4.7-2.3
		c1.5,0,2.7,0.6,3.6,1.8c0.8,1.1,1.2,2.4,1.2,4c0,1.7-0.5,3.2-1.4,4.4C129.6,20.7,128.2,21.4,126.5,21.4z M127.2,12
		c-0.9,0-1.6,0.4-2.2,1.3c-0.4,0.7-0.7,1.5-0.7,2.5c0,0.9,0.3,1.6,0.8,2.1c0.4,0.4,0.9,0.6,1.4,0.6c0.6,0,1.2-0.2,1.7-0.7
		c0.5-0.5,0.8-1.2,0.9-2.1C129.2,13.2,128.5,12,127.2,12z"/>
	<path class="st0" d="M143.8,14.2c0,0.5,0,1.3,0,2.3c0,1,0,1.8,0,2.3c0,0.2,0,0.4,0,0.7c0,0.3,0,0.5,0,0.7c0,0.4-0.2,0.8-0.5,1
		c-0.3,0.3-0.7,0.4-1.1,0.4c-0.6,0-1.1-0.3-1.4-0.8c-1,0.4-1.9,0.5-3,0.5c-1.1,0-2-0.2-2.7-0.7c-0.8-0.5-1.3-1.3-1.5-2.2
		c-0.3-1.9-0.4-3.5-0.4-5c0-1,0.1-2.1,0.3-3.3c0.1-0.8,0.7-1.3,1.5-1.3c0.4,0,0.8,0.1,1.1,0.4s0.5,0.6,0.5,1c0,0.3-0.1,0.8-0.2,1.5
		s-0.2,1.2-0.2,1.6c0,1,0,2,0.1,2.7s0.2,1.4,0.3,1.9c0.2,0.1,0.4,0.1,0.5,0.2s0.3,0.1,0.5,0.1c0.8,0,1.7-0.1,2.7-0.4
		c0-0.6,0-1.2,0-2c0-0.9,0-1.5,0-1.9c0-1.5,0.1-2.9,0.2-4c0.1-0.9,0.6-1.3,1.5-1.3c0.4,0,0.8,0.1,1.1,0.4c0.3,0.3,0.5,0.6,0.4,1
		C143.8,13.1,143.8,14.4,143.8,14.2z"/>
	<path class="st0" d="M155.3,12.6c-0.1,1.1-0.6,1.7-1.6,1.7c-0.9,0-1.4-0.5-1.4-1.5l-0.1-1.1c-1.7,0.3-2.9,1.1-3.6,2.6l0,5.6
		c0,0.4-0.1,0.8-0.4,1.1c-0.3,0.3-0.7,0.4-1.1,0.4c-0.5,0-0.8-0.1-1.1-0.4c-0.2-0.3-0.4-0.6-0.4-1v-7.3c0-0.2,0-0.6,0-1
		c0-0.5,0-0.8,0-1c0-0.4,0.1-0.8,0.4-1c0.3-0.3,0.6-0.4,1.1-0.4c0.8,0,1.3,0.4,1.5,1.3c1.3-1,2.8-1.5,4.4-1.5c1.5,0,2.2,1,2.2,3
		C155.3,12.2,155.3,12.5,155.3,12.6z"/>
	<path class="st0" d="M165.8,21.5c-0.9,0-1.4-0.5-1.5-1.4c-0.1-0.8-0.2-1.5-0.3-2.3c-0.1-0.8-0.2-1.6-0.2-2.3c0-0.2,0-0.5,0-1
		c0-0.5,0-0.8,0-1c0-0.1,0-0.2,0-0.4s0-0.4,0-0.5c0-0.6-0.1-0.9-0.4-0.9c-0.6,0-1.3,0.4-1.9,1.2c-0.6,0.8-1.1,1.9-1.4,3.1
		c0,0.3,0,0.6-0.1,1c0,0.3-0.1,0.7-0.1,1c0,0.2,0,0.5-0.1,1s-0.1,0.8-0.1,1c0,0.4-0.1,0.8-0.4,1.1c-0.3,0.3-0.7,0.4-1.1,0.4
		c-0.4,0-0.8-0.1-1.1-0.4c-0.3-0.3-0.4-0.6-0.4-1.1c0-0.2,0-0.5-0.1-1c0-0.4-0.1-0.8-0.1-1c0-0.7,0.1-1.7,0.2-3
		c0.1-1.3,0.2-2.3,0.2-3c0-0.2,0-0.6,0-1c0-0.5,0-0.8,0-1c0-0.4,0.2-0.8,0.5-1.1c0.3-0.3,0.7-0.4,1.1-0.4c1,0,1.5,0.6,1.6,1.8l0,0.1
		c1.1-1.1,2.2-1.6,3.5-1.6c1.4,0,2.4,0.6,2.9,1.8c0.4,0.8,0.5,2,0.5,3.6v0.8c0,0.3,0,0.6,0,0.7c0,0.6,0.1,1.3,0.2,2.3
		c0.2,0.9,0.2,1.7,0.2,2.2c0,0.4-0.1,0.8-0.4,1C166.6,21.3,166.2,21.5,165.8,21.5z"/>
	<path class="st0" d="M174.6,21.2c-1.8,0-3.2-0.4-4.4-1.3c-1.3-0.9-1.9-2.3-1.9-4c0-1.9,0.5-3.5,1.5-4.8c1.1-1.4,2.6-2.2,4.5-2.2
		c1.3,0,2.4,0.2,3.2,0.6c1.1,0.6,1.7,1.4,1.7,2.6c0,0.8-0.5,1.6-1.4,2.2c-0.4,0.3-1.3,0.7-2.5,1.3l-3.8,1.7c0.4,0.4,0.8,0.7,1.3,0.9
		c0.5,0.2,1.1,0.3,1.7,0.3c1,0,1.8-0.2,2.5-0.6c0.6-0.4,1.1-0.5,1.5-0.5c0.8,0,1.2,0.4,1.2,1.1c0,0.9-0.6,1.5-1.9,2.1
		C176.9,21,175.8,21.2,174.6,21.2z M174.3,11.7c-0.7,0-1.3,0.2-1.8,0.7c-0.5,0.5-0.9,1.2-1.2,2.1c0.8-0.4,1.7-0.7,2.5-1.1
		c1-0.5,1.8-0.9,2.4-1.3C175.7,11.8,175.1,11.7,174.3,11.7z"/>
	<path class="st0" d="M192.9,11.2c-0.8,1.7-2.1,4.4-3.9,8c-1,2-1.7,3.6-2.2,4.9c-0.2,0.5-0.4,1.2-0.7,2.1c-0.3,0.7-0.7,1.1-1.4,1.1
		c-0.4,0-0.8-0.1-1.1-0.4s-0.5-0.6-0.5-1c0-0.7,0.8-2.8,2.4-6.2c-0.8-1.6-2.1-4-3.9-7.2c-0.2-0.3-0.4-0.6-0.5-0.9
		c-0.2-0.3-0.3-0.7-0.3-0.9c0-0.4,0.2-0.8,0.5-1.1c0.3-0.3,0.7-0.5,1.1-0.5c0.5,0,0.9,0.2,1.2,0.5c1.1,1.4,2.3,3.5,3.7,6.4
		c0.8-1.8,1.3-2.8,1.5-3.2c0.5-1.1,1-2.1,1.6-2.9c0.3-0.5,0.8-0.8,1.3-0.8c0.4,0,0.8,0.1,1.1,0.4c0.3,0.3,0.5,0.6,0.5,1
		C193.1,10.7,193,11,192.9,11.2z"/>
</g>
<g>
	<path class="st0" d="M30,55.3c0,0.6-0.1,1.6-0.3,3c-0.2,1.6-1.2,2.4-2.7,2.4c-0.9,0-1.9-0.5-3-1.5C19.2,54.8,13.8,48.8,7.8,41
		c-0.1,3.2-0.1,5.2-0.1,6c0,1,0,2.5,0.1,4.4c0,2,0.1,3.5,0.1,4.4c0,3.7-0.9,5.5-2.7,5.5c-0.9,0-1.6-0.3-2.2-0.8
		c-0.5-0.5-0.7-1.1-0.7-1.8c0-0.5,0-1.3,0.1-2.3s0.1-1.8,0.1-2.3c0-0.7,0-1.8,0.1-3.3c0-1.5,0.1-2.6,0.1-3.3c0-0.8,0-2-0.1-3.5
		c0-1.6-0.1-2.8-0.1-3.5c0-0.7-0.1-1.9-0.2-3.3s-0.2-2.6-0.2-3.3s0.3-1.4,1-2c0.6-0.6,1.4-0.9,2.2-0.9c0.9,0,1.9,0.8,3.1,2.4
		C13.9,41.3,19.5,47.9,25,53c0-0.4,0-1.3,0-2.8c0-6.1-0.1-10.3-0.2-12.4c0-0.4-0.1-1-0.2-2c-0.1-0.9-0.2-1.6-0.2-2.1
		c0-1.7,0.9-2.6,2.7-2.6c2,0,3,3.1,3,9.4c0,0.1,0,1.1,0,3C30.1,49.8,30,53.7,30,55.3z"/>
	<path class="st0" d="M41.2,61c-2.3,0-4.3-0.8-5.9-2.4c-1.8-1.7-2.8-4-2.9-6.9c-0.1-2.8,0.7-5.2,2.3-7.4c1.9-2.5,4.5-3.8,7.9-3.8
		c2.5,0,4.5,1,5.9,3c1.3,1.8,2,4,2,6.7c0,2.9-0.8,5.4-2.3,7.4C46.4,59.8,44.1,61,41.2,61z M42.3,45.4c-1.5,0-2.7,0.7-3.6,2.1
		c-0.7,1.2-1.1,2.6-1.1,4.1c0,1.5,0.4,2.6,1.3,3.4c0.7,0.6,1.5,1,2.4,1c1.1,0,2-0.4,2.8-1.1c0.9-0.9,1.4-2,1.5-3.5
		C45.6,47.4,44.6,45.4,42.3,45.4z"/>
	<path class="st0" d="M70,49.1c0,0.8,0,2.1,0,3.8c0,1.7,0,2.9,0,3.8c0,0.3,0,0.7,0.1,1.2c0,0.5,0.1,0.9,0.1,1.2
		c0,0.7-0.3,1.3-0.8,1.7s-1.1,0.7-1.9,0.7c-1,0-1.8-0.5-2.3-1.4c-1.6,0.6-3.2,0.9-5,0.9c-1.8,0-3.3-0.4-4.5-1.1
		c-1.4-0.9-2.2-2.1-2.4-3.7c-0.5-3.1-0.7-5.9-0.7-8.3c0-1.6,0.2-3.4,0.6-5.5c0.2-1.4,1.1-2.1,2.5-2.1c0.7,0,1.3,0.2,1.8,0.7
		c0.5,0.5,0.8,1,0.8,1.7c0,0.5-0.1,1.4-0.3,2.6c-0.2,1.2-0.3,2-0.3,2.7c0,1.7,0.1,3.3,0.2,4.6c0.1,1.3,0.3,2.4,0.5,3.2
		c0.3,0.1,0.6,0.2,0.9,0.3c0.3,0.1,0.6,0.1,0.8,0.1c1.4,0,2.9-0.2,4.6-0.6c0-1,0-2,0-3.3c0-1.5,0-2.5,0-3.1c0-2.6,0.1-4.8,0.4-6.6
		c0.2-1.5,1-2.2,2.5-2.2c0.7,0,1.4,0.2,1.9,0.7c0.5,0.5,0.8,1,0.7,1.7C70.1,47.2,70,49.4,70,49.1z"/>
	<path class="st0" d="M88.2,61.2c-1.5,0-2.4-0.8-2.6-2.3c-0.2-1.3-0.3-2.6-0.5-3.9c-0.2-1.4-0.3-2.7-0.3-3.9c0-0.3,0-0.9,0.1-1.7
		s0.1-1.3,0.1-1.7c0-0.1,0-0.3,0-0.7c0-0.4,0-0.6,0-0.9c0-1-0.2-1.6-0.7-1.6c-1.1,0-2.1,0.7-3.1,2.1c-1,1.4-1.8,3.1-2.4,5.2
		c0,0.4-0.1,1-0.2,1.7c-0.1,0.6-0.1,1.1-0.1,1.7c0,0.4,0,0.9-0.1,1.6c-0.1,0.7-0.1,1.3-0.1,1.6c0,0.7-0.2,1.3-0.7,1.8
		c-0.5,0.5-1.1,0.7-1.9,0.7s-1.4-0.2-1.8-0.7c-0.5-0.5-0.7-1.1-0.7-1.8c0-0.4,0-0.9-0.1-1.6c-0.1-0.7-0.1-1.3-0.1-1.6
		c0-1.2,0.1-2.9,0.3-5.1s0.3-3.9,0.3-5.1c0-0.4,0-0.9-0.1-1.7c0-0.8-0.1-1.3-0.1-1.7c0-0.7,0.3-1.3,0.8-1.8s1.1-0.7,1.9-0.7
		c1.6,0,2.5,1,2.6,2.9l0,0.2c1.8-1.8,3.7-2.7,5.8-2.7c2.4,0,4,1,4.9,3c0.6,1.3,0.9,3.3,0.9,5.9V50c0,0.6,0,1,0,1.2
		c0,1,0.1,2.2,0.4,3.8c0.3,1.5,0.4,2.8,0.4,3.7c0,0.7-0.2,1.3-0.7,1.7C89.6,60.9,89,61.2,88.2,61.2z"/>
	<path class="st0" d="M106.7,46.2c-1.2,0-2-0.5-2.2-1.6c-0.5-0.1-1-0.1-1.5-0.1c-3,0-4.5,0.4-4.5,1.2c0,0.5,0.9,1.1,2.7,2
		c2.5,1.1,4.1,2,5,2.7c1.8,1.3,2.7,2.8,2.7,4.4c0,2.1-1,3.8-3,4.9c-1.6,0.9-3.6,1.3-5.9,1.3c-1.7,0-3.2-0.3-4.5-0.8
		c-1.9-0.7-2.8-1.7-2.8-3.1c0-1.2,0.7-1.9,2.2-1.9c0.6,0,1.4,0.2,2.5,0.5c1.1,0.4,1.9,0.5,2.5,0.5c2.5,0,3.8-0.5,3.8-1.5
		c0-0.6-0.9-1.3-2.6-2.1c-2.6-1.1-4.2-1.9-4.9-2.4c-1.8-1.2-2.6-2.7-2.6-4.5c0-2.5,1.3-4.2,4-5.1c1.6-0.5,3.9-0.8,7.1-0.8
		c1.2,0,2.2,0.2,2.8,0.5c0.8,0.4,1.2,1.2,1.2,2.4C108.5,45.1,107.9,46.2,106.7,46.2z"/>
	<path class="st0" d="M132.1,60c-0.7,0-1.4-0.3-1.8-0.8c-0.5-0.5-0.7-1.1-0.7-1.8c0-1.2,0.1-3.1,0.2-5.6s0.2-4.4,0.2-5.6
		c0-1.4,0-3.5-0.1-6.2c-0.1-2.8-0.1-4.8-0.1-6.2c0-0.7,0.3-1.4,1-2s1.4-1,2.1-1c0.4,0,1.4,0.4,3.1,1.2c1.9,0.9,3.1,1.4,3.4,1.6
		c3.6,1.2,6.8,3,9.3,5.5c3.1,3,4.6,6.2,4.6,9.8c0,2.2-0.5,4.2-1.6,6.1c-1.1,2-2.5,3.6-4.4,4.8c-2.1,1.3-5,2-8.7,2
		c-0.9,0-2-0.1-3.1-0.4C134.1,61,132.9,60.6,132.1,60z M142.6,40.8c-1.2-0.8-3.8-2-7.8-3.6v18.5c0.5,0.3,1,0.5,1.7,0.7
		s1.3,0.2,2.1,0.2c2.7,0,4.6-0.4,5.8-1.1c1.1-0.7,2-1.7,2.6-2.9c0.7-1.2,1-2.5,1-3.8C148,45.8,146.2,43.1,142.6,40.8z"/>
	<path class="st0" d="M172.5,60.9c-0.6,0-1.5-0.6-2.7-1.7c-1.1,0.5-2.2,1-3,1.2c-0.9,0.3-1.6,0.4-2.2,0.4c-3,0-5.3-0.8-6.8-2.4
		s-2.3-4-2.3-7.2c0-3,1.1-5.6,3.3-7.7s4.9-3.2,8-3.2c1.2,0,2.6,0.3,4.1,1c1.9,0.8,2.8,1.7,2.8,2.8c0,0.4-0.1,0.8-0.4,1.2
		c-0.1,0.5-0.2,1.1-0.3,1.9s-0.1,1.6-0.1,2.6c0,2.4,0.2,4.1,0.5,5.1c0,0.1,0.3,0.8,0.9,1.9c0.5,1.1,0.7,1.7,0.7,1.8
		c0,0.7-0.3,1.2-0.8,1.6C173.7,60.7,173.1,60.9,172.5,60.9z M167.9,48.3c0-0.4,0-0.9,0.1-1.4c0.1-0.5,0.1-1.1,0.3-1.7
		c-0.2-0.1-0.5-0.2-0.7-0.3c-0.2-0.1-0.4-0.1-0.5-0.1c-1.7,0-3.2,0.7-4.4,2c-1.3,1.3-1.9,2.9-1.9,4.6c0,1.7,0.3,2.9,0.9,3.8
		c0.6,0.8,1.5,1.3,2.7,1.3c0.8,0,1.5-0.1,2.2-0.4s1.3-0.6,2-1.1C168,52,167.9,49.7,167.9,48.3z"/>
	<path class="st0" d="M185.3,61c-2.3,0-4.3-0.8-5.9-2.4c-1.8-1.7-2.8-4-2.9-6.9c-0.1-2.8,0.7-5.2,2.3-7.4c1.9-2.5,4.5-3.8,7.9-3.8
		c2.5,0,4.5,1,5.9,3c1.3,1.8,2,4,2,6.7c0,2.9-0.8,5.4-2.3,7.4C190.6,59.8,188.2,61,185.3,61z M186.4,45.4c-1.5,0-2.7,0.7-3.6,2.1
		c-0.7,1.2-1.1,2.6-1.1,4.1c0,1.5,0.4,2.6,1.3,3.4c0.7,0.6,1.5,1,2.4,1c1.1,0,2-0.4,2.8-1.1c0.9-0.9,1.4-2,1.5-3.5
		C189.8,47.4,188.7,45.4,186.4,45.4z"/>
	<path class="st0" d="M210.9,46.2c-1.2,0-2-0.5-2.2-1.6c-0.5-0.1-1-0.1-1.5-0.1c-3,0-4.5,0.4-4.5,1.2c0,0.5,0.9,1.1,2.7,2
		c2.5,1.1,4.1,2,5,2.7c1.8,1.3,2.7,2.8,2.7,4.4c0,2.1-1,3.8-3,4.9c-1.6,0.9-3.6,1.3-5.9,1.3c-1.7,0-3.2-0.3-4.5-0.8
		c-1.9-0.7-2.8-1.7-2.8-3.1c0-1.2,0.7-1.9,2.2-1.9c0.6,0,1.4,0.2,2.5,0.5c1.1,0.4,1.9,0.5,2.5,0.5c2.5,0,3.8-0.5,3.8-1.5
		c0-0.6-0.9-1.3-2.6-2.1c-2.6-1.1-4.2-1.9-4.9-2.4c-1.8-1.2-2.6-2.7-2.6-4.5c0-2.5,1.3-4.2,4-5.1c1.6-0.5,3.9-0.8,7.1-0.8
		c1.2,0,2.2,0.2,2.8,0.5c0.8,0.4,1.2,1.2,1.2,2.4C212.7,45.1,212.1,46.2,210.9,46.2z"/>
</g>
</svg>
