<?xml version="1.0" encoding="utf-8"?>
<!-- Generator: Adobe Illustrator 21.0.0, SVG Export Plug-In . SVG Version: 6.00 Build 0)  -->
<svg version="1.1" id="Layer_1" xmlns="http://www.w3.org/2000/svg" xmlns:xlink="http://www.w3.org/1999/xlink" x="0px" y="0px"
	 viewBox="0 0 800 800" style="enable-background:new 0 0 800 800;" xml:space="preserve">
<path d="M237.1,33.5c-112.3,0-203.6,91.3-203.6,203.6v325.8c0,112.3,91.3,203.6,203.6,203.6h325.8c112.3,0,203.6-91.3,203.6-203.6
	V237.1c0-112.3-91.3-203.6-203.6-203.6H237.1z M237.1,114.9h325.8c67.4,0,122.2,54.8,122.2,122.2v325.8
	c0,67.4-54.8,122.2-122.2,122.2H237.1c-67.4,0-122.2-54.8-122.2-122.2V237.1C114.9,169.8,169.8,114.9,237.1,114.9z M603.6,155.7
	c-22.5,0-40.7,18.2-40.7,40.7s18.2,40.7,40.7,40.7c22.5,0,40.7-18.2,40.7-40.7S626.1,155.7,603.6,155.7z M400,196.4
	c-112.3,0-203.6,91.3-203.6,203.6S287.7,603.6,400,603.6S603.6,512.3,603.6,400S512.3,196.4,400,196.4z M400,277.8
	c67.4,0,122.2,54.8,122.2,122.2S467.4,522.2,400,522.2S277.8,467.4,277.8,400S332.6,277.8,400,277.8z"/>
</svg>
