<?xml version="1.0" encoding="utf-8"?>
<!-- Generator: Adobe Illustrator 21.0.0, SVG Export Plug-In . SVG Version: 6.00 Build 0)  -->
<svg version="1.1" id="Layer_1" xmlns="http://www.w3.org/2000/svg" xmlns:xlink="http://www.w3.org/1999/xlink" x="0px" y="0px"
	 viewBox="0 0 500 500" style="enable-background:new 0 0 500 500;" xml:space="preserve">
<style type="text/css">
	.st0{fill:#FFF8F8;}
	.st1{fill:none;stroke:#121112;stroke-width:2;stroke-miterlimit:10;}
	.st2{fill:#121112;}
	.st3{fill:#E6E2D6;}
	.st4{fill:#FFFFFF;}
	.st5{fill:#161616;}
	.st6{fill:#141413;}
</style>
<g>
	<path class="st0" d="M63.5,117.3c3-4.9,15.1-21,38.2-35.5C77.5,70.8,79.4,26.1,75.1,24c-14.3-6.9-26,52.9-24.1,73.5
		c1,10.5,2,16.3,4.8,22.9C58,119.4,61.3,118,63.5,117.3z"/>
	<path class="st1" d="M62.7,117.3c3-4.9,15.1-21,38.2-35.5C76.7,70.8,78.7,26.1,74.4,24c-14.3-6.9-26,52.9-24.1,73.5
		c1,10.5,2,16.3,4.8,22.9C57.2,119.4,60.5,118,62.7,117.3z"/>
	<path class="st2" d="M446.2,236.8c5.3-19.7,1.5-42.2-12.1-60.6c-9-12.2-20.9-20.8-33.8-25.5c-24.3-45.5-80.4-82.8-150-93.9
		C170,44,95.9,70,63.5,117.3c-27.1,9.2-46.7,36-46.7,67.6c0,3.4,0.2,6.7,0.7,9.9C6.5,211.1,0,231.2,0,253c0,22.9,7.2,43.9,19.1,60.7
		c0,0.2,0.1,0.3,0.1,0.5C23,321.7,26.4,327,29,328c0.1-0.8,0.3-1.5,0.5-2.2c16.1,16,37.4,25.8,60.9,25.8c6,0,11.8-0.6,17.4-1.8
		c20.7,8.1,41.1,12.1,52.2,7.6c0,14.5,33.5,47.9,51.6,39.7c0.4,44.2,38,61.6,52.9,48.3c11,9.8,24.2,14,38.6,18.9
		c17.5-6.2,29.5-11.1,45.1-21.3c8.1-5.3,21.9-10.4,28.1-17.7c6.8-7.9,11.7-16.8,15.6-26.4c0.1-0.3,0.3-0.7,0.4-1
		c-0.3-0.2-0.5-0.4-0.6-0.7c12.4-2.9,24.4-8.2,35.2-16.1C471.1,348.6,479.4,284.6,446.2,236.8z"/>
	<path class="st3" d="M309.4,462c-0.9,0.4-1.7,0.7-2.6,1c-1.2,0.4-2.5,0.9-3.7,1.3C305.2,463.5,307.3,462.8,309.4,462z"/>
	<g>
		
			<ellipse transform="matrix(8.637746e-02 -0.9963 0.9963 8.637746e-02 -176.9639 274.9922)" class="st4" cx="61.5" cy="234" rx="41.8" ry="25"/>
		<path class="st2" d="M35.5,234.5c-0.3-12.5,2.8-30.7,16.5-29.9c6.6,0.4,10.9,10.5,11.7,24.2c0,0.5-9.8,2-9.8,2L64,241.6
			c1.4,7.6-3.6,24.2-12.1,24.2C40,265.6,35.7,248.1,35.5,234.5z"/>
	</g>
	<path class="st0" d="M264.5,445.3c-14.9,13.2-52.5-4.1-52.9-48.4c-18.2,8.3-51.7-25.2-51.7-39.7c-11.1,4.6-31.5,0.6-52.2-7.6
		c-5.6,1.2-11.5,1.9-17.4,1.9c-23.1,0-44.2-9.5-60.1-25.1c-1.3,5.6-2,11.3-2,17.2c0,40.1,30.9,74.7,77.8,96.9c0.1,2.9,1.1,6,3.1,9.6
		c9.1,15.7,27.5,23.7,44,23.7c7.1,0,17.4-4.7,24.4-11.5l0,0c3.4,0.6,28.7,8.8,49.3,9c32.9,0.4,48.5-2.1,76.2-7
		C288.7,459.3,275.4,455.1,264.5,445.3z"/>
	<path class="st5" d="M111.3,419.7c14.9-1.6,49.6,1.3,52.5,20.7c2.9,19.4-18.6,19-18.6,19S132,459,132,444.1c0-14.4-19-21.1-26-20.7
		C105.9,423.4,105.9,420.3,111.3,419.7z"/>
	<g>
		<g>
			<path class="st4" d="M213.8,235.6c0.4,17,16.9,39.7,27.8,52.5c4.4,5.1,9.2,9.9,14,13.9c4.5,3.7,5.2,10.3,1.5,14.8
				c-4.1,5.1-12,5.2-16.2,0.2c-5.3-6-9.6-12.2-13.5-18.6c-7.8-12.8-14.3-26.2-18.4-40.6c-2-7.5-3.6-15.1-2.2-23.1
				c0.3-1.9,2.2-3.2,4.2-2.9C212.7,232.1,213.9,233.8,213.8,235.6L213.8,235.6z"/>
		</g>
		<g>
			<path class="st4" d="M253.3,245.5c-11.1,6.7-20,17.4-26.8,28.4c-5.9,9.9-11.3,22.9-9.2,33.8c1.1,5.2-2.2,10.2-7.4,11.3
				c-5.2,1.1-10.2-2.2-11.3-7.4c-1.1-9.2,1.6-18.2,5.3-26.2c9.2-18.9,27.3-37.7,46.7-45.8C254.3,238.2,256.8,243.5,253.3,245.5
				L253.3,245.5z"/>
		</g>
	</g>
	<g>
		<g>
			<g>
				<path class="st6" d="M112.8,441.6c0,0.2-0.7,0.2-1.9,0.2c-1.2,0-3-0.3-5.2-0.8c-4.4-1-10.8-3.1-17.9-7
					c-7.2-3.8-15.2-9.4-23.2-16.6c-1-0.9-2-1.8-3-2.8s-2-1.9-3-2.9c-2-2-4-4-5.9-6.2c-4-4.3-7.8-9-11.4-14.1
					C34.2,381.2,29.2,370,27,359.3c-1.1-5.3-1.6-10.5-1.6-15.3s0.4-9.3,1.2-13.3c0.1-1,0.4-2,0.6-2.9c0.1-0.6,0.1-0.6,0.2-0.8
					l0.1-0.2c0-0.1-0.1-0.1-0.2-0.1s-0.1-0.1-0.2-0.1l-0.1-0.1l-0.3-0.2c-0.4-0.3-0.8-0.6-1.1-0.9c-0.4-0.3-0.7-0.6-1-0.9
					s-0.6-0.7-0.9-1c-2.2-2.7-3.3-5.4-3.7-7.8c-0.4-2.4-0.1-4.3,0.4-5.4c0.4-1.2,0.9-1.7,1-1.6c0.2,0.1,0,0.7-0.1,1.8
					c-0.1,1.1-0.1,2.8,0.5,4.8s1.8,4.3,3.9,6.5c0.3,0.3,0.5,0.5,0.8,0.8c0.3,0.2,0.6,0.5,0.9,0.7s0.6,0.5,1,0.6l0.3,0.1
					c0.2,0.1,0.3,0.2,0.5,0.3c0.3,0.2,0.7,0.3,1,0.5l0.5,0.2c0.2,0.1,0.4,0.1,0.3,0.3c-0.1,0.4-0.1,0.7-0.2,1.1
					c-0.1,0.7-0.2,1.3-0.3,2c-0.1,0.9-0.3,1.9-0.4,2.9c-1,7.8-1,17.2,1.4,27.3c2.3,10.1,7.1,20.5,13.9,30.4
					c3.4,4.9,7.1,9.5,10.9,13.7c1.9,2.1,3.8,4.2,5.7,6.1c1,1,1.9,1.9,2.9,2.9c0.9,0.9,1.9,1.8,2.9,2.7c7.6,7.1,15.2,12.8,21.9,16.9
					c6.7,4.2,12.6,6.7,16.8,8.1C110.5,440.7,112.9,441.2,112.8,441.6z"/>
			</g>
		</g>
	</g>
	<g>
		<g>
			<g>
				<path class="st6" d="M86.3,430.7c0.2-0.2,1.7,0.6,4.6,1.9c1.4,0.7,3.2,1.5,5.3,2.6c2,1.1,4.4,2.5,6.7,4.5c1.1,1,2.3,2.2,3.3,3.7
					c0.8,1.3,1.7,2.7,2.6,4.1c1.8,2.8,3.8,5.8,6,8.7c2.3,2.9,4.8,5.8,7.8,8.4s6.4,4.7,10.2,6.2c4,1.5,8,2.6,11.8,3
					c3.9,0.5,7.6,0.3,11.1-0.5c6.9-1.6,12.4-5.6,17.1-8.9c2.4-1.6,4.5-3.1,6.5-4.3c2-1.2,3.8-2.1,5.4-2.7c3.1-1.2,5-1.4,5-1.1
					c0.1,0.3-1.5,1.1-4.2,2.7c-1.3,0.8-2.9,1.9-4.7,3.3s-3.8,3-6,4.8s-4.8,3.8-7.7,5.7c-3,1.9-6.4,3.6-10.4,4.7
					c-3.9,1.1-8.3,1.4-12.6,0.9c-4.4-0.5-8.7-1.6-13-3.2c-4.4-1.7-8.3-4.3-11.5-7.1c-3.2-2.9-5.9-6.1-8.2-9.3
					c-2.3-3.2-4.2-6.3-5.9-9.3c-0.8-1.5-1.6-2.9-2.4-4.3c-0.6-1.2-1.6-2.2-2.5-3.2c-1.9-1.9-3.9-3.4-5.8-4.7
					c-1.9-1.3-3.5-2.4-4.8-3.3s-2.3-1.7-3-2.4C86.5,431.2,86.2,430.8,86.3,430.7z"/>
			</g>
		</g>
	</g>
	<g>
		<g>
			<g>
				<path class="st6" d="M348.1,443c0.1,0.3-2.2,1.8-6.5,4.2c-4.3,2.4-10.7,5.8-18.7,9.5c-4,1.9-8.5,3.9-13.3,5.8
					c-4.9,2-10.1,3.9-15.8,5.6c-5.7,1.7-11.7,3.3-18.1,4.4s-13.1,1.8-19.9,2c-13.7,0.4-26.7-0.9-38.3-2.4
					c-5.8-0.8-11.3-1.7-16.5-2.5c-5.1-0.8-9.9-1.7-14.2-2.3c-4.3-0.6-8.2-0.7-11.5-0.2s-6,1.7-7.9,3c-2,1.3-3.3,2.6-4,3.6
					c-0.8,1-1.2,1.6-1.3,1.5s0-0.8,0.5-2c0.6-1.2,1.7-2.9,3.8-4.6c2-1.7,4.9-3.2,8.5-4.1s7.8-1,12.3-0.5c4.5,0.4,9.3,1.1,14.4,1.8
					c5.2,0.7,10.7,1.4,16.4,2.1c11.6,1.3,24.3,2.4,37.6,2c6.7-0.2,13.1-0.8,19.3-1.9c6.2-1,12.1-2.4,17.6-4
					c5.6-1.6,10.8-3.3,15.6-5.1c4.8-1.8,9.3-3.6,13.4-5.2c8.1-3.4,14.7-6.3,19.3-8.2C345.4,443.6,348,442.7,348.1,443z"/>
			</g>
		</g>
	</g>
	<path class="st0" d="M371.1,173.2c0,0-8.3-36.6,3.8-30.4c28,14.5,81.6-4.9,122.4-44.7c1-1,2.7-0.6,2.7,0.9
		c-0.6,13.9-3.7,52.6-19.7,80c-26.8,45.8-63.3,63.8-66.1,65.1c-0.1,0.1-0.2,0.1-0.4,0.1c-2.4,0.4-26.6,3.6-39.7-19
		C359.7,200.2,371.1,173.2,371.1,173.2z"/>
	<path class="st1" d="M371.1,173.2c0,0-8.3-36.6,3.8-30.4c28,14.5,81.6-4.9,122.4-44.7c1-1,2.7-0.6,2.7,0.9
		c-0.6,13.9-3.7,52.6-19.7,80c-26.8,45.8-63.3,63.8-66.1,65.1c-0.1,0.1-0.2,0.1-0.4,0.1c-2.4,0.4-26.6,3.6-39.7-19
		C359.7,200.2,371.1,173.2,371.1,173.2z"/>
	<path class="st2" d="M174.8,89.5c0,0,71.1,13.1,99,52.3c0,0,19.6,32.4,12.9,46.2c0,0-34.2-1.3-20.4,11.1
		c13.8,12.4,48.9-3.1,44.4,12.9c-4.4,16-27.1,13.8-19.1,20.9c8,7.1,44.9,12.9,44.9,22.2c0,9.3-16.4-1.8-20.9,5.3
		c-4.4,7.1,43.6-4,34.2,16.9c-9.3,20.9-20.6,32.1-23.6,48c-8.6,46.5-48.1,52-48.1,52s26.1,7.5,42.8,4.8c42.2-6.7,52-34.7,52-34.7
		s58.7-11.6,60.4-69.8c1.8-58.2-43.1-96.4-43.1-96.4s-8.9-50-29.3-64C270.6,55.5,201.5,65,174.8,89.5z"/>
	<g>
		
			<ellipse transform="matrix(0.1971 -0.9804 0.9804 0.1971 -24.6898 276.4766)" class="st4" cx="156.5" cy="153.3" rx="48.9" ry="33"/>
		<path class="st2" d="M126.1,151.5c1.6-15,10.4-39.4,29.3-37.5c9,0.9,12,18.6,9.1,32.6c-0.1,0.5-16.1,2.5-16.1,2.5l12.7,11
			c-3.5,12.9-13.1,31.2-21.6,28.8C129.5,186.1,124.4,167.7,126.1,151.5z"/>
	</g>
</g>
</svg>
