<?xml version="1.0" encoding="utf-8"?>
<!-- Generator: Adobe Illustrator 21.0.0, SVG Export Plug-In . SVG Version: 6.00 Build 0)  -->
<svg version="1.1" id="Layer_1" xmlns="http://www.w3.org/2000/svg" xmlns:xlink="http://www.w3.org/1999/xlink" x="0px" y="0px"
	 viewBox="0 0 79 30.1" style="enable-background:new 0 0 79 30.1;" xml:space="preserve">
<style type="text/css">
	.st0{fill:#A42833;}
	.st1{fill:none;stroke:#010101;stroke-width:0.6073;stroke-linecap:round;stroke-linejoin:round;stroke-miterlimit:10;}
	.st2{fill:#FFFFFF;}
	.st3{fill:#010101;}
</style>
<g>
	<polygon class="st0" points="78.7,25 78.7,10.4 63.8,10.4 63.8,0.3 34.7,0.3 34.7,10.3 30,10.3 30,0.3 0.3,0.3 0.3,29.8 29.6,29.8 
		29.6,16.7 34.7,16.7 34.7,29.8 63.9,29.8 63.9,17 73.9,17 73.9,25 	"/>
	<polygon class="st1" points="78.7,25 78.7,10.4 63.8,10.4 63.8,0.3 34.7,0.3 34.7,10.3 30,10.3 30,0.3 0.3,0.3 0.3,29.8 29.6,29.8 
		29.6,16.7 34.7,16.7 34.7,29.8 63.9,29.8 63.9,17 73.9,17 73.9,25 	"/>
	
		<rect x="38.9" y="4.5" transform="matrix(-1 -1.224647e-16 1.224647e-16 -1 98.7953 29.9433)" class="st2" width="21" height="21"/>
	
		<rect x="38.9" y="4.6" transform="matrix(-1 -1.224647e-16 1.224647e-16 -1 98.7953 30.1681)" class="st1" width="21" height="21"/>
	<polygon class="st3" points="38.9,25.5 49.4,25.5 49.4,14.1 46.5,11.9 49.4,9.5 49.4,4.5 38.9,4.5 	"/>
	<rect x="4.6" y="4.5" transform="matrix(-1 -1.224647e-16 1.224647e-16 -1 30.1527 29.9433)" class="st2" width="21" height="21"/>
	<rect x="4.6" y="4.6" transform="matrix(-1 -1.224647e-16 1.224647e-16 -1 30.1527 30.1681)" class="st1" width="21" height="21"/>
	<polygon class="st3" points="4.6,25.5 15.1,25.5 15.1,13.8 12,11.4 15.1,9.2 15.1,4.5 4.6,4.5 	"/>
</g>
</svg>
