<?xml version="1.0" encoding="utf-8"?>
<!-- Generator: Adobe Illustrator 21.0.0, SVG Export Plug-In . SVG Version: 6.00 Build 0)  -->
<svg version="1.1" id="Layer_1" xmlns="http://www.w3.org/2000/svg" xmlns:xlink="http://www.w3.org/1999/xlink" x="0px" y="0px"
	 viewBox="0 0 684.7 478.3" style="enable-background:new 0 0 684.7 478.3;" xml:space="preserve">
<style type="text/css">
	.st0{fill:#010101;}
	.st1{fill:#FFFFFF;stroke:#010101;stroke-width:3.0154;stroke-miterlimit:10;}
</style>
<g>
	<g>
		<g>
			<path class="st0" d="M89.4,221c11.5-10.5,14.7-23.9,15.5-38.4c0.9-15.9-9.5-31.7-21.4-41.2c-11-8.9-23.4-16.4-37.8-18.9
				c-10.8-1.9-21.9-3.5-33.1-3.1c-0.5,0.1-0.8,0.1-1.3,0.2c-3.3,1.1-5.4,4.2-6.1,9.2c0,0.2,0,0.2,0,0.4c-0.8,12.2-1.1,21.7-1.1,27.8
				c-0.1,13.5-1.3,27.5-2.2,41.1c-0.9,13.7-1.8,27.5-1.8,41.3c0,9.9,0,19.7,0,29.6c0,4.5,1.9,9.2,5.5,14.2c3.7,5,8,8.3,12.5,9.4
				c19.6,4.7,40.4,7.3,60.5,1.9c7.4-2,15.1-5.7,21.1-11.1c7.6-6.8,15.5-15.6,15.3-27.2c-0.1-7.6-3.1-15.1-9.2-21.8
				C101.7,229.6,96.3,225.3,89.4,221z M64.7,197.1c-5.6,4-12.7,5.5-21.5,4.5c0,0,0,0,0,0c-0.4-0.1-2.1-0.4-9-2.5
				c0.6-11.2,1.2-22.3,1.7-33.5c0.1-5,0.1-7.5,0.1-12.5c2.3,0.4,5.5,0.9,9.7,1.8c6.6,1.3,12.9,4.6,19,10.2c5.6,5.2,8.4,9.8,8.4,14.4
				C73.1,187.2,70.4,193.1,64.7,197.1z M31.8,262.9c0-5.9,0-8.9,0-14.9c0-4.9,0.1-10.4,0.3-16.2c2.1,0.6,4.1,1.1,6.1,1.6
				c1,0.2,2.5,0.5,4.4,0.7c1.4,0.2,2.5,0.4,3.2,0.5c4,1.4,6,2.1,10,3.4c5.7,2.3,11.6,5.4,17.7,9c5.6,3.3,8.1,5.4,9.1,6.5
				c-0.6,0.7-1.8,1.7-3.7,3.2c-3.8,2.8-7.8,4.9-11.9,5.9C55.7,265.3,43.5,264.8,31.8,262.9z"/>
			<path class="st0" d="M237.9,260.8c-1.6,0.2-3.2,0.6-5,1.3c-19,7.6-38.8,15-59.4,16.6c0.1-2.6,0.3-5.5,0.6-8.5
				c0.5-6.3,0.8-9.4,1.3-15.7c2-34.9,2.7-69.9,2.8-104.9c0-4.4-1.6-8.3-4.5-11.3c-3-3.1-7-4.6-11.5-4.5c-4.4,0.1-8.4,1.9-11.4,5.1
				c-2.9,3.1-4.5,7.1-4.5,11.5c0,34.3-0.7,68.6-2.6,102.8c-0.7,11.3-1.4,22.6-2,34c0,9.6,2.9,16.5,8.6,20.4c4,2.8,10,4.1,18.1,3.8
				c12.9-0.5,25.7-3.1,38-6.2c12.7-3.3,25.9-7.1,37.5-13.8c6.3-3.6,9.9-9.4,9.9-16c0-4.1-1.3-7.7-3.9-10.5
				C246.7,261.7,242.5,260.2,237.9,260.8z"/>
			<path class="st0" d="M409.4,231c-5-22.7-10-45.3-15-68c-2.1-11.1-4.3-22.1-6.4-33.2c0-0.2-0.1-0.2-0.1-0.4
				c-3.6-13-12.3-14-16.6-13.1c-15.6,3.2-27.8,34-34.9,46.5c-9.8,17.1-19.4,34.6-28.3,52.4c-10.2,5-11.8,12.8-11.8,17.2
				c0,2.2,0.4,4.2,1.1,6c-5.3,12.2-13.9,26.4-14.7,39.1c-0.3,4.3,1.8,8.3,5.1,10.9c3.2,2.5,7.1,3.5,11.2,2.9
				c4.1-0.6,9.8-2.9,13.9-10.7c0.1-0.2,0.1-0.2,0.2-0.4c5.7-12.8,11.4-25.7,16.4-38.8c9.6-3.4,14.4-5.2,24-8.6
				c8.2-3,15.2-5.5,21.1-7.3c2.3,12.2,4.2,20.8,5.7,26.1c3.1,10.4,9.1,26.3,21.9,25.1c4-0.4,8-2.7,11.2-6c3.3-3.5,5-7.7,5-12.3
				c0-1.9-0.4-4.8-3.3-12.5C412.8,239.9,411.6,236.9,409.4,231z M367.5,194.3c-6.7,2.2-12.7,4.3-17.9,6.2
				c4.6-8.2,9.3-16.4,13.9-24.6C365.1,183.3,365.9,186.9,367.5,194.3z"/>
			<path class="st0" d="M539,96.1c-4.3,0-8.2,1.6-11.3,4.5c-1.4-0.3-2.8-0.5-4.3-0.6c-2.9-0.3-6.1-0.3-9.6-0.2
				c-23.2,0.9-40.7,19.4-53.1,36.1c-16.3,21.9-31.3,49.9-30.1,77.6c0.6,14.4,4.4,28.2,15.5,39.1c10.4,10.2,25.5,15.6,39.9,14.4
				c21.7-1.7,42-13.6,58.1-27.3c3.8-3.2,5.8-7.6,5.8-12.3c0-4.2-1.5-8-4.4-11.3c-3.1-3.5-7.1-5.3-11.7-5.3c-3.4,0-7.1,1.8-12.2,5.6
				c-7.8,6-13.7,10.1-17.3,12.2c-6.1,3.5-12.4,5.4-18.4,5.9c-6.4,0.5-11.8-1.7-16.4-6.5c-4.6-4.8-6.9-10.7-6.9-18
				c-0.1-20.6,11.5-40.6,23.1-55.7c6.8-8.8,16-21,28.1-21.9c4.8-0.4,7,0.1,7.6,0.2c0.4,0.5,1.4,1.8,2.8,5c4.2,9.6,11.3,11,15.1,11
				c5.3,0,9.7-2.2,12.6-6.3c2.2-3.1,3.3-6.6,3.3-10.6c0-8.3-0.6-15.5-1.7-21.4C551.1,97.5,542.6,96,539,96.1z"/>
			<path class="st0" d="M672.7,251.2c-3.8-2.3-7.4-5.2-10.6-8.4c-4.2-4.5-6.3-6.8-10.5-11.2c-11.3-12.8-22.7-25.6-33.9-38.5
				c11.2-9.6,22.5-19.2,33.5-28.9c9.3-8.3,26.7-20.1,27.7-32.7c0.3-4.1-1.7-9-4.9-13c-3.2-3.9-7.1-6.6-11.3-7.6
				c-3.2-0.8-7.8-0.8-12.2,3.2c-9.9,9.3-19.6,18.8-29.1,28.4c-7.2,7.1-14,13.6-20.2,19.3c0.2-4.7,0.5-10.1,0.8-16
				c0.6-10.2,1.2-20.6,1.2-30.9c0-4.4-1.6-8.5-4.5-11.9c-3-3.5-7-5.6-11.5-5.9c-4.4-0.4-8.4,1.1-11.4,4.1c-2.9,2.9-4.5,6.8-4.5,11.2
				c0,23.6-0.7,47.2-1.4,70.7c-0.7,23.7-1.4,47.5-1.4,71.2c0,4.4,1.3,8.6,3.9,12.5c3.4,5.2,8.3,8.1,14.1,8.6
				c9.2,0.7,14.7-4.6,14.7-14.5c0-13.5,0.1-27,0.1-40.4c6.9,7.7,13.7,15.4,20.5,23.3c13.1,14,28.8,33.3,48,38.7
				c4.8,1.3,9,0.2,11.9-3.1c2.1-2.4,3.1-5.5,3.1-8.9C684.7,262.8,680.4,255.9,672.7,251.2z"/>
		</g>
	</g>
	<g>
		<g>
			<path class="st0" d="M76.3,347.4c-3.2-0.5-6.3-0.1-8.9,1.1c-0.1,0-0.3-0.1-0.4-0.1c-2.1-0.6-4.5-1.1-6.9-1.6
				c-14.2-2.9-28.9,4.4-39.1,13.8C8.5,372,0.3,388.6,0.2,405.5c-0.1,12.3,4.6,24.4,11.6,34.5c7.3,10.5,17.7,19.2,30.4,22.2
				c15.9,3.8,29.5-1.9,41.6-10.3c3.7-2.6,5.8-7.2,5.8-12c0-4.2-1.5-8.3-4.5-12c-3.2-3.9-7.5-6.5-12.2-7.2c-3.6-0.6-7.2,0.3-11.6,2.7
				c-6.3,3.4-9.2,4.5-10.3,4.8c-3.1,0.9-6.1,1-9,0.4c-1.6-0.4-3.6-1.2-5.9-4.3c-1.9-2.7-2.8-5.4-2.9-8.5c-0.1-11,6.9-20,13.5-27.4
				c7.5-8.4,12.4-8.2,13.2-8c0.4,0.1,0.7,0.1,1.1,0.2c3,7.4,8.6,12.3,15.4,13.3c5.5,0.8,10.2-1.1,13.2-5.1c2.1-2.8,3.3-6.3,3.3-10.2
				c0-5.8-0.4-10.8-1.2-15.1C89.8,352.9,82.5,348.4,76.3,347.4z"/>
			<path class="st0" d="M189,440.2c-3.2-3.5-7.6-5.2-12.4-5c-1.6,0.1-3.3,0.4-5.1,1c-9.6,3.2-19.3,6.3-29.5,7.5
				c0.3-3.2,0.4-4.8,0.7-8c0-0.1,0-0.2,0-0.3c1.3-22.6,1.7-45.2,1.8-67.8c0-4.5-1.6-8.5-4.6-11.7c-3.1-3.3-7.4-5.2-12-5.3
				c-4.6-0.1-8.8,1.5-11.9,4.6c-3,3-4.6,7-4.6,11.4c0,21.9-0.4,43.8-1.7,65.7c-0.5,8.6-0.8,12.9-1.3,21.5c0,0.2,0,0.4,0,0.6
				c0,10.4,4.5,16,8.2,18.8c3.7,2.8,8.7,4.3,15.3,4.5c6.8,0.2,15.1-0.6,25.5-2.7c11.5-2.3,20-5,25.8-8.1c6.3-3.4,10-9.2,10-16
				c0-4-1.3-7.7-3.9-10.7C189.1,440.3,189.1,440.3,189,440.2z"/>
			<path class="st0" d="M270.6,341.4c-18.3,2.3-35.2,15.6-45.5,30.9c-9.4,14-15.1,31.5-15.3,48.7c-0.2,14.1,5.7,27.6,17.1,36.1
				c10.8,8,24.8,10.2,37.8,8.3c18.8-2.7,35.3-16.5,44.8-32.6c8.6-14.6,13.9-32.2,14-48.9c0.1-12.9-3.5-28.6-14.1-36.6
				C298.2,338.9,283.6,339.8,270.6,341.4z M282.5,417.7c-6.7,11-13.3,13.5-17.7,14.2c-6.4,1-11.6,0-15.6-2.8
				c-3.9-2.8-5.7-6.7-5.8-12c-0.1-9,3.5-20.3,8.5-27.7c7.3-11.1,14.2-13.7,18.9-14.4c10.8-1.7,14.6,0.1,15.8,0.9
				c2.4,1.8,3.6,6.8,3.7,13.9C290.2,398.7,287.1,410.1,282.5,417.7z"/>
			<path class="st0" d="M446.6,331.8c0-14-8.9-17.8-16.6-16.7c-6.4,0.9-11.7,5.3-14.5,11.9c-1.6,3.6-2.4,7.6-2.4,11.8
				c0,0.9,0,2.7,0.1,5.2c0,2.6,0,3.8,0,6.4c-0.3,14.5,1.7,53.5-16,59.2c-14.7,4.7-18-16.1-17.6-26.5c0-12.8,0-25.6,0-38.4
				c1.3-10-5.9-20-16.1-18.3c-7.1,1.2-13,6.7-15.4,14.4c-0.8,2.6-1.3,6.1-1.7,11.1c-0.3,4.1-0.4,9.2-0.4,15.5
				c0,11.3-0.1,22.8,1,34.1c1.1,11.1,4.5,23,12.5,31c10.4,10.4,24.7,10.3,38,8.6c41.4-5.1,49.3-58,49.2-93.1c0-3.3,0-4.9,0-8.2
				C446.7,336.3,446.6,333.6,446.6,331.8z"/>
			<path class="st0" d="M517.5,313.5c-0.4-0.1-2.3-0.9-10.5-4.5c-9.5-4.1-12.1-4.6-14.9-4.4c-3.2,0.2-8.1,1.7-12.8,7.2
				c-3.6,4.2-5.5,8.6-5.5,13c0,5.2,0.1,12.9,0.3,23c0.2,10,0.3,17.6,0.3,22.6c0,4.4-0.2,11.2-0.6,20.2c-0.4,9.3-0.6,16.4-0.6,21.1
				c0,4.5,1.6,8.4,4.7,11.3c2.6,2.4,5.8,3.8,9.3,4c3.2,1.6,7.2,2.7,12,3.6c4.8,0.8,9.4,1.2,13.3,1c11.9-0.5,24.6-2.6,34.8-9.3
				c7.4-4.9,13.4-11.5,17.6-19.6c4.2-8,6.3-16.8,6.4-25.7c0.2-15.6-7.7-30.9-18.3-41.9C543.3,325,530.9,317.5,517.5,313.5z
				 M507.5,349.3c0-1.2,0-1.7-0.1-2.9c8.9,3.7,13,5.9,14.9,7.1c0,0,0,0,0,0c7.7,3.9,15.7,13.8,15.6,22.9c-0.1,3.6-0.9,7.1-2.6,10.6
				c-1.7,3.4-4,6-6.8,8c-1.3,0.9-5.4,2.9-16.1,3.4c-2.1,0.1-4,0-5.6-0.4c0.3-9.9,0.6-19.7,0.9-29.6
				C507.6,360.8,507.5,357,507.5,349.3z"/>
			<path class="st0" d="M679.3,331.2c-3.2-4-7.1-6.8-11.4-8.1c-6.8-2.1-12.5,0.3-15.3,6c-2.8,5.2-5.1,9-6.6,11.4
				c-3.1,6.8-4.7,10.2-7.8,17c-1.8-4.3-4.1-8.9-6.6-13.7c-1.6-3-4.7-8.4-9.3-16.1c-2.1-3.6-3.1-5.4-5.2-9c-0.1-0.1-0.1-0.2-0.2-0.4
				c-3.3-5.3-8.2-8.7-13.6-9.4c-4.3-0.6-8.3,0.6-11.6,3.3c-3.4,2.8-5.2,6.9-5.2,11.6c0,2.9,0.8,5.8,2.2,8.6c0.8,1.6,2.9,5.1,11.5,19
				c4.2,6.8,7.1,12.6,8.8,17.1c2.2,5.9,6.4,13.4,12.6,23c-2,3.3-3,5-5,8.3c-6.2,10.8-7.3,14.3-7.3,17.5c0,4.7,1.9,9.3,5.4,13
				c3.3,3.5,7.2,5.7,11.4,6.5c6,1.2,11.4-0.9,14.6-5.8c1.5-2.6,2.2-3.9,3.6-6.5c3.2-5,4.8-7.4,8-12.3c0.1-0.2,0.2-0.2,0.3-0.4
				c3.9-6.9,8.1-15.1,12.6-24.4c4.4-9.6,6.6-14.4,11.1-23.9c1.9-3,2.9-4.5,3.5-5.3c0.1-0.1,0.2-0.2,0.3-0.4
				c3.3-4.7,4.7-8.6,4.7-12.4C684.7,340.6,682.8,335.5,679.3,331.2z"/>
		</g>
	</g>
	<g>
		<path class="st0" d="M51.5,31.7c-4.6-1.2-8.4-1.9-11.5-1.9c-2,0-4.3,0.1-6.8,0.4c-2.2,0.2-4.5,0.5-7,0.9c-0.9-0.3-1.9-0.4-2.9-0.4
			c-2.4,0-4.6,0.9-6.3,2.5c-1.7,1.7-2.6,3.8-2.6,6.3c0,0.9,0,2.4-0.1,4.3c0,2-0.1,3.4-0.1,4.4v42c0,2.4,0.8,4.5,2.3,6.1
			c1.6,1.7,3.7,2.6,6.2,2.6c2.3,0,4.5-0.8,6.3-2.3c1.9-1.7,3-3.9,3-6.4V70.2c3.3-0.8,4.8-0.9,5.5-0.9c1.2,0,3,0.1,5.4,0.3
			c2.7,0.2,4.6,0.3,6,0.3c2.4,0,4.6-0.9,6.3-2.5c1.7-1.7,2.7-3.8,2.7-6.3c0-4.8-3-8.1-8-8.7c-3.5-0.4-7.7-0.7-12.3-0.7
			c-1.6,0-3.4,0.2-5.5,0.5c0-1.4,0-2.8,0-4.3c1.1-0.1,2.1-0.3,3.1-0.4c1.8-0.2,3.4-0.3,4.8-0.3c4.1,0,7.6,0.5,10.4,1.4
			c3.7,1.2,6.9,0.3,9.3-2.1c1.7-1.7,2.6-3.9,2.6-6.2C62.2,34.6,54.5,32.5,51.5,31.7z"/>
		<path class="st0" d="M114.9,33c-3.3,0-6.1,1.5-7.9,4.3c-1.2,1.9-1.8,3.9-1.8,6c0,10.1-0.6,18-1.7,23.5c-1.8,9-5,13.6-9.3,13.5
			c-3.7,0-5-0.5-5.2-0.6c-1.2-1-2.3-3-3.1-5.9c-0.8-2.8-1.2-6-1.2-9.3c0-1.1,0.1-2.8,0.2-5c0.1-2.4,0.2-4.2,0.2-5.4
			c0-1.4,0-3.4,0.1-6.2c0-2.8,0.1-4.9,0.1-6.2c0-2.6-1.1-4.8-3-6.4c-1.7-1.4-3.8-2.2-6-2.2c-1.9,0-5.4,0.7-7.5,5.7
			c-0.9,2.2-1.4,4.5-1.4,6.9c0,0.9,0,2.3-0.1,4.1c-0.1,1.9-0.1,3.3-0.1,4.3c0,1.1-0.1,2.8-0.2,5.1c-0.1,2.4-0.2,4.2-0.2,5.5
			c0,13.5,3.7,23.2,11.1,28.9c3.7,2.9,9,4.3,16.2,4.3c4,0,7.8-1.2,11.5-3.5c2.9-1.9,5.4-4.2,7.5-7l0,0c4.4-6,7.3-13.5,8.8-22.4
			c0.9-5.6,1.4-13.4,1.4-23.2c0-1.9-0.6-3.6-1.6-5.1C120.2,34.3,117.8,33,114.9,33z"/>
		<path class="st0" d="M128.9,8.9c-1.7-0.9-3.6-1.4-5.8-1.4c-2,0-4.9,0.1-8.8,0.2c-3.8,0.1-6.7,0.2-8.6,0.2c-2.2,0-4.2,0.5-6,1.6
			C97.4,11,96,13.3,96,16.1c0,2.7,1.3,5.1,3.8,6.6c1.7,1,3.7,1.6,5.9,1.6c8.8,0,14.8-0.1,18.3-0.4c8.4-0.6,9.1-6.4,9.1-8.1
			C133.1,12.7,131.6,10.3,128.9,8.9z"/>
		<path class="st0" d="M191.5,79.6c-1.1-0.3-2-0.8-2.9-1.5c-2.4-1.8-5.1-4.1-8.1-6.8c-1.7-1.6-3.5-3.2-5.2-4.9
			c3.8-3.7,7.5-7.5,11-11.3c9-9.8,9.7-12.4,9.7-14.3c0-2.4-0.9-4.6-2.7-6.3c-1.7-1.6-3.9-2.5-6.2-2.5c-2.5,0-4.8,1.1-6.7,3
			c-5.3,5.8-9.2,10-12,13c0.2-3.2,0.3-5.9,0.3-7.9c0-2.3-0.9-4.5-2.5-6.2c-1.7-1.7-3.9-2.6-6.3-2.6c-2.5,0-4.6,0.9-6.3,2.6
			c-1.7,1.7-2.6,3.8-2.6,6.2c0,5.4-0.2,13.5-0.5,24.4c-0.3,10.9-0.5,19.1-0.5,24.6c0,2.2,0.7,4.2,2,6.1c1.8,2.6,4.4,3.9,7.6,3.9
			c2.9,0,5.3-1.2,6.8-3.5c1-1.5,1.6-3.2,1.6-5.1l0-6.7c2.7,2.6,4.6,4.3,5.7,5.2c6.3,5.2,11.6,7.7,16,7.7c2.8,0,5.3-1.3,6.9-3.6
			c1.1-1.6,1.6-3.3,1.6-5.1C198,84,195.6,80.9,191.5,79.6z"/>
		<path class="st0" d="M234.2,51.1c4.1,0.5,5.5,0.6,6.2,0.6c2,0,3.9-0.7,5.5-2c2-1.6,3.1-3.9,3.1-6.6c0-4.8-2.8-8.1-7.6-8.8
			c-7.5-1-13.7-1.6-18.5-1.6c-5.3,0-9,0.1-11.2,0.3c-2.1,0.2-4,1-5.5,2.5c-1.7,1.6-2.6,3.8-2.6,6.2c0,2.4,0.9,4.6,2.6,6.3
			c1.7,1.6,3.9,2.5,6.4,2.5c0,0,0,0,0,0l3.8-0.1c-0.3,4.9-0.5,10-0.5,15.2c0,5.7,0,10.1,0,13.2c-1.3,0.1-2.3,0.2-3.2,0.2
			c-2.5,0-4.8,0.9-6.5,2.5c-1.8,1.7-2.7,3.8-2.7,6.2c0,2.4,0.9,4.5,2.6,6.2c1.7,1.6,3.9,2.5,6.3,2.5c1.8,0,4.4-0.2,7.9-0.7
			c3.1-0.4,5.5-0.6,6.9-0.6c1.4,0,3.5,0,6.4-0.1c2.8-0.1,4.8-0.1,6.2-0.1c2.5,0,4.7-0.9,6.4-2.5c1.7-1.7,2.6-3.8,2.6-6.2
			c0-2.3-0.9-4.5-2.5-6.2c-1.7-1.7-3.9-2.6-6.3-2.6c-2.1,0-4.1,0-6.2,0l0-12.7C233.9,59.5,234,54.9,234.2,51.1z"/>
		<path class="st0" d="M309.9,31.1c-5.6,0-9.1,3.4-9.1,8.8c0,1.2,0.1,2.7,0.4,4.6c0.3,2.3,0.4,3.3,0.4,3.7
			c0.2,3.7,0.3,10.7,0.4,20.9c-8.6-8.8-17.3-19.6-26.1-32.1c-3-4.2-5.9-6.3-9.1-6.3c-2.5,0-4.9,0.9-6.8,2.7c-2,1.9-3.1,4.2-3.1,6.7
			c0,1.6,0.1,3.9,0.5,6.9c0.3,2.8,0.4,4.9,0.4,6.2c0,1.6,0,3.9,0.1,7.1c0.1,3.1,0.1,5.4,0.1,6.9c0,1.4,0,3.5-0.1,6.4
			c-0.1,2.9-0.1,5.1-0.1,6.6c0,0.9-0.1,2.3-0.2,4.1c-0.2,2.1-0.3,3.6-0.3,4.7c0,2.4,0.9,4.5,2.5,6.2c1.8,1.8,4.2,2.8,7,2.8
			c4.1,0,9-2.5,9-14.6c0-2,0-4.9-0.1-8.8c-0.1-3.9-0.1-6.7-0.1-8.6c0-0.3,0-0.7,0-1.2c9.4,11.6,18.1,21,25.8,28
			c2.9,2.6,5.6,3.9,8.3,3.9c4.9,0,8.3-3,9.1-7.9c0.5-2.9,0.7-4.9,0.7-6.4c0-3,0.1-10.8,0.2-23.1c0-3.6,0.1-5.6,0.1-5.8
			C319.6,47.2,319.6,31.1,309.9,31.1z"/>
	</g>
	<g>
		<path class="st1" d="M45.5,25.7c-4.6-1.2-8.4-1.9-11.5-1.9c-2,0-4.3,0.1-6.8,0.4c-2.2,0.2-4.5,0.5-7,0.9c-0.9-0.3-1.9-0.4-2.9-0.4
			c-2.4,0-4.6,0.9-6.3,2.5c-1.7,1.7-2.6,3.8-2.6,6.3c0,0.9,0,2.4-0.1,4.3c0,2-0.1,3.4-0.1,4.4v42c0,2.4,0.8,4.5,2.3,6.1
			c1.6,1.7,3.7,2.6,6.2,2.6c2.3,0,4.5-0.8,6.3-2.3c1.9-1.7,3-3.9,3-6.4V64.1c3.3-0.8,4.8-0.9,5.5-0.9c1.2,0,3,0.1,5.4,0.3
			c2.7,0.2,4.6,0.3,6,0.3c2.4,0,4.6-0.9,6.3-2.5c1.7-1.7,2.7-3.8,2.7-6.3c0-4.8-3-8.1-8-8.7c-3.5-0.4-7.7-0.7-12.3-0.7
			c-1.6,0-3.4,0.2-5.5,0.5c0-1.4,0-2.8,0-4.3c1.1-0.1,2.1-0.3,3.1-0.4c1.8-0.2,3.4-0.3,4.8-0.3c4.1,0,7.6,0.5,10.4,1.4
			c3.7,1.2,6.9,0.3,9.3-2.1c1.7-1.7,2.6-3.9,2.6-6.2C56.2,28.6,48.4,26.5,45.5,25.7z"/>
		<path class="st1" d="M108.9,27c-3.3,0-6.1,1.5-7.9,4.3c-1.2,1.9-1.8,3.9-1.8,6c0,10.1-0.6,18-1.7,23.5c-1.8,9-5,13.6-9.3,13.5
			c-3.7,0-5-0.5-5.2-0.6c-1.2-1-2.3-3-3.1-5.9c-0.8-2.8-1.2-6-1.2-9.3c0-1.1,0.1-2.8,0.2-5c0.1-2.4,0.2-4.2,0.2-5.4
			c0-1.4,0-3.4,0.1-6.2c0-2.8,0.1-4.9,0.1-6.2c0-2.6-1.1-4.8-3-6.4c-1.7-1.4-3.8-2.2-6-2.2c-1.9,0-5.4,0.7-7.5,5.7
			c-0.9,2.2-1.4,4.5-1.4,6.9c0,0.9,0,2.3-0.1,4.1c-0.1,1.9-0.1,3.3-0.1,4.3c0,1.1-0.1,2.8-0.2,5.1c-0.1,2.4-0.2,4.2-0.2,5.5
			c0,13.5,3.7,23.2,11.1,28.9c3.7,2.9,9,4.3,16.2,4.3c4,0,7.8-1.2,11.5-3.5c2.9-1.9,5.4-4.2,7.5-7l0,0c4.4-6,7.3-13.5,8.8-22.4
			c0.9-5.6,1.4-13.4,1.4-23.2c0-1.9-0.6-3.6-1.6-5.1C114.2,28.2,111.8,27,108.9,27z"/>
		<path class="st1" d="M122.9,2.9c-1.7-0.9-3.6-1.4-5.8-1.4c-2,0-4.9,0.1-8.8,0.2c-3.8,0.1-6.7,0.2-8.6,0.2c-2.2,0-4.2,0.5-6,1.6
			C91.3,5,90,7.3,90,10c0,2.7,1.3,5.1,3.8,6.6c1.7,1,3.7,1.6,5.9,1.6c8.8,0,14.8-0.1,18.3-0.4c8.4-0.6,9.1-6.4,9.1-8.1
			C127.1,6.7,125.6,4.3,122.9,2.9z"/>
		<path class="st1" d="M185.4,73.5c-1.1-0.3-2-0.8-2.9-1.5c-2.4-1.8-5.1-4.1-8.1-6.8c-1.7-1.6-3.5-3.2-5.2-4.9
			c3.8-3.7,7.5-7.5,11-11.3c9-9.8,9.7-12.4,9.7-14.3c0-2.4-0.9-4.6-2.7-6.3c-1.7-1.6-3.9-2.5-6.2-2.5c-2.5,0-4.8,1.1-6.7,3
			c-5.3,5.8-9.2,10-12,13c0.2-3.2,0.3-5.9,0.3-7.9c0-2.3-0.9-4.5-2.5-6.2c-1.7-1.7-3.9-2.6-6.3-2.6c-2.5,0-4.6,0.9-6.3,2.6
			c-1.7,1.7-2.6,3.8-2.6,6.2c0,5.4-0.2,13.5-0.5,24.4c-0.3,10.9-0.5,19.1-0.5,24.6c0,2.2,0.7,4.2,2,6.1c1.8,2.6,4.4,3.9,7.6,3.9
			c2.9,0,5.3-1.2,6.8-3.5c1-1.5,1.6-3.2,1.6-5.1l0-6.7c2.7,2.6,4.6,4.3,5.7,5.2c6.3,5.2,11.6,7.7,16,7.7c2.8,0,5.3-1.3,6.9-3.6
			c1.1-1.6,1.6-3.3,1.6-5.1C192,77.9,189.6,74.9,185.4,73.5z"/>
		<path class="st1" d="M228.1,45.1c4.1,0.5,5.5,0.6,6.2,0.6c2,0,3.9-0.7,5.5-2c2-1.6,3.1-3.9,3.1-6.6c0-4.8-2.8-8.1-7.6-8.8
			c-7.5-1-13.7-1.6-18.5-1.6c-5.3,0-9,0.1-11.2,0.3c-2.1,0.2-4,1-5.5,2.5c-1.7,1.6-2.6,3.8-2.6,6.2c0,2.4,0.9,4.6,2.6,6.3
			c1.7,1.6,3.9,2.5,6.4,2.5c0,0,0,0,0,0l3.8-0.1c-0.3,4.9-0.5,10-0.5,15.2c0,5.7,0,10.1,0,13.2c-1.3,0.1-2.3,0.2-3.2,0.2
			c-2.5,0-4.8,0.9-6.5,2.5c-1.8,1.7-2.7,3.8-2.7,6.2c0,2.4,0.9,4.5,2.6,6.2c1.7,1.6,3.9,2.5,6.3,2.5c1.8,0,4.4-0.2,7.9-0.7
			c3.1-0.4,5.5-0.6,6.9-0.6c1.4,0,3.5,0,6.4-0.1c2.8-0.1,4.8-0.1,6.2-0.1c2.5,0,4.7-0.9,6.4-2.5c1.7-1.7,2.6-3.8,2.6-6.2
			c0-2.3-0.9-4.5-2.5-6.2c-1.7-1.7-3.9-2.6-6.3-2.6c-2.1,0-4.1,0-6.2,0l0-12.7C227.9,53.5,228,48.9,228.1,45.1z"/>
		<path class="st1" d="M303.9,25.1c-5.6,0-9.1,3.4-9.1,8.8c0,1.2,0.1,2.7,0.4,4.6c0.3,2.3,0.4,3.3,0.4,3.7
			c0.2,3.7,0.3,10.7,0.4,20.9c-8.6-8.8-17.3-19.6-26.1-32.1c-3-4.2-5.9-6.3-9.1-6.3c-2.5,0-4.9,0.9-6.8,2.7c-2,1.9-3.1,4.2-3.1,6.7
			c0,1.6,0.1,3.9,0.5,6.9c0.3,2.8,0.4,4.9,0.4,6.2c0,1.6,0,3.9,0.1,7.1c0.1,3.1,0.1,5.4,0.1,6.9c0,1.4,0,3.5-0.1,6.4
			c-0.1,2.9-0.1,5.1-0.1,6.6c0,0.9-0.1,2.3-0.2,4.1c-0.2,2.1-0.3,3.6-0.3,4.7c0,2.4,0.9,4.5,2.5,6.2c1.8,1.8,4.2,2.8,7,2.8
			c4.1,0,9-2.5,9-14.6c0-2,0-4.9-0.1-8.8c-0.1-3.9-0.1-6.7-0.1-8.6c0-0.3,0-0.7,0-1.2c9.4,11.6,18.1,21,25.8,28
			c2.9,2.6,5.6,3.9,8.3,3.9c4.9,0,8.3-3,9.1-7.9c0.5-2.9,0.7-4.9,0.7-6.4c0-3,0.1-10.8,0.2-23.1c0-3.6,0.1-5.6,0.1-5.8
			C313.6,41.2,313.6,25.1,303.9,25.1z"/>
	</g>
</g>
</svg>
