<?xml version="1.0" encoding="utf-8"?>
<!-- Generator: Adobe Illustrator 21.0.0, SVG Export Plug-In . SVG Version: 6.00 Build 0)  -->
<svg version="1.1" id="Layer_1" xmlns="http://www.w3.org/2000/svg" xmlns:xlink="http://www.w3.org/1999/xlink" x="0px" y="0px"
	 viewBox="0 0 821.8 109" style="enable-background:new 0 0 821.8 109;" xml:space="preserve">
<style type="text/css">
	.st0{fill:#FFFFFF;}
</style>
<g>
	<g>
		<path d="M123.8,26.3c-0.6,1.6-1.4,3.5-2.4,5.9c-0.6,2.2-1.8,5.6-3.2,10.1c-2.2,5.8-5.8,14.3-10.7,25.2c-5,11.2-8.5,19.7-10.7,25.2
			c-1.6,4.2-3.2,7.4-4.5,9.9c-1.9,3.2-4.6,5-8.5,5c-2.2,0-4.3-0.6-6.1-1.8c-2.1-1.4-3.2-3.2-3.4-5.6c-1.8-4.5-2.9-8.2-3.4-11.1
			c-1.8-8.3-4.2-21-7.2-38c-2.6,7.9-5.3,15.1-8.3,21.3c-4.3,9.5-7.4,16.8-8.7,22.3c0.3,0.8,0.5,1.8,0.5,2.7c0,2.4-1.1,4.5-3.2,5.9
			c-1.9,1.3-4,1.9-6.3,1.9c-2.9,0-5.3-0.8-7.2-2.2c-2.1-1.6-3-3.8-3.2-6.6l-1.8-6.9c-1.3-6.1-3.4-15.2-6.4-27.4
			c-2.6-9.3-6.9-22.6-13-39.8c-0.3-1-0.5-1.9-0.5-2.9c0-2.4,1-4.2,2.7-5.6c1.6-1.3,3.5-1.9,5.8-1.9c3,0,5.3,1.3,7.2,3.8
			c1,1.4,2.1,3.8,3.4,7.5c3.8,11.1,8.2,27.3,13,48.4c3.2-7.7,6.4-16.7,9.6-27.1c2.6-8.5,4.8-14.6,6.4-18.1c4-8.5,8-12.8,12-12.8
			c3.8,0,6.7,2.1,8.5,6.3c0.8,2.1,1.8,5.6,2.6,10.9c0.2,1.6,0.8,5.6,1.6,11.9c0.8,6.7,3.4,19.1,7.4,36.9c4.2-9.8,9.8-23.9,16.8-42.2
			c0.5-1.1,1.4-4.6,3-10.9c1.1-4.3,2.6-7.9,4.3-10.4c1.9-2.7,4.3-4.2,7.5-4.2c2.4,0,4.3,0.8,5.9,2.2c1.6,1.4,2.4,3.4,2.4,5.8
			C125.9,20.7,125.2,22.8,123.8,26.3z"/>
		<path d="M83.8,108.4c-2.4,0-4.6-0.6-6.6-1.9c-2.2-1.6-3.5-3.5-3.7-6.1c-1.8-4.5-2.9-8.3-3.4-11.2c-1.6-7.9-3.8-19.6-6.6-34.8
			c-2.2,6.7-4.8,13-7.4,18.4c-4.3,9.1-7.2,16.5-8.5,21.8c0.3,1,0.5,1.8,0.5,2.9c0,2.7-1.3,5-3.5,6.6c-2.1,1.4-4.3,2.1-6.7,2.1
			c-3,0-5.6-0.8-7.7-2.4c-2.2-1.8-3.4-4.2-3.5-7.1L25,89.8c-1.3-6.1-3.4-15.4-6.4-27.6c-2.7-9.1-7.1-22.4-13.1-39.6
			c-0.3-1.1-0.6-2.1-0.6-3.2c0-2.6,1-4.6,3-6.3c1.8-1.3,3.8-2.1,6.3-2.1c3.2,0,5.9,1.4,7.9,4.2c1,1.4,2.2,4,3.5,7.7
			c3.7,10.6,7.9,26.1,12.5,46c2.9-7.1,5.8-15.4,8.7-24.7c2.6-8.5,4.8-14.6,6.4-18.3c4.2-9,8.3-13.3,12.8-13.3c4.2,0,7.2,2.2,9.1,6.7
			c1,2.1,1.8,5.8,2.6,11.1c0.3,1.6,0.8,5.6,1.6,11.9c0.8,6.4,3,18,6.9,34.5c4-9.6,9.3-22.9,15.9-39.9c0.5-1.1,1.4-4.6,3-10.7
			c1.1-4.5,2.6-8,4.5-10.7c2.1-3,4.8-4.5,8.2-4.5c2.6,0,4.8,0.8,6.6,2.4s2.6,3.7,2.6,6.3c0,0.6-0.2,1.9-2.1,6.7l0,0
			c-0.6,1.6-1.4,3.5-2.4,5.9c-0.6,2.2-1.8,5.6-3.2,10.1c-2.2,5.8-5.8,14.3-10.7,25.3c-5,11.2-8.7,19.7-10.7,25.2
			c-1.6,4.2-3.2,7.5-4.6,9.9C90.9,106.6,87.9,108.4,83.8,108.4z M63.8,47.8l0.6,3.2c3,16.8,5.5,29.5,7.2,37.8
			c0.5,2.9,1.6,6.6,3.4,10.9v0.3c0.2,2.1,1.1,3.7,3,5c1.6,1.1,3.5,1.8,5.6,1.8c3.5,0,6.1-1.4,7.7-4.5c1.4-2.4,2.9-5.8,4.5-9.8
			c2.1-5.5,5.8-13.9,10.7-25.2c4.8-10.9,8.5-19.4,10.7-25.2c1.4-4.3,2.6-7.9,3.2-10.1c1-2.4,1.8-4.5,2.4-6.1
			c1.8-4.3,2.1-5.6,2.1-6.1c0-2.1-0.6-3.8-2.1-5.1c-1.4-1.3-3.2-1.9-5.5-1.9c-2.9,0-5.1,1.3-6.9,3.8c-1.6,2.4-3,5.9-4.2,10.3
			c-1.6,6.3-2.7,9.8-3,10.9c-7.1,18.1-12.7,32.4-16.8,42l-1,2.2l-0.5-2.4c-4.2-17.8-6.6-30.3-7.4-37c-0.8-6.1-1.3-10.3-1.6-11.9
			c-0.8-5.1-1.6-8.8-2.4-10.7c-1.6-3.8-4.2-5.8-7.7-5.8c-3.7,0-7.5,4.2-11.4,12.3c-1.6,3.5-3.8,9.6-6.4,18
			C45,55,41.7,64.1,38.6,71.8l-1,2.4L37,71.8c-4.8-21.2-9.1-37.4-13-48.4c-1.3-3.5-2.2-5.9-3.2-7.2c-1.6-2.2-3.7-3.4-6.4-3.4
			c-2.1,0-3.8,0.6-5.3,1.8c-1.6,1.3-2.4,2.9-2.4,5c0,1,0.2,1.8,0.5,2.7c6.1,17.2,10.4,30.6,13,39.9c2.9,12.2,5.1,21.5,6.4,27.6
			l1.9,7.1c0,2.6,1,4.5,2.9,5.9c1.8,1.3,4,2.1,6.6,2.1c2.1,0,4-0.6,5.8-1.8c1.9-1.4,2.9-3,2.9-5.3c0-0.8-0.2-1.8-0.5-2.4L46,95.1
			v-0.3c1.4-5.5,4.3-13,8.7-22.4c2.9-6.3,5.6-13.3,8.2-21.2L63.8,47.8z"/>
	</g>
	<g>
		<path d="M151.8,47.9c2.9-2.9,5.9-5,9.3-6.4c3.2-1.4,6.7-2.1,10.6-2.1c6.7,0,11.5,1.9,14.6,5.6c2.2,2.9,3.5,7.2,4,13
			c0.2,4.8,0.5,9.6,0.6,14.6c0.6,6.4,1,10.3,1.1,11.5c0.5,4.3,1.3,8.2,2.1,11.4c0.2,0.8,0.3,1.6,0.3,2.2c0,2.2-0.8,4-2.6,5.5
			c-1.8,1.4-3.7,2.1-5.9,2.1c-4,0-6.6-1.9-7.7-5.9c-1-3.2-1.8-7.7-2.6-13.5c-0.6-5.6-1.1-10.1-1.1-13.6c0-1,0-2.4,0.2-4.5
			c0.2-1.9,0.2-3.5,0.2-4.5c0-2.9,0-4.6-0.2-5.1c-0.3-2.1-1.4-3.2-3-3.2c-4.3,0-8.3,2.1-11.9,6.1c-1.8,2.1-4.3,5.8-7.4,11.4
			c0,14.3-0.6,22.8-2.1,25.7c-1.6,3.2-4,4.8-7.4,4.8c-2.2,0-4.2-0.8-5.9-2.2c-1.8-1.4-2.6-3.4-2.6-5.5c0-0.8,0.2-1.8,0.6-3.2
			c0.3-0.8,0.5-6.3,0.6-15.9c-0.2-7.9-0.2-21,0.2-39.4l0.2-1.9c0.2-4.6,0.3-7.7,0.3-9.3c0-1.3-0.2-3-0.5-5.5s-0.5-4.2-0.5-5.5
			c0-2.2,0.8-4,2.4-5.5s3.5-2.1,5.8-2.1c3.8,0,6.6,2.1,7.9,6.3c0.8,2.4,1.1,5.9,1.1,10.9c0,4-0.2,7.9-0.3,12
			C152,40.4,151.8,44.1,151.8,47.9z"/>
		<path d="M186,106.5c-4.3,0-7.2-2.2-8.5-6.4c-1-3.2-1.8-7.9-2.6-13.6c-0.6-5.6-1.1-10.3-1.1-13.8c0-1,0-2.4,0.2-4.5
			c0.2-2.1,0.2-3.5,0.2-4.5c0-3.7,0-4.6-0.2-5c-0.3-2.2-1.4-2.6-2.2-2.6c-4.2,0-7.9,1.9-11.2,5.8c-1.8,1.9-4.2,5.6-7.2,11.1
			c0,14.4-0.6,22.8-2.1,25.8c-1.6,3.5-4.3,5.3-8,5.3c-2.4,0-4.5-0.8-6.4-2.4c-1.9-1.6-2.9-3.7-2.9-6.1c0-0.8,0.2-1.9,0.6-3.4
			c0.2-0.5,0.5-3,0.6-15.7c-0.2-7.9-0.2-21.2,0.2-39.4l0.2-1.9c0.2-4.6,0.3-7.7,0.3-9.3c0-1.1-0.2-2.9-0.5-5.3
			c-0.3-2.4-0.6-4.3-0.6-5.5c0-2.4,1-4.5,2.7-6.1s3.8-2.4,6.4-2.4c4.3,0,7.2,2.2,8.7,6.7c0.8,2.4,1.1,6.1,1.1,11.1c0,4-0.2,8-0.3,12
			c-0.2,3.2-0.3,6.4-0.3,9.6c2.6-2.2,5.3-4,8.2-5.3c3.4-1.4,7.1-2.1,10.9-2.1c6.9,0,12,2.1,15.1,5.9c2.2,2.9,3.7,7.5,4.2,13.5
			c0.2,4.8,0.5,9.8,0.6,14.6c0.6,6.3,1,10.1,1.1,11.5c0.5,4.3,1.3,8.2,1.9,11.4c0.2,1,0.3,1.6,0.3,2.4c0,2.4-1,4.5-2.7,6.1
			C190.5,105.7,188.4,106.5,186,106.5z M171.7,54.5c1.4,0,3.4,0.6,3.8,3.8c0,0.3,0.2,1.3,0.2,5.1c0,1,0,2.4-0.2,4.5
			c-0.2,1.9-0.2,3.5-0.2,4.5c0,3.5,0.3,8,1.1,13.6c0.8,5.8,1.6,10.3,2.6,13.3c1.1,3.5,3.4,5.3,6.9,5.3c2.1,0,3.8-0.6,5.3-1.9
			c1.4-1.3,2.2-2.9,2.2-4.8c0-0.6-0.2-1.3-0.3-1.9c-0.8-3.2-1.4-7.2-2.1-11.5c-0.2-1.4-0.5-5.3-1.1-11.5c-0.2-5-0.5-9.8-0.6-14.6
			c-0.5-5.6-1.8-9.9-3.8-12.5c-2.7-3.5-7.4-5.3-13.9-5.3c-3.7,0-7.1,0.6-10.3,2.1c-3.2,1.3-6.3,3.4-9,6.3l-1.3,1v-1.9
			c0-3.8,0.2-7.7,0.3-11.5c0.2-4,0.3-8,0.3-11.9c0-4.8-0.3-8.3-1.1-10.6c-1.3-3.8-3.5-5.8-7.1-5.8c-2.1,0-3.8,0.6-5.3,1.9
			c-1.4,1.3-2.1,2.9-2.1,5c0,1.1,0.2,2.9,0.5,5.3c0.3,2.4,0.6,4.3,0.6,5.5c0,1.6-0.2,4.8-0.3,9.3l-0.2,1.9
			c-0.2,18.4-0.3,31.7,0,39.6c-0.3,14.7-0.6,15.9-0.8,16.2c-0.5,1.3-0.6,2.2-0.6,2.9c0,1.9,0.8,3.5,2.2,4.8c1.6,1.3,3.4,2.1,5.3,2.1
			c3,0,5.1-1.4,6.6-4.3c1.3-2.7,1.9-11.4,1.9-25.3v-0.2l0.2-0.2c3.2-5.8,5.6-9.5,7.5-11.5C162.9,56.6,167.1,54.5,171.7,54.5z"/>
	</g>
	<g>
		<path d="M228.5,105.3c-7.2,0-13.5-2.6-18.8-7.5c-5.8-5.5-8.8-12.8-9-22c-0.3-8.7,2.1-16.5,7.2-23.2c5.9-8,14.3-12,25-12
			c7.9,0,14.1,3.2,18.8,9.5c4.2,5.6,6.3,12.7,6.3,21c0,9.1-2.4,16.8-7.4,23.4C245,101.8,237.6,105.3,228.5,105.3z M232,56.3
			c-4.8,0-8.7,2.1-11.4,6.6c-2.4,3.7-3.5,8.2-3.5,13.1c0,4.6,1.3,8.3,4,10.9c2.1,2.1,4.6,3,7.4,3c3.4,0,6.4-1.1,9-3.5
			c2.9-2.7,4.3-6.4,4.6-11.1C242.4,62.7,239.2,56.4,232,56.3z"/>
		<path d="M228.5,106.1c-7.5,0-13.9-2.6-19.2-7.7c-5.9-5.6-9-13.1-9.3-22.4c-0.3-8.8,2.2-16.8,7.4-23.7c6.1-8.2,14.7-12.3,25.7-12.3
			c8,0,14.6,3.2,19.4,9.8c4.3,5.8,6.4,13,6.4,21.5c0,9.3-2.6,17.3-7.5,23.9C245.4,102.4,237.9,106.1,228.5,106.1z M232.8,41.5
			c-10.4,0-18.6,4-24.4,11.7c-5,6.6-7.2,14.3-7.1,22.8c0.3,8.8,3.2,16,8.8,21.3c5.1,4.8,11.2,7.2,18.3,7.2c8.8,0,16-3.5,21.3-10.4
			c4.8-6.3,7.2-13.9,7.2-22.9c0-8.2-2.1-15.1-6.1-20.5C246.4,44.6,240.3,41.5,232.8,41.5z M228.5,90.7c-3,0-5.8-1.1-8-3.2
			c-2.9-2.7-4.3-6.6-4.3-11.4c0-5.1,1.3-9.6,3.7-13.5c2.9-4.6,7.1-7.1,12.2-7.1c2.7,0,5.1,1,6.9,2.7c3,3.2,4.3,8.7,4,17.2
			c-0.2,4.8-1.8,8.7-4.8,11.5C235.2,89.5,232,90.7,228.5,90.7z M231.8,57.1c-4.5,0-8,2.1-10.6,6.3c-2.2,3.5-3.4,7.9-3.4,12.7
			c0,4.5,1.3,7.9,3.7,10.3c1.9,1.9,4.2,2.7,6.9,2.7c3.2,0,5.9-1.1,8.3-3.2c2.7-2.6,4.2-6.1,4.3-10.4c0.3-7.9-0.8-13.1-3.5-16
			C236.2,57.9,234.4,57.1,231.8,57.1L231.8,57.1C232,57.1,231.8,57.1,231.8,57.1z"/>
	</g>
	<g>
		<path d="M338.6,74.2c0,2.2,0,5.8,0.2,10.7c0.2,5,0.2,8.5,0.2,10.7c0,2.2-0.8,4.2-2.2,5.6c-1.4,1.4-3.5,2.2-5.8,2.2
			c-2.4,0-4.3-0.8-5.8-2.2c-1.4-1.4-2.2-3.4-2.2-5.6c0-2.2,0-5.8-0.2-10.7c-0.2-5-0.2-8.5-0.2-10.7c0-3.5,0.2-7.9,0.6-13.1
			c0.3-5.3,0.6-9.6,0.6-13.1c0-2.2,0.8-4.2,2.2-5.6s3.5-2.2,5.8-2.2c2.4,0,4.3,0.8,5.8,2.2s2.2,3.4,2.2,5.6c0,3.5-0.2,7.9-0.6,13.1
			C338.8,66.4,338.6,70.7,338.6,74.2z M333.5,30.9c-2.6,0-4.6-0.8-6.6-2.6c-1.9-1.8-2.7-3.7-2.7-6.3c0-2.4,1-4.5,2.7-6.3
			c1.8-1.8,4-2.6,6.6-2.6s4.6,0.8,6.6,2.6s2.7,3.7,2.7,6.3c0,2.4-1,4.5-2.7,6.3C338.3,30.1,336,30.9,333.5,30.9z"/>
		<path d="M330.7,104.5c-2.6,0-4.6-0.8-6.4-2.4c-1.8-1.6-2.6-3.7-2.6-6.3c0-2.2,0-5.8-0.2-10.7c-0.2-4.8-0.2-8.5-0.2-10.7
			c0-3.5,0.2-8,0.6-13.1c0.3-5.3,0.6-9.6,0.6-13.1c0-2.6,0.8-4.6,2.6-6.3c1.6-1.6,3.8-2.4,6.4-2.4s4.6,0.8,6.4,2.4
			c1.8,1.6,2.6,3.7,2.6,6.3c0,3.5-0.2,8-0.6,13.1c-0.3,5.3-0.6,9.6-0.6,13.1c0,2.2,0,5.9,0.2,10.7c0.2,5.1,0.2,8.7,0.2,10.7
			c0,2.6-0.8,4.6-2.6,6.3C335.5,103.7,333.3,104.5,330.7,104.5z M331.5,40.9c-2.1,0-3.8,0.6-5.3,1.9s-2.1,3-2.1,5.1
			c0,3.5-0.2,8-0.6,13.1c-0.3,5.3-0.6,9.6-0.6,13.1c0,2.2,0,5.9,0.2,10.7c0.2,5,0.2,8.5,0.2,10.7c0,2.1,0.6,3.7,2.1,5.1
			c1.4,1.3,3,1.9,5.3,1.9c2.2,0,3.8-0.6,5.3-1.9c1.4-1.3,2.1-3,2.1-5.1c0-2.2,0-5.8-0.2-10.7c-0.2-4.8-0.2-8.5-0.2-10.7
			c0-3.5,0.2-8,0.6-13.1c0.3-5.3,0.6-9.6,0.6-13.1c0-2.1-0.6-3.7-2.1-5.1C335.4,41.5,333.8,40.9,331.5,40.9z M333.5,31.7
			c-2.7,0-5.1-1-7.1-2.7c-2.1-1.8-3-4.2-3-6.7c0-2.7,1-5,3-6.7c1.9-1.8,4.3-2.7,7.1-2.7s5.1,1,7.1,2.7c1.9,1.8,3,4.2,3,6.7
			c0,2.7-1,5-3,6.7C338.6,30.9,336.2,31.7,333.5,31.7z M333.5,14.3c-2.4,0-4.3,0.8-5.9,2.4c-1.8,1.6-2.6,3.4-2.6,5.6s0.8,4,2.6,5.6
			c1.8,1.6,3.7,2.4,5.9,2.4c2.4,0,4.3-0.8,5.9-2.2c1.6-1.6,2.6-3.4,2.6-5.6s-0.8-4-2.6-5.6C337.8,15.1,335.9,14.3,333.5,14.3z"/>
	</g>
	<g>
		<path d="M395.5,58.7c-3.8,0-6.3-1.6-7.1-5c-1.6-0.3-3.2-0.5-4.8-0.5c-9.5,0-14.3,1.3-14.3,3.8c0,1.6,2.9,3.5,8.5,6.3
			c7.9,3.5,13,6.4,15.9,8.3c5.8,4.2,8.5,8.8,8.5,13.9c0,6.7-3.2,11.9-9.5,15.4c-5.1,2.7-11.4,4.2-18.8,4.2c-5.3,0-9.9-0.8-14.3-2.4
			c-5.9-2.2-8.8-5.5-8.8-9.8c0-4,2.4-5.9,7.1-5.9c1.8,0,4.5,0.6,7.9,1.8c3.4,1.1,6.1,1.8,7.9,1.8c8,0,12-1.6,12-4.8
			c0-2.1-2.7-4.2-8.3-6.7c-8.2-3.5-13.3-6.1-15.6-7.7c-5.6-3.8-8.3-8.7-8.3-14.3c0-7.9,4.2-13.3,12.5-16c5-1.6,12.3-2.4,22.4-2.4
			c4,0,6.9,0.5,8.7,1.6c2.6,1.4,3.8,3.8,3.8,7.5C401.1,55.2,399.2,58.7,395.5,58.7z"/>
		<path d="M374.2,106.3c-5.3,0-10.3-0.8-14.6-2.4c-6.3-2.2-9.3-5.8-9.3-10.4c0-3,1.3-6.7,7.9-6.7c1.9,0,4.5,0.6,8.2,1.8
			c3.4,1.1,5.9,1.6,7.7,1.6c5.1,0,11.2-0.6,11.2-4c0-1-1-2.9-7.9-5.9c-8.2-3.7-13.3-6.3-15.7-7.9c-5.8-4-8.7-9-8.7-14.9
			c0-8.2,4.5-13.9,13.1-16.7c5-1.6,12.7-2.4,22.6-2.4c4.2,0,7.1,0.5,9.1,1.6c2.9,1.4,4.3,4.3,4.3,8.3c0,7.5-2.2,11.4-6.6,11.4
			c-5,0-6.9-2.6-7.7-5c-1.4-0.2-2.7-0.3-4.2-0.3c-12.2,0-13.5,2.1-13.5,3c0,0.5,0.6,2.1,8,5.5c7.9,3.7,13.1,6.4,15.9,8.5
			c5.9,4.3,8.8,9.1,8.8,14.6c0,7.1-3.4,12.5-9.8,16C388.1,104.8,381.7,106.3,374.2,106.3z M358,88.2c-4.2,0-6.3,1.6-6.3,5.1
			c0,4,2.7,6.9,8.3,9c4.2,1.6,9,2.4,14.1,2.4c7.2,0,13.3-1.4,18.3-4.2c6.1-3.4,9-8.2,9-14.7c0-5-2.7-9.5-8.2-13.3
			c-2.7-1.9-8-4.8-15.7-8.3c-8-3.7-9-5.6-9-6.9c0-3.2,4.8-4.6,15.1-4.6c1.8,0,3.4,0.2,5,0.5l0.5,0.2l0.2,0.5
			c0.6,2.9,2.7,4.3,6.3,4.3c1.3,0,5,0,5-9.8c0-3.4-1.1-5.6-3.5-6.9c-1.8-1-4.6-1.4-8.3-1.4c-9.9,0-17.3,0.8-22.1,2.4
			c-8,2.7-12,7.7-12,15.2c0,5.3,2.7,9.8,8,13.6c2.2,1.6,7.4,4.2,15.4,7.7c5.9,2.6,8.8,5,8.8,7.4c0,3.8-4.2,5.6-12.8,5.6
			c-1.9,0-4.6-0.6-8.2-1.8C362.3,88.8,359.8,88.2,358,88.2z"/>
	</g>
	<g>
		<path d="M521.4,28.2c-1,0-1.9-0.2-3-0.5c-5.1-1.6-11.2-2.4-18.6-2.4c-2.4,0-5.1,0.2-8.3,0.5c-3.2,0.3-6.6,0.8-10.4,1.4
			c0,7.5,0,14.1,0,19.4c5.9-1.4,10.9-2.2,14.9-2.2c7.4,0,13.6,0.3,19.1,1c5.1,0.6,7.5,3.4,7.5,8c0,2.2-0.8,4.2-2.4,5.8
			c-1.6,1.6-3.5,2.2-5.9,2.2c-2.1,0-5.1-0.2-9.1-0.5c-4.2-0.3-7.2-0.5-9.1-0.5c-2.9,0-7.9,1-14.9,2.7v37c0,2.2-1,4.2-2.7,5.8
			c-1.8,1.6-3.8,2.2-6.1,2.2c-2.2,0-4.2-0.8-5.6-2.2c-1.4-1.4-2.1-3.4-2.1-5.8V32.5c0-1.6,0-3.8,0.2-6.9c0-3,0.2-5.5,0.2-6.9
			c0-2.2,0.8-4.2,2.4-5.8c1.6-1.6,3.5-2.2,5.9-2.2c1.4,0,2.9,0.3,4,1c4.5-0.8,8.8-1.4,12.5-1.8c3.8-0.3,7.2-0.5,10.3-0.5
			c4.5,0,10.1,1,17,2.7c8.5,2.2,12.8,5,12.8,8c0,2.2-0.8,4.2-2.4,5.8C525.5,27.4,523.6,28.2,521.4,28.2z"/>
		<path d="M472.3,109c-2.6,0-4.5-0.8-6.1-2.6c-1.6-1.6-2.4-3.8-2.4-6.3V32.5c0-1.6,0-3.8,0.2-7.1c0-3,0.2-5.5,0.2-6.9
			c0-2.6,0.8-4.6,2.6-6.4c1.8-1.6,3.8-2.6,6.4-2.6c1.4,0,2.9,0.3,4,0.8c4.5-0.8,8.7-1.3,12.3-1.8c3.8-0.3,7.4-0.6,10.4-0.6
			c4.5,0,10.3,1,17.2,2.7c9,2.4,13.5,5.3,13.5,8.8c0,2.4-0.8,4.6-2.6,6.4c-1.8,1.8-3.8,2.7-6.3,2.7c-1,0-2.1-0.2-3.2-0.6
			c-5-1.6-11.1-2.4-18.3-2.4c-2.4,0-5.1,0.2-8.2,0.5c-2.9,0.3-6.1,0.8-9.6,1.3c0,6.7,0,12.7,0,17.8c5.6-1.3,10.3-1.9,14.1-1.9
			c7.4,0,13.8,0.3,19.2,1c5.5,0.6,8.3,3.7,8.3,8.8c0,2.6-1,4.6-2.7,6.3c-1.8,1.6-4,2.6-6.4,2.6c-2.1,0-5.1-0.2-9.3-0.5
			c-4-0.3-7.2-0.5-9.1-0.5c-2.7,0-7.4,0.8-14.1,2.6v36.4c0,2.6-1,4.6-2.9,6.3C477,108.2,474.7,109,472.3,109z M472.9,11.4
			c-2.1,0-3.8,0.6-5.3,2.1s-2.1,3-2.1,5.3c0,1.6,0,3.8-0.2,7.1c0,3-0.2,5.5-0.2,6.9v67.7c0,2.1,0.6,3.8,1.9,5.1
			c1.3,1.3,2.9,2.1,5,2.1c2.1,0,4-0.6,5.6-2.1c1.6-1.4,2.4-3,2.4-5.1V62.5l0.6-0.2c7.2-1.8,12-2.7,15.1-2.7c2.1,0,5.1,0.2,9.3,0.5
			c4,0.3,7.1,0.5,9.1,0.5c2.1,0,3.8-0.6,5.3-2.1c1.4-1.4,2.2-3,2.2-5.1c0-4.3-2.2-6.6-6.9-7.2c-5.5-0.6-11.7-1-19.1-1
			c-3.8,0-8.8,0.8-14.7,2.1l-1,0.3v-1c0-5.5,0-11.9,0-19.4v-0.6l0.6-0.2c3.8-0.6,7.4-1.1,10.4-1.4c3.2-0.3,5.9-0.5,8.3-0.5
			c7.4,0,13.6,0.8,18.8,2.6c1,0.3,1.9,0.5,2.7,0.5c2.1,0,3.7-0.6,5.1-2.2c1.4-1.4,2.1-3.2,2.1-5.3c0-1.8-2.1-4.5-12.2-7.4
			c-6.7-1.8-12.3-2.7-16.7-2.7c-3,0-6.4,0.2-10.3,0.5c-3.8,0.3-8,1-12.5,1.8h-0.3l-0.2-0.2C475.5,11.5,474.4,11.4,472.9,11.4z"/>
	</g>
	<g>
		<path d="M590.1,67.8c0,2.6,0,6.6,0,11.9s0,9.3,0,11.9c0,0.8,0,2.1,0.2,3.7c0.2,1.6,0.2,2.9,0.2,3.7c0,2.2-0.8,4-2.4,5.5
			c-1.6,1.4-3.5,2.1-5.9,2.1c-3.2,0-5.6-1.4-7.2-4.5c-5,1.9-10.3,2.7-15.7,2.7c-5.6,0-10.3-1.1-14.1-3.5c-4.3-2.7-6.9-6.6-7.7-11.9
			c-1.6-9.8-2.2-18.6-2.2-26.3c0-5.1,0.6-10.9,1.8-17.5c0.8-4.5,3.4-6.6,8-6.6c2.2,0,4.2,0.6,5.8,2.1c1.6,1.4,2.4,3.2,2.4,5.5
			c0,1.8-0.3,4.5-0.8,8c-0.6,3.7-0.8,6.4-0.8,8.3c0,5.5,0.2,10.3,0.5,14.4c0.3,4.2,1,7.5,1.6,10.3c1,0.5,1.9,0.8,2.9,1
			c1,0.2,1.8,0.3,2.7,0.3c4.3,0,9.1-0.6,14.4-1.9c0-3,0-6.4,0-10.3c0-4.6-0.2-7.9-0.2-9.9c0-8,0.3-15.1,1.1-20.8
			c0.6-4.6,3.2-7.1,8-7.1c2.2,0,4.3,0.8,5.9,2.2c1.6,1.4,2.4,3.2,2.2,5.5C590.5,62,590.1,68.9,590.1,67.8z"/>
		<path d="M582.4,107.4c-3.4,0-5.9-1.4-7.5-4.2c-5,1.8-10.1,2.6-15.2,2.6c-5.8,0-10.6-1.3-14.6-3.7c-4.5-2.9-7.2-6.9-8-12.3
			c-1.6-9.8-2.2-18.6-2.2-26.3c0-5.1,0.6-11.1,1.8-17.6c0.8-4.8,3.8-7.2,8.8-7.2c2.4,0,4.6,0.8,6.4,2.4s2.7,3.5,2.7,6.1
			c0,1.8-0.3,4.5-0.8,8.2c-0.6,3.7-0.8,6.4-0.8,8.2c0,5.5,0.2,10.3,0.5,14.4c0.3,3.8,0.8,7.1,1.6,9.8c0.8,0.3,1.6,0.6,2.4,0.8
			c0.8,0.2,1.8,0.3,2.6,0.3c4.2,0,8.7-0.6,13.6-1.8c0-2.9,0-6.1,0-9.6c0-4.6-0.2-7.9-0.2-9.9c0-8,0.3-15.1,1.1-21
			c0.6-5.1,3.7-7.7,8.8-7.7c2.6,0,4.6,0.8,6.4,2.4s2.7,3.7,2.6,6.1c-0.3,6.9-0.6,12.2-0.8,15.7c-0.2,2.7-0.2,4.3-0.3,5.1l0,0l0,0
			l0,0l0,0l0,0c0,2.6,0,6.6,0,11.9c0,5.3,0,9.3,0,11.9c0,0.8,0,2.1,0.2,3.7s0.2,2.9,0.2,3.7c0,2.4-1,4.5-2.7,6.1
			C587.1,106.6,584.8,107.4,582.4,107.4z M575.7,101.2l0.3,0.6c1.3,2.7,3.5,4,6.4,4c2.1,0,3.8-0.6,5.3-1.9c1.4-1.3,2.1-2.9,2.1-4.8
			c0-0.8,0-2.1-0.2-3.7c-0.2-1.6-0.2-2.9-0.2-3.7c0-2.6,0-6.6,0-11.9c0-5.3,0-9.3,0-11.9h0.2h-0.2c0-0.3,0.3-4.3,1.1-20.8
			c0.2-1.9-0.5-3.5-2.1-4.8c-1.4-1.3-3.4-1.9-5.5-1.9c-4.3,0-6.7,2.1-7.2,6.3c-0.8,5.8-1.1,12.8-1.1,20.8c0,1.9,0,5.3,0.2,9.9
			c0,3.8,0,7.4,0,10.3v0.6l-0.6,0.2c-5.3,1.3-10.1,1.9-14.6,1.9c-1,0-1.9-0.2-2.9-0.3c-1-0.2-1.9-0.6-3-1l-0.3-0.2l-0.2-0.3
			c-0.8-2.7-1.3-6.3-1.8-10.4c-0.3-4.2-0.6-9-0.6-14.6c0-1.9,0.3-4.8,0.8-8.5c0.5-3.7,0.8-6.3,0.8-8c0-1.9-0.6-3.5-2.1-4.8
			s-3.2-1.9-5.3-1.9c-4.2,0-6.4,1.9-7.2,5.9c-1.1,6.4-1.8,12.3-1.8,17.3c0,7.7,0.8,16.4,2.2,26.1c0.8,5,3.2,8.7,7.4,11.2
			c3.7,2.2,8.3,3.4,13.6,3.4c5.3,0,10.4-1,15.4-2.7L575.7,101.2z"/>
	</g>
	<g>
		<path d="M650.9,104.4c-3,0-5.5-1.4-7.1-4.5c-1.9-3.5-4.8-7.9-8.7-12.7c-5.9-7.5-9.1-11.7-9.5-12c-3.2,2.2-5.8,4.2-7.9,5.3
			c-0.3,5.5-0.6,10.7-0.6,15.7c0,2.2-0.8,4.2-2.2,5.6c-1.6,1.4-3.5,2.2-5.8,2.2c-5.6,0-8.3-3.4-8.3-9.9c0-3,0.2-7.7,0.6-13.9
			c0.5-6.3,0.6-10.9,0.6-13.9c0-5.8,0.2-12.2,0.3-19.6s0.3-13.8,0.3-19.4c0-1.8-0.2-3.7-0.3-5.9c-0.2-2.2-0.3-4.3-0.3-5.9
			c0-2.2,0.8-4.2,2.2-5.6c1.6-1.4,3.5-2.2,5.8-2.2c2.4,0,4.3,0.8,5.8,2.2s2.2,3.4,2.2,5.6c0,1.8,0.2,3.8,0.3,6.1
			c0.2,2.4,0.3,4.3,0.3,6.1c0,4.6-0.2,10.3-0.3,16.7c-0.2,6.1-0.3,11.5-0.3,16.4c5.3-4.2,13.5-11.7,24.4-22.6
			c1.8-1.8,3.7-2.6,5.9-2.6s4.2,0.8,5.8,2.4c1.8,1.6,2.6,3.5,2.6,5.6c0,1.8-0.8,3.5-2.2,5.3c-4.6,5.1-10.1,10.6-16.5,16.4L650.4,81
			c5.9,7.9,9,13.1,9,15.9c0,2.1-0.8,4-2.6,5.5C655.1,103.6,653.1,104.4,650.9,104.4z"/>
		<path d="M650.9,105.2c-3.4,0-6.1-1.6-7.9-5c-1.9-3.5-4.8-7.7-8.7-12.5c-4.6-5.9-7.9-9.9-9-11.5c-2.7,1.9-5,3.5-6.9,4.6
			c-0.3,5.3-0.5,10.4-0.5,15.2c0,2.6-0.8,4.6-2.6,6.3c-1.6,1.6-3.8,2.4-6.4,2.4c-4.2,0-9.1-1.9-9.1-10.7c0-3,0.2-7.9,0.6-13.9
			c0.5-6.1,0.6-10.9,0.6-13.9c0-5.8,0.2-12.3,0.3-19.6c0.2-7.4,0.3-13.8,0.3-19.4c0-1.6-0.2-3.7-0.3-5.9c-0.2-2.2-0.3-4.3-0.3-6.1
			c0-2.6,0.8-4.6,2.6-6.3c1.6-1.6,3.8-2.4,6.4-2.4s4.6,0.8,6.4,2.4c1.8,1.6,2.6,3.7,2.6,6.3c0,1.8,0.2,3.7,0.3,6.1s0.3,4.5,0.3,6.3
			c0,4.6-0.2,10.3-0.3,16.7c-0.2,5.5-0.3,10.4-0.3,14.7c5.3-4.3,13-11.5,23.1-21.5c1.9-1.9,4-2.9,6.4-2.9s4.5,1,6.4,2.6
			c1.9,1.8,2.7,3.8,2.7,6.3c0,2.1-0.8,4-2.6,5.8c-4.5,5-9.9,10.4-16,15.9l11.9,15.2c6.1,8.2,9.1,13.5,9.1,16.4c0,2.4-1,4.5-2.9,6.1
			C655.4,104.4,653.3,105.2,650.9,105.2z M625.9,73.9l0.5,0.6c0.3,0.5,3.8,5,9.5,12c3.8,5,6.7,9.1,8.8,12.8c1.4,2.7,3.5,4,6.4,4
			c2.1,0,3.8-0.6,5.5-2.1c1.6-1.4,2.2-3,2.2-5c0-1.6-1.4-5.8-8.8-15.4l-12.7-16.4l0.6-0.5c6.4-5.6,11.9-11.1,16.5-16.2
			c1.4-1.6,2.1-3,2.1-4.6c0-1.9-0.8-3.5-2.2-5c-1.6-1.4-3.2-2.2-5.3-2.2c-1.9,0-3.7,0.8-5.3,2.4c-10.9,10.9-19.1,18.4-24.5,22.6
			l-1.6,1.1v-1.6c0-4.8,0-10.3,0.3-16.5c0.2-6.4,0.3-12,0.3-16.7c0-1.8-0.2-3.7-0.3-6.1c-0.2-2.4-0.3-4.5-0.3-6.3
			c0-2.1-0.6-3.7-2.1-5.1c-1.4-1.3-3-1.9-5.3-1.9s-3.8,0.6-5.3,1.9s-2.1,3-2.1,5.1c0,1.6,0.2,3.7,0.3,5.9c0.2,2.2,0.3,4.3,0.3,6.1
			c0,5.6-0.2,12.2-0.3,19.4s-0.3,13.8-0.3,19.6c0,3-0.2,7.9-0.6,13.9c-0.5,6.1-0.6,10.7-0.6,13.9c0,6.1,2.4,9.1,7.5,9.1
			c2.1,0,3.8-0.6,5.3-2.1c1.4-1.3,2.1-3,2.1-5.1c0-5,0.2-10.3,0.6-15.7v-0.5l0.3-0.2c2.1-1.1,4.6-3,7.7-5.3L625.9,73.9z"/>
	</g>
	<g>
		<path d="M685,74.2c0,2.2,0,5.8,0.2,10.7c0.2,5,0.2,8.5,0.2,10.7c0,2.2-0.8,4.2-2.2,5.6c-1.4,1.4-3.5,2.2-5.8,2.2
			c-2.4,0-4.3-0.8-5.8-2.2c-1.4-1.4-2.2-3.4-2.2-5.6c0-2.2,0-5.8-0.2-10.7c-0.2-5-0.2-8.5-0.2-10.7c0-3.5,0.2-7.9,0.6-13.1
			c0.3-5.3,0.6-9.6,0.6-13.1c0-2.2,0.8-4.2,2.2-5.6s3.5-2.2,5.8-2.2c2.4,0,4.3,0.8,5.8,2.2s2.2,3.4,2.2,5.6c0,3.5-0.2,7.9-0.6,13.1
			C685.2,66.4,685,70.7,685,74.2z M679.9,30.9c-2.6,0-4.6-0.8-6.6-2.6c-1.9-1.8-2.7-3.7-2.7-6.3c0-2.4,1-4.5,2.7-6.3
			c1.8-1.8,4-2.6,6.6-2.6s4.6,0.8,6.6,2.6c1.9,1.8,2.7,3.7,2.7,6.3c0,2.4-1,4.5-2.7,6.3C684.7,30.1,682.5,30.9,679.9,30.9z"/>
		<path d="M677.4,104.5c-2.6,0-4.6-0.8-6.4-2.4c-1.8-1.6-2.6-3.7-2.6-6.3c0-2.2,0-5.8-0.2-10.7c-0.2-4.8-0.2-8.5-0.2-10.7
			c0-3.5,0.2-8,0.6-13.1c0.3-5.3,0.6-9.6,0.6-13.1c0-2.6,0.8-4.6,2.6-6.3c1.6-1.6,3.8-2.4,6.4-2.4s4.6,0.8,6.4,2.4
			c1.8,1.6,2.6,3.7,2.6,6.3c0,3.5-0.2,8-0.6,13.1c-0.3,5.3-0.6,9.6-0.6,13.1c0,2.2,0,5.9,0.2,10.7c0.2,5.1,0.2,8.7,0.2,10.7
			c0,2.6-0.8,4.6-2.6,6.3C682,103.7,679.8,104.5,677.4,104.5z M678,40.9c-2.1,0-3.8,0.6-5.3,1.9s-2.1,3-2.1,5.1
			c0,3.5-0.2,8-0.6,13.1c-0.3,5.3-0.6,9.6-0.6,13.1c0,2.2,0,5.9,0.2,10.7c0.2,5,0.2,8.5,0.2,10.7c0,2.1,0.6,3.7,2.1,5.1
			c1.4,1.3,3,1.9,5.3,1.9c2.2,0,3.8-0.6,5.3-1.9c1.4-1.3,2.1-3,2.1-5.1c0-2.2,0-5.8-0.2-10.7c-0.2-4.8-0.2-8.5-0.2-10.7
			c0-3.5,0.2-8,0.6-13.1c0.3-5.3,0.6-9.6,0.6-13.1c0-2.1-0.6-3.7-2.1-5.1C682,41.5,680.2,40.9,678,40.9z M679.9,31.7
			c-2.7,0-5.1-1-7.1-2.7c-2.1-1.8-3-4.2-3-6.7c0-2.7,1-5,3-6.7c1.9-1.8,4.3-2.7,7.1-2.7c2.7,0,5.1,1,7.1,2.7s3,4.2,3,6.7
			c0,2.7-1,5-3,6.7C685,30.9,682.6,31.7,679.9,31.7z M679.9,14.3c-2.4,0-4.3,0.8-5.9,2.4c-1.8,1.6-2.6,3.4-2.6,5.6s0.8,4,2.6,5.6
			c1.8,1.6,3.7,2.4,5.9,2.4c2.4,0,4.3-0.8,5.9-2.2c1.6-1.6,2.6-3.4,2.6-5.6s-0.8-4-2.6-5.6C684.2,15.1,682.3,14.3,679.9,14.3z"/>
	</g>
	<g>
		<path d="M746.9,106.1c-4.8,0-7.5-2.4-8-7.2c-0.5-4-1.1-8.2-1.6-12.2c-0.6-4.3-1-8.3-1-12.2c0-1,0-2.7,0.2-5.3
			c0.2-2.4,0.2-4.2,0.2-5.3c0-0.3,0-1,0.2-2.1c0-1.1,0.2-2.1,0.2-2.7c0-3.2-0.8-5-2.4-5c-3.4,0-6.7,2.2-9.9,6.6
			c-3.2,4.3-5.8,9.8-7.5,16.5c0,1.3-0.2,3-0.5,5.3c-0.2,1.8-0.3,3.5-0.3,5.3c0,1.1-0.2,2.9-0.3,5.1c-0.3,2.2-0.3,4-0.3,5.1
			c0,2.2-0.8,4.2-2.4,5.8c-1.6,1.4-3.5,2.2-5.9,2.2s-4.3-0.8-5.8-2.2c-1.6-1.4-2.2-3.4-2.2-5.6c0-1.1-0.2-2.9-0.3-5.1
			c-0.2-2.2-0.3-4-0.3-5.1c0-3.8,0.3-9.1,0.8-16c0.5-6.9,0.8-12.2,0.8-16c0-1.1,0-3-0.2-5.5c-0.2-2.4-0.2-4.2-0.2-5.3
			c0-2.2,0.8-4.2,2.4-5.6c1.6-1.4,3.5-2.2,5.9-2.2c5.1,0,7.9,3,8.3,9.3v0.6c5.8-5.8,11.9-8.7,18.1-8.7c7.4,0,12.5,3,15.4,9.3
			c1.9,4.2,2.9,10.4,2.9,18.8v4.2c0,1.8,0,3,0,3.8c0,3,0.5,7.1,1.3,11.9c0.8,4.8,1.3,8.8,1.3,11.9c0,2.2-0.8,4-2.4,5.5
			C751.1,105.3,749.2,106.1,746.9,106.1z"/>
		<path d="M746.9,106.9c-5.3,0-8.3-2.7-8.8-7.9c-0.5-4-1.1-8.2-1.6-12.2c-0.6-4.3-1-8.5-1-12.3c0-1.1,0-2.9,0.2-5.3
			c0.2-2.6,0.2-4.2,0.2-5.1c0-0.3,0-1,0.2-2.1c0-1.1,0.2-1.9,0.2-2.7c0-1.9-0.3-4.2-1.6-4.2c-3,0-6.3,2.1-9.3,6.3
			c-3.2,4.2-5.6,9.6-7.4,16.2c0,1.3-0.3,3.2-0.5,5.3c-0.2,1.8-0.3,3.5-0.3,5.3c0,1.1-0.2,2.9-0.3,5.1c-0.3,2.2-0.3,3.8-0.3,5
			c0,2.6-0.8,4.6-2.6,6.3c-1.8,1.6-3.8,2.6-6.4,2.6c-2.6,0-4.6-0.8-6.4-2.4c-1.8-1.6-2.6-3.7-2.6-6.3c0-1.1-0.2-2.7-0.3-5
			c-0.3-2.2-0.3-4-0.3-5.1c0-3.8,0.3-9.3,0.8-16c0.5-6.7,0.8-12.2,0.8-16c0-1.1,0-2.9-0.2-5.3c-0.2-2.4-0.2-4.2-0.2-5.3
			c0-2.4,1-4.5,2.7-6.1c1.8-1.6,3.8-2.4,6.4-2.4c3.7,0,8.2,1.6,9,9c5.5-5.1,11.4-7.7,17.5-7.7c7.7,0,13.1,3.4,16.2,9.8
			c1.9,4.3,2.9,10.6,2.9,19.1v4.2c0,1.8,0,3,0,3.8c0,3,0.5,6.9,1.3,11.7c0.8,4.8,1.3,8.8,1.3,11.9c0,2.4-0.8,4.5-2.6,6.1
			C751.6,106.1,749.3,106.9,746.9,106.9z M734.6,53.5c2.1,0,3.2,1.9,3.2,5.8c0,0.8,0,1.6-0.2,2.7c0,1.1-0.2,1.8-0.2,2.1
			c0,1,0,2.7-0.2,5.3c-0.2,2.4-0.2,4.2-0.2,5.1c0,3.7,0.3,7.9,0.8,12c0.5,4.2,1.1,8.2,1.6,12.2c0.5,4.3,2.9,6.4,7.2,6.4
			c2.1,0,3.8-0.6,5.3-1.9c1.4-1.3,2.1-2.9,2.1-5c0-3-0.5-6.9-1.3-11.7c-0.8-4.8-1.3-8.8-1.3-12c0-0.8,0-2.1,0-3.8v-4.2
			c0-8.2-1-14.3-2.7-18.4c-2.7-5.9-7.5-8.8-14.6-8.8c-6.1,0-12,2.9-17.6,8.5l-1.3,1.3l-0.2-2.4c-0.3-5.8-2.7-8.5-7.5-8.5
			c-2.1,0-3.8,0.6-5.3,1.9c-1.4,1.3-2.1,2.9-2.1,5c0,1.1,0,2.9,0.2,5.3c0.2,2.4,0.2,4.2,0.2,5.5c0,3.8-0.3,9.3-0.8,16
			c-0.5,6.7-0.8,12.2-0.8,16c0,1.1,0.2,2.7,0.3,5c0.3,2.2,0.3,4,0.3,5.1c0,2.1,0.6,3.7,2.1,5.1c1.4,1.3,3,2.1,5.3,2.1
			s3.8-0.6,5.3-2.1c1.4-1.4,2.1-3,2.1-5.1c0-1.1,0.2-2.9,0.3-5.1c0.3-2.2,0.3-4,0.3-5c0-1.8,0.2-3.5,0.3-5.5c0.3-2.1,0.5-4,0.5-5.3
			V77c1.9-6.7,4.5-12.3,7.7-16.7C727.4,55.8,730.9,53.5,734.6,53.5z"/>
	</g>
	<g>
		<path d="M808.8,63.8c-0.3,0.2-3.5,2.4-9.8,6.9c-4,2.7-7.1,5.3-9.1,7.5c-1.9,2.1-4,3.2-6.3,3.2c-2.2,0-4.2-0.8-5.9-2.4
			c-1.8-1.6-2.6-3.5-2.6-5.6c0-3.2,2.6-6.7,7.5-10.6c4.6-3.4,9.3-6.6,14.1-9.9c5.1-3.8,7.5-7.4,7.5-10.4c0-3.7-1.9-7.1-5.6-10.3
			c-3.7-3.2-7.5-4.8-11.5-4.8c-2.1,0-5,1.3-8.7,3.7c-3.7,2.4-6.3,3.7-7.9,3.7c-2.2,0-4.3-0.8-5.9-2.6c-1.6-1.8-2.4-3.7-2.4-5.8
			c0-4,3.4-7.5,10.3-10.7c5.8-2.7,10.6-4.2,14.6-4.2c8.5,0,16.2,3.2,23.1,9.5s10.4,13.5,10.4,21.6C821,50.3,816.8,57.6,808.8,63.8z
			 M780.4,106.1c-2.2,0-4.3-0.6-6.1-2.1c-2.1-1.6-3-3.5-3-5.8c0-2.7,0.8-5.1,2.4-7.4c1.9-2.7,4.5-4.2,7.5-4.2c2.7,0,4.8,1,6.3,3
			c1.1,1.6,1.8,3.5,1.8,5.8c0,2.4-0.6,4.6-1.9,6.7C785.7,104.8,783.5,106.1,780.4,106.1z"/>
		<path d="M780.4,106.9c-2.4,0-4.6-0.8-6.6-2.2c-2.2-1.8-3.4-3.8-3.4-6.4c0-2.9,0.8-5.5,2.6-7.9c2.1-3,4.8-4.5,8.3-4.5
			c2.9,0,5.3,1.1,6.9,3.4c1.3,1.8,1.9,3.8,1.9,6.3c0,2.6-0.6,5-2.1,7.2C786.4,105.5,783.8,106.9,780.4,106.9z M781.4,87.4
			c-2.9,0-5.1,1.3-6.9,3.8c-1.4,2.1-2.2,4.5-2.2,7.1c0,2.1,1,3.8,2.7,5.3c1.8,1.3,3.5,1.9,5.6,1.9c2.7,0,4.6-1.1,6.3-3.7
			c1.3-1.9,1.8-4,1.8-6.3c0-2.1-0.5-3.8-1.6-5.5C785.6,88.3,783.8,87.4,781.4,87.4z M783.8,82.1c-2.4,0-4.6-1-6.4-2.7
			c-1.9-1.8-2.7-3.8-2.7-6.3c0-3.4,2.6-7.1,7.9-11.2c4.6-3.4,9.5-6.6,14.1-9.9c4.8-3.7,7.2-6.9,7.2-9.8c0-3.4-1.8-6.7-5.3-9.6
			c-3.5-3-7.2-4.6-11.1-4.6c-1.9,0-4.8,1.1-8.3,3.5c-3.8,2.6-6.6,3.7-8.3,3.7c-2.6,0-4.6-1-6.4-2.9s-2.6-4-2.6-6.3
			c0-4.3,3.7-8.2,10.7-11.5c5.9-2.9,10.9-4.3,14.9-4.3c8.7,0,16.7,3.2,23.7,9.6c7.1,6.4,10.6,13.9,10.6,22.3s-4.2,15.7-12.3,22.1
			l0,0c-0.3,0.2-3.5,2.4-9.8,6.9c-3.8,2.7-6.9,5.3-9,7.5C788.6,81,786.2,82.1,783.8,82.1z M787.5,26.5c4.2,0,8.3,1.6,12.2,5
			s5.9,7.1,5.9,10.9c0,3.4-2.6,7.1-7.9,11.1c-4.6,3.4-9.5,6.7-14.1,9.9c-4.8,3.7-7.2,7.1-7.2,9.9c0,1.9,0.8,3.5,2.2,5.1
			c1.6,1.4,3.4,2.2,5.3,2.2c2.1,0,3.8-1,5.6-2.9c2.1-2.4,5.3-5,9.3-7.7c6.1-4.3,9.3-6.6,9.8-6.9c7.9-6.1,11.7-13.1,11.7-20.8
			c0-7.9-3.4-14.9-10.1-21c-6.7-6.1-14.3-9.3-22.6-9.3c-3.7,0-8.5,1.4-14.1,4.2c-6.6,3-9.9,6.6-9.9,10.1c0,1.9,0.6,3.5,2.2,5.1
			c1.4,1.6,3.2,2.2,5.3,2.2c1,0,3-0.6,7.4-3.5C782,27.6,785.1,26.5,787.5,26.5z"/>
	</g>
</g>
<g>
	<g>
		<path class="st0" d="M119,19.9c-0.6,1.6-1.4,3.5-2.4,5.9c-0.6,2.2-1.8,5.6-3.2,10.1c-2.2,5.8-5.8,14.3-10.7,25.2
			c-5,11.2-8.5,19.7-10.7,25.2c-1.6,4.2-3.2,7.4-4.5,9.9c-1.9,3.2-4.6,5-8.5,5c-2.2,0-4.3-0.6-6.1-1.8c-2.1-1.4-3.2-3.2-3.4-5.6
			c-1.8-4.5-2.9-8.2-3.4-11.1c-1.8-8.3-4.2-21-7.2-38c-2.6,7.9-5.3,15.1-8.3,21.3c-4.3,9.5-7.4,16.8-8.7,22.3
			c0.3,0.8,0.5,1.8,0.5,2.7c0,2.4-1.1,4.5-3.2,5.9c-1.9,1.3-4,1.9-6.3,1.9c-2.9,0-5.3-0.8-7.2-2.2c-2.1-1.6-3-3.8-3.2-6.6l-1.8-6.9
			c-1.3-6.1-3.4-15.2-6.4-27.4c-2.6-9.3-6.9-22.6-13-39.8c-0.3-1-0.5-1.9-0.5-2.9c0-2.4,1-4.2,2.7-5.6c1.6-1.3,3.5-1.9,5.8-1.9
			c3,0,5.3,1.3,7.2,3.8c1,1.4,2.1,3.8,3.4,7.5c3.8,11.1,8.2,27.3,13,48.4c3.2-7.7,6.4-16.7,9.6-27.1c2.6-8.5,4.8-14.6,6.4-18.1
			c4-8.5,8-12.8,12-12.8c3.8,0,6.7,2.1,8.5,6.3c0.8,2.1,1.8,5.6,2.6,10.9c0.2,1.6,0.8,5.6,1.6,11.9c0.8,6.7,3.4,19.1,7.4,36.9
			c4.2-9.8,9.8-23.9,16.8-42.2c0.5-1.1,1.4-4.6,3-10.9c1.1-4.3,2.6-7.9,4.3-10.4c1.9-2.7,4.3-4.2,7.5-4.2c2.4,0,4.3,0.8,5.9,2.2
			c1.6,1.4,2.4,3.4,2.4,5.8C121,14.3,120.4,16.4,119,19.9z"/>
		<path d="M79,102c-2.4,0-4.6-0.6-6.6-1.9c-2.2-1.6-3.5-3.5-3.7-6.1c-1.8-4.5-2.9-8.3-3.4-11.2c-1.6-7.9-3.8-19.6-6.6-34.8
			c-2.2,6.7-4.8,13-7.4,18.4c-4.3,9.1-7.2,16.5-8.5,21.8c0.3,1,0.5,1.8,0.5,2.9c0,2.7-1.3,5-3.5,6.6c-2.1,1.4-4.3,2.1-6.7,2.1
			c-3,0-5.6-0.8-7.7-2.4c-2.2-1.8-3.4-4.2-3.5-7.1l-1.8-6.9c-1.3-6.1-3.4-15.4-6.4-27.6c-2.7-9.1-7.1-22.4-13.1-39.6
			C0.3,15.1,0,14.1,0,13c0-2.6,1-4.6,3-6.3c1.8-1.3,3.8-2.1,6.3-2.1c3.2,0,5.9,1.4,7.9,4.2c1,1.4,2.2,4,3.5,7.7
			c3.7,10.6,7.9,26.1,12.5,46c2.9-7.1,5.8-15.4,8.7-24.7c2.6-8.5,4.8-14.6,6.4-18.3c4.2-9,8.3-13.3,12.8-13.3c4.2,0,7.2,2.2,9.1,6.7
			c1,2.1,1.8,5.8,2.6,11.1c0.3,1.6,0.8,5.6,1.6,11.9c0.8,6.4,3,18,6.9,34.5c4-9.6,9.3-22.9,15.9-39.9c0.5-1.1,1.4-4.6,3-10.7
			c1.1-4.5,2.6-8,4.5-10.7c2.1-3,4.8-4.5,8.2-4.5c2.6,0,4.8,0.8,6.6,2.4c1.8,1.6,2.6,3.7,2.6,6.3c0,0.6-0.2,1.9-2.1,6.7l0,0
			c-0.6,1.6-1.4,3.5-2.4,5.9c-0.6,2.2-1.8,5.6-3.2,10.1c-2.2,5.8-5.8,14.3-10.7,25.3c-5,11.2-8.7,19.7-10.7,25.2
			c-1.6,4.2-3.2,7.5-4.6,9.9C86.1,100.2,83,102,79,102z M59,41.4l0.6,3.2c3,16.8,5.5,29.5,7.2,37.8c0.5,2.9,1.6,6.6,3.4,10.9v0.3
			c0.2,2.1,1.1,3.7,3,5c1.6,1.1,3.5,1.8,5.6,1.8c3.5,0,6.1-1.4,7.7-4.5c1.4-2.4,2.9-5.8,4.5-9.8c2.1-5.5,5.8-13.9,10.7-25.2
			c4.8-10.9,8.5-19.4,10.7-25.2c1.4-4.3,2.6-7.9,3.2-10.1c1-2.4,1.8-4.5,2.4-6.1c1.8-4.3,2.1-5.6,2.1-6.1c0-2.1-0.6-3.8-2.1-5.1
			c-1.4-1.3-3.2-1.9-5.5-1.9c-2.9,0-5.1,1.3-6.9,3.8c-1.6,2.4-3,5.9-4.2,10.3c-1.6,6.3-2.7,9.8-3,10.9c-7.1,18.1-12.7,32.4-16.8,42
			l-1,2.2l-0.5-2.4c-4.2-17.8-6.6-30.3-7.4-37c-0.8-6.1-1.3-10.3-1.6-11.9c-0.8-5.1-1.6-8.8-2.4-10.7c-1.6-3.8-4.2-5.8-7.7-5.8
			c-3.7,0-7.5,4.2-11.4,12.3c-1.6,3.5-3.8,9.6-6.4,18c-3.2,10.4-6.6,19.6-9.6,27.3l-1,2.4l-0.6-2.4c-4.8-21.2-9.1-37.4-13-48.4
			C18,13.5,17,11.1,16,9.8c-1.6-2.2-3.7-3.4-6.4-3.4c-2.1,0-3.8,0.6-5.3,1.8c-1.6,1.3-2.4,2.9-2.4,5c0,1,0.2,1.8,0.5,2.7
			c5.8,17,10.3,30.3,12.8,39.6C18.1,67.7,20.4,77,21.6,83l1.9,7.1c0,2.6,1,4.5,2.9,5.9c1.8,1.3,4,2.1,6.6,2.1c2.1,0,4-0.6,5.8-1.8
			c1.9-1.4,2.9-3,2.9-5.3c0-0.8-0.2-1.8-0.5-2.4L41,88.3V88c1.4-5.5,4.3-13,8.7-22.4c2.9-6.3,5.6-13.3,8.2-21.2L59,41.4z"/>
	</g>
	<g>
		<path class="st0" d="M147,41.5c2.9-2.9,5.9-5,9.3-6.4c3.2-1.4,6.7-2.1,10.6-2.1c6.7,0,11.5,1.9,14.6,5.6c2.2,2.9,3.5,7.2,4,13
			c0.2,4.8,0.5,9.6,0.6,14.6c0.6,6.4,1,10.3,1.1,11.5c0.5,4.3,1.3,8.2,2.1,11.4c0.2,0.8,0.3,1.6,0.3,2.2c0,2.2-0.8,4-2.6,5.5
			c-1.8,1.4-3.7,2.1-5.9,2.1c-4,0-6.6-1.9-7.7-5.9c-1-3.2-1.8-7.7-2.6-13.5c-0.6-5.6-1.1-10.1-1.1-13.6c0-1,0-2.4,0.2-4.5
			c0.2-1.9,0.2-3.5,0.2-4.5c0-2.9,0-4.6-0.2-5.1c-0.3-2.1-1.4-3.2-3-3.2c-4.3,0-8.3,2.1-11.9,6.1c-1.8,2.1-4.3,5.8-7.4,11.4
			c0,14.3-0.6,22.8-2.1,25.7c-1.6,3.2-4,4.8-7.4,4.8c-2.2,0-4.2-0.8-5.9-2.2c-1.8-1.4-2.6-3.4-2.6-5.5c0-0.8,0.2-1.8,0.6-3.2
			c0.3-0.8,0.5-6.3,0.6-15.9c-0.2-7.9-0.2-21,0.2-39.4l0.2-1.9c0.2-4.6,0.3-7.7,0.3-9.3c0-1.3-0.2-3-0.5-5.5s-0.5-4.2-0.5-5.5
			c0-2.2,0.8-4,2.4-5.5c1.6-1.4,3.5-2.1,5.8-2.1c3.8,0,6.6,2.1,7.9,6.3c0.8,2.4,1.1,5.9,1.1,10.9c0,4-0.2,7.9-0.3,12
			C147.2,34,147,37.7,147,41.5z"/>
		<path d="M181.2,100c-4.3,0-7.2-2.2-8.5-6.4c-1-3.2-1.8-7.9-2.6-13.6c-0.6-5.6-1.1-10.3-1.1-13.8c0-1,0-2.4,0.2-4.5
			c0.2-2.1,0.2-3.5,0.2-4.5c0-3.7,0-4.6-0.2-5c-0.3-2.2-1.4-2.6-2.2-2.6c-4.2,0-7.9,1.9-11.2,5.8c-1.8,1.9-4.2,5.6-7.2,11.1
			c0,14.4-0.6,22.8-2.1,25.8c-1.6,3.5-4.3,5.3-8,5.3c-2.4,0-4.5-0.8-6.4-2.4c-1.9-1.6-2.9-3.7-2.9-6.1c0-0.8,0.2-1.9,0.6-3.4
			c0.2-0.5,0.5-3,0.6-15.7c-0.2-7.9-0.2-21.2,0.2-39.4l0.2-1.9c0.2-4.6,0.3-7.7,0.3-9.3c0-1.1-0.2-2.9-0.5-5.3
			c-0.3-2.4-0.6-4.3-0.6-5.5c0-2.4,1-4.5,2.7-6.1s3.8-2.4,6.4-2.4c4.3,0,7.2,2.2,8.7,6.7c0.8,2.4,1.1,6.1,1.1,11.1c0,4-0.2,8-0.3,12
			c-0.2,3.2-0.3,6.4-0.3,9.6c2.6-2.2,5.3-4,8.2-5.3c3.4-1.4,7.1-2.1,10.9-2.1c6.9,0,12,2.1,15.1,5.9c2.2,2.9,3.7,7.5,4.2,13.5
			c0.2,4.8,0.5,9.8,0.6,14.6c0.6,6.3,1,10.1,1.1,11.5c0.5,4.3,1.3,8.2,1.9,11.4c0.2,1,0.3,1.6,0.3,2.4c0,2.4-1,4.5-2.7,6.1
			C185.7,99.2,183.6,100,181.2,100z M166.9,48.1c1.4,0,3.4,0.6,3.8,3.8c0,0.3,0.2,1.3,0.2,5.1c0,1,0,2.4-0.2,4.5
			c-0.2,1.9-0.2,3.5-0.2,4.5c0,3.5,0.3,8,1.1,13.6c0.8,5.8,1.6,10.3,2.6,13.3c1.1,3.5,3.4,5.3,6.9,5.3c2.1,0,3.8-0.6,5.3-1.9
			c1.4-1.3,2.2-2.9,2.2-4.8c0-0.6-0.2-1.3-0.3-1.9c-0.8-3.2-1.4-7.2-2.1-11.5c-0.2-1.4-0.5-5.3-1.1-11.5c-0.2-5-0.5-9.8-0.6-14.6
			c-0.5-5.6-1.8-9.9-3.8-12.5c-2.7-3.5-7.4-5.3-13.9-5.3c-3.7,0-7.1,0.6-10.3,2.1c-3.2,1.3-6.3,3.4-9,6.3l-1.3,1v-1.9
			c0-3.8,0.2-7.7,0.3-11.5c0.2-4,0.3-8,0.3-11.9c0-4.8-0.3-8.3-1.1-10.6c-1.3-3.8-3.5-5.8-7.1-5.8c-2.1,0-3.8,0.6-5.3,1.9
			c-1.4,1.3-2.1,2.9-2.1,5c0,1.1,0.2,2.9,0.5,5.3c0.3,2.4,0.6,4.3,0.6,5.5c0,1.6-0.2,4.8-0.3,9.3l-0.2,1.9
			c-0.2,18.4-0.3,31.7,0,39.6c-0.3,14.7-0.6,15.9-0.8,16.2c-0.5,1.3-0.6,2.2-0.6,2.9c0,1.9,0.8,3.5,2.2,4.8c1.6,1.3,3.4,2.1,5.3,2.1
			c3,0,5.1-1.4,6.6-4.3c1.3-2.7,1.9-11.4,1.9-25.3v-0.2l0.2-0.2c3.2-5.8,5.6-9.5,7.5-11.5C158.1,50.2,162.2,48.1,166.9,48.1z"/>
	</g>
	<g>
		<path class="st0" d="M223.6,98.9c-7.2,0-13.5-2.6-18.8-7.5c-5.8-5.5-8.8-12.8-9-22c-0.3-8.7,2.1-16.5,7.2-23.2
			c5.9-8,14.3-12,25-12c7.9,0,14.1,3.2,18.8,9.5c4.2,5.6,6.3,12.7,6.3,21c0,9.1-2.4,16.8-7.4,23.4C240.2,95.4,232.8,98.9,223.6,98.9
			z M227.2,49.9c-4.8,0-8.7,2.1-11.4,6.6c-2.4,3.7-3.5,8.2-3.5,13.1c0,4.6,1.3,8.3,4,10.9c2.1,2.1,4.6,3,7.4,3c3.4,0,6.4-1.1,9-3.5
			c2.9-2.7,4.3-6.4,4.6-11.1C237.6,56.3,234.4,50,227.2,49.9z"/>
		<path d="M223.6,99.7c-7.5,0-13.9-2.6-19.2-7.7c-5.9-5.6-9-13.1-9.3-22.4c-0.3-8.8,2.2-16.8,7.4-23.7c6.1-8.2,14.7-12.3,25.7-12.3
			c8,0,14.6,3.2,19.4,9.8c4.3,5.8,6.4,13,6.4,21.5c0,9.3-2.6,17.3-7.5,23.9C240.6,96,233.1,99.7,223.6,99.7z M228,35.1
			c-10.4,0-18.6,4-24.4,11.7c-5,6.6-7.2,14.3-7.1,22.8c0.3,8.8,3.2,16,8.8,21.3c5.1,4.8,11.2,7.2,18.3,7.2c8.8,0,16-3.5,21.3-10.4
			c4.8-6.3,7.2-13.9,7.2-22.9c0-8.2-2.1-15.1-6.1-20.5C241.6,38.2,235.5,35.1,228,35.1z M223.6,84.3c-3,0-5.8-1.1-8-3.2
			c-2.9-2.7-4.3-6.6-4.3-11.4c0-5.1,1.3-9.6,3.7-13.5c2.9-4.6,7.1-7.1,12.2-7.1c2.7,0,5.1,1,6.9,2.7c3,3.2,4.3,8.7,4,17.2
			c-0.2,4.8-1.8,8.7-4.8,11.5C230.4,83,227.2,84.3,223.6,84.3z M227,50.7c-4.5,0-8,2.1-10.6,6.3c-2.2,3.5-3.4,7.9-3.4,12.7
			c0,4.5,1.3,7.9,3.7,10.3c1.9,1.9,4.2,2.7,6.9,2.7c3.2,0,5.9-1.1,8.3-3.2c2.7-2.6,4.2-6.1,4.3-10.4c0.3-7.9-0.8-13.1-3.5-16
			C231.3,51.5,229.6,50.7,227,50.7L227,50.7C227.2,50.7,227,50.7,227,50.7z"/>
	</g>
	<g>
		<path class="st0" d="M333.8,67.8c0,2.2,0,5.8,0.2,10.7c0.2,5,0.2,8.5,0.2,10.7c0,2.2-0.8,4.2-2.2,5.6c-1.4,1.4-3.5,2.2-5.8,2.2
			c-2.4,0-4.3-0.8-5.8-2.2c-1.4-1.4-2.2-3.4-2.2-5.6c0-2.2,0-5.8-0.2-10.7c-0.2-5-0.2-8.5-0.2-10.7c0-3.5,0.2-7.9,0.6-13.1
			c0.3-5.3,0.6-9.6,0.6-13.1c0-2.2,0.8-4.2,2.2-5.6s3.5-2.2,5.8-2.2c2.4,0,4.3,0.8,5.8,2.2s2.2,3.4,2.2,5.6c0,3.5-0.2,7.9-0.6,13.1
			C333.9,60,333.8,64.3,333.8,67.8z M328.7,24.5c-2.6,0-4.6-0.8-6.6-2.6s-2.7-3.7-2.7-6.3c0-2.4,1-4.5,2.7-6.3
			c1.8-1.8,4-2.6,6.6-2.6s4.6,0.8,6.6,2.6s2.7,3.7,2.7,6.3c0,2.4-1,4.5-2.7,6.3C333.5,23.7,331.2,24.5,328.7,24.5z"/>
		<path d="M325.9,98.1c-2.6,0-4.6-0.8-6.4-2.4c-1.8-1.6-2.6-3.7-2.6-6.3c0-2.2,0-5.8-0.2-10.7c-0.2-4.8-0.2-8.5-0.2-10.7
			c0-3.5,0.2-8,0.6-13.1c0.3-5.3,0.6-9.6,0.6-13.1c0-2.6,0.8-4.6,2.6-6.3c1.6-1.6,3.8-2.4,6.4-2.4s4.6,0.8,6.4,2.4
			c1.8,1.6,2.6,3.7,2.6,6.3c0,3.5-0.2,8-0.6,13.1c-0.3,5.3-0.6,9.6-0.6,13.1c0,2.2,0,5.9,0.2,10.7c0.2,5.1,0.2,8.7,0.2,10.7
			c0,2.6-0.8,4.6-2.6,6.3C330.7,97.3,328.5,98.1,325.9,98.1z M326.7,34.5c-2.1,0-3.8,0.6-5.3,1.9c-1.4,1.3-2.1,3-2.1,5.1
			c0,3.5-0.2,8-0.6,13.1c-0.3,5.3-0.6,9.6-0.6,13.1c0,2.2,0,5.9,0.2,10.7c0.2,5,0.2,8.5,0.2,10.7c0,2.1,0.6,3.7,2.1,5.1
			c1.4,1.3,3,1.9,5.3,1.9c2.2,0,3.8-0.6,5.3-1.9c1.4-1.3,2.1-3,2.1-5.1c0-2.2,0-5.8-0.2-10.7c-0.2-4.8-0.2-8.5-0.2-10.7
			c0-3.5,0.2-8,0.6-13.1c0.3-5.3,0.6-9.6,0.6-13.1c0-2.1-0.6-3.7-2.1-5.1C330.6,35.1,329,34.5,326.7,34.5z M328.7,25.3
			c-2.7,0-5.1-1-7.1-2.7c-2.1-1.8-3-4.2-3-6.7c0-2.7,1-5,3-6.7c1.9-1.8,4.3-2.7,7.1-2.7s5.1,1,7.1,2.7s3,4.2,3,6.7c0,2.7-1,5-3,6.7
			C333.8,24.5,331.4,25.3,328.7,25.3z M328.7,7.9c-2.4,0-4.3,0.8-5.9,2.4c-1.8,1.6-2.6,3.4-2.6,5.6s0.8,4,2.6,5.6
			c1.8,1.6,3.7,2.4,5.9,2.4c2.4,0,4.3-0.8,5.9-2.2c1.6-1.6,2.6-3.4,2.6-5.6s-0.8-4-2.6-5.6C333,8.7,331.1,7.9,328.7,7.9z"/>
	</g>
	<g>
		<path class="st0" d="M390.7,52.3c-3.8,0-6.3-1.6-7.1-5c-1.6-0.3-3.2-0.5-4.8-0.5c-9.5,0-14.3,1.3-14.3,3.8c0,1.6,2.9,3.5,8.5,6.3
			c7.9,3.5,13,6.4,15.9,8.3c5.8,4.2,8.5,8.8,8.5,13.9c0,6.7-3.2,11.9-9.5,15.4c-5.1,2.7-11.4,4.2-18.8,4.2c-5.3,0-9.9-0.8-14.3-2.4
			c-5.9-2.2-8.8-5.5-8.8-9.8c0-4,2.4-5.9,7.1-5.9c1.8,0,4.5,0.6,7.9,1.8c3.4,1.1,6.1,1.8,7.9,1.8c8,0,12-1.6,12-4.8
			c0-2.1-2.7-4.2-8.3-6.7c-8.2-3.5-13.3-6.1-15.6-7.7c-5.6-3.8-8.3-8.7-8.3-14.3c0-7.9,4.2-13.3,12.5-16c5-1.6,12.3-2.4,22.4-2.4
			c4,0,6.9,0.5,8.7,1.6c2.6,1.4,3.8,3.8,3.8,7.5C396.3,48.7,394.4,52.3,390.7,52.3z"/>
		<path d="M369.4,99.9c-5.3,0-10.3-0.8-14.6-2.4c-6.3-2.2-9.3-5.8-9.3-10.4c0-3,1.3-6.7,7.9-6.7c1.9,0,4.5,0.6,8.2,1.8
			c3.4,1.1,5.9,1.6,7.7,1.6c5.1,0,11.2-0.6,11.2-4c0-1-1-2.9-7.9-5.9c-8.2-3.7-13.3-6.3-15.7-7.9c-5.8-4-8.7-9-8.7-14.9
			c0-8.2,4.5-13.9,13.1-16.7c5-1.6,12.7-2.4,22.6-2.4c4.2,0,7.1,0.5,9.1,1.6c2.9,1.4,4.3,4.3,4.3,8.3c0,7.5-2.2,11.4-6.6,11.4
			c-5,0-6.9-2.6-7.7-5c-1.4-0.2-2.7-0.3-4.2-0.3c-12.2,0-13.5,2.1-13.5,3c0,0.5,0.6,2.1,8,5.5c7.9,3.7,13.1,6.4,15.9,8.5
			c5.9,4.3,8.8,9.1,8.8,14.6c0,7.1-3.4,12.5-9.8,16C383.3,98.4,376.9,99.9,369.4,99.9z M353.2,81.8c-4.2,0-6.3,1.6-6.3,5.1
			c0,4,2.7,6.9,8.3,9c4.2,1.6,9,2.4,14.1,2.4c7.2,0,13.3-1.4,18.3-4.2c6.1-3.4,9-8.2,9-14.7c0-5-2.7-9.5-8.2-13.3
			c-2.7-1.9-8-4.8-15.7-8.3c-8-3.7-9-5.6-9-6.9c0-3.2,4.8-4.6,15.1-4.6c1.8,0,3.4,0.2,5,0.5l0.5,0.2l0.2,0.5
			c0.6,2.9,2.7,4.3,6.3,4.3c1.3,0,5,0,5-9.8c0-3.4-1.1-5.6-3.5-6.9c-1.8-1-4.6-1.4-8.3-1.4c-9.9,0-17.3,0.8-22.1,2.4
			c-8,2.7-12,7.7-12,15.2c0,5.3,2.7,9.8,8,13.6c2.2,1.6,7.4,4.2,15.4,7.7c5.9,2.6,8.8,5,8.8,7.4c0,3.8-4.2,5.6-12.8,5.6
			c-1.9,0-4.6-0.6-8.2-1.8C357.5,82.4,354.9,81.8,353.2,81.8z"/>
	</g>
	<g>
		<path class="st0" d="M516.6,21.8c-1,0-1.9-0.2-3-0.5c-5.1-1.6-11.2-2.4-18.6-2.4c-2.4,0-5.1,0.2-8.3,0.5
			c-3.2,0.3-6.6,0.8-10.4,1.4c0,7.5,0,14.1,0,19.4c5.9-1.4,10.9-2.2,14.9-2.2c7.4,0,13.6,0.3,19.1,1c5.1,0.6,7.5,3.4,7.5,8
			c0,2.2-0.8,4.2-2.4,5.8s-3.5,2.2-5.9,2.2c-2.1,0-5.1-0.2-9.1-0.5c-4.2-0.3-7.2-0.5-9.1-0.5c-2.9,0-7.9,1-14.9,2.7v37
			c0,2.2-1,4.2-2.7,5.8s-3.8,2.2-6.1,2.2s-4.2-0.8-5.6-2.2s-2.1-3.4-2.1-5.8V26.1c0-1.6,0-3.8,0.2-6.9c0-3,0.2-5.5,0.2-6.9
			c0-2.2,0.8-4.2,2.4-5.8c1.6-1.6,3.5-2.2,5.9-2.2c1.4,0,2.9,0.3,4,1c4.5-0.8,8.8-1.4,12.5-1.8C488.7,3.2,492,3,495.1,3
			c4.5,0,10.1,1,17,2.7c8.5,2.2,12.8,5,12.8,8c0,2.2-0.8,4.2-2.4,5.8C520.7,21,518.8,21.8,516.6,21.8z"/>
		<path d="M467.5,102.6c-2.6,0-4.5-0.8-6.1-2.6c-1.6-1.6-2.4-3.8-2.4-6.3V26.1c0-1.6,0-3.8,0.2-7.1c0-3,0.2-5.5,0.2-6.9
			c0-2.6,0.8-4.6,2.6-6.4c1.8-1.6,3.8-2.6,6.4-2.6c1.4,0,2.9,0.3,4,0.8c4.5-0.8,8.7-1.3,12.3-1.8c3.8-0.3,7.4-0.6,10.4-0.6
			c4.5,0,10.3,1,17.2,2.7c9,2.4,13.5,5.3,13.5,8.8c0,2.4-0.8,4.6-2.6,6.4c-1.8,1.8-3.8,2.7-6.3,2.7c-1,0-2.1-0.2-3.2-0.6
			c-5-1.6-11.1-2.4-18.3-2.4c-2.4,0-5.1,0.2-8.2,0.5c-2.9,0.3-6.1,0.8-9.6,1.3c0,6.7,0,12.7,0,17.8c5.6-1.3,10.3-1.9,14.1-1.9
			c7.4,0,13.8,0.3,19.2,1c5.5,0.6,8.3,3.7,8.3,8.8c0,2.6-1,4.6-2.7,6.3c-1.8,1.6-4,2.6-6.4,2.6c-2.1,0-5.1-0.2-9.3-0.5
			c-4-0.3-7.2-0.5-9.1-0.5c-2.7,0-7.4,0.8-14.1,2.6v36.4c0,2.6-1,4.6-2.9,6.3C472.1,101.8,469.9,102.6,467.5,102.6z M468.1,5
			c-2.1,0-3.8,0.6-5.3,2.1c-1.4,1.4-2.1,3-2.1,5.3c0,1.6,0,3.8-0.2,7.1c0,3-0.2,5.5-0.2,6.9v67.7c0,2.1,0.6,3.8,1.9,5.1
			c1.3,1.3,2.9,2.1,5,2.1c2.1,0,4-0.6,5.6-2.1c1.6-1.4,2.4-3,2.4-5.1V56.1L476,56c7.2-1.8,12-2.7,15.1-2.7c2.1,0,5.1,0.2,9.3,0.5
			c4,0.3,7.1,0.5,9.1,0.5c2.1,0,3.8-0.6,5.3-2.1s2.2-3,2.2-5.1c0-4.3-2.2-6.6-6.9-7.2c-5.5-0.6-11.7-1-19.1-1
			c-3.8,0-8.8,0.8-14.7,2.1l-1,0.3v-1c0-5.5,0-11.9,0-19.4v-0.6L476,20c3.8-0.6,7.4-1.1,10.4-1.4c3.2-0.3,5.9-0.5,8.3-0.5
			c7.4,0,13.6,0.8,18.8,2.6c1,0.3,1.9,0.5,2.7,0.5c2.1,0,3.7-0.6,5.1-2.2c1.4-1.4,2.1-3.2,2.1-5.3c0-1.8-2.1-4.5-12.2-7.4
			c-6.7-1.8-12.3-2.7-16.7-2.7c-3,0-6.4,0.2-10.3,0.5c-3.8,0.3-8,1-12.5,1.8h-0.3l-0.2-0.2C470.7,5.1,469.6,5,468.1,5z"/>
	</g>
	<g>
		<path class="st0" d="M585.3,61.4c0,2.6,0,6.6,0,11.9c0,5.3,0,9.3,0,11.9c0,0.8,0,2.1,0.2,3.7c0.2,1.6,0.2,2.9,0.2,3.7
			c0,2.2-0.8,4-2.4,5.5c-1.6,1.4-3.5,2.1-5.9,2.1c-3.2,0-5.6-1.4-7.2-4.5c-5,1.9-10.3,2.7-15.7,2.7c-5.6,0-10.3-1.1-14.1-3.5
			c-4.3-2.7-6.9-6.6-7.7-11.9c-1.6-9.8-2.2-18.6-2.2-26.3c0-5.1,0.6-10.9,1.8-17.5c0.8-4.5,3.4-6.6,8-6.6c2.2,0,4.2,0.6,5.8,2.1
			s2.4,3.2,2.4,5.5c0,1.8-0.3,4.5-0.8,8c-0.6,3.7-0.8,6.4-0.8,8.3c0,5.5,0.2,10.3,0.5,14.4c0.3,4.2,1,7.5,1.6,10.3
			c1,0.5,1.9,0.8,2.9,1c1,0.2,1.8,0.3,2.7,0.3c4.3,0,9.1-0.6,14.4-1.9c0-3,0-6.4,0-10.3c0-4.6-0.2-7.9-0.2-9.9
			c0-8,0.3-15.1,1.1-20.8c0.6-4.6,3.2-7.1,8-7.1c2.2,0,4.3,0.8,5.9,2.2s2.4,3.2,2.2,5.5C585.6,55.6,585.3,62.5,585.3,61.4z"/>
		<path d="M577.6,101c-3.4,0-5.9-1.4-7.5-4.2c-5,1.8-10.1,2.6-15.2,2.6c-5.8,0-10.6-1.3-14.6-3.7c-4.5-2.9-7.2-6.9-8-12.3
			c-1.6-9.8-2.2-18.6-2.2-26.3c0-5.1,0.6-11.1,1.8-17.6c0.8-4.8,3.8-7.2,8.8-7.2c2.4,0,4.6,0.8,6.4,2.4c1.8,1.6,2.7,3.5,2.7,6.1
			c0,1.8-0.3,4.5-0.8,8.2c-0.6,3.7-0.8,6.4-0.8,8.2c0,5.5,0.2,10.3,0.5,14.4c0.3,3.8,0.8,7.1,1.6,9.8c0.8,0.3,1.6,0.6,2.4,0.8
			c0.8,0.2,1.8,0.3,2.6,0.3c4.2,0,8.7-0.6,13.6-1.8c0-2.9,0-6.1,0-9.6c0-4.6-0.2-7.9-0.2-9.9c0-8,0.3-15.1,1.1-21
			c0.6-5.1,3.7-7.7,8.8-7.7c2.6,0,4.6,0.8,6.4,2.4c1.8,1.6,2.7,3.7,2.6,6.1c-0.3,6.9-0.6,12.2-0.8,15.7c-0.2,2.7-0.2,4.3-0.3,5.1
			l0,0l0,0l0,0l0,0l0,0c0,2.6,0,6.6,0,11.9s0,9.3,0,11.9c0,0.8,0,2.1,0.2,3.7c0.2,1.6,0.2,2.9,0.2,3.7c0,2.4-1,4.5-2.7,6.1
			C582.3,100.2,580,101,577.6,101z M570.9,94.7l0.3,0.6c1.3,2.7,3.5,4,6.4,4c2.1,0,3.8-0.6,5.3-1.9c1.4-1.3,2.1-2.9,2.1-4.8
			c0-0.8,0-2.1-0.2-3.7s-0.2-2.9-0.2-3.7c0-2.6,0-6.6,0-11.9c0-5.3,0-9.3,0-11.9h0.2h-0.2c0-0.3,0.3-4.3,1.1-20.8
			c0.2-1.9-0.5-3.5-2.1-4.8c-1.4-1.3-3.4-1.9-5.5-1.9c-4.3,0-6.7,2.1-7.2,6.3c-0.8,5.8-1.1,12.8-1.1,20.8c0,1.9,0,5.3,0.2,9.9
			c0,3.8,0,7.4,0,10.3v0.6l-0.6,0.2c-5.3,1.3-10.1,1.9-14.6,1.9c-1,0-1.9-0.2-2.9-0.3c-1-0.2-1.9-0.6-3-1l-0.3-0.2l-0.2-0.3
			c-0.8-2.7-1.3-6.3-1.8-10.4c-0.3-4.2-0.6-9-0.6-14.6c0-1.9,0.3-4.8,0.8-8.5c0.5-3.7,0.8-6.3,0.8-8c0-1.9-0.6-3.5-2.1-4.8
			s-3.2-1.9-5.3-1.9c-4.2,0-6.4,1.9-7.2,5.9c-1.1,6.4-1.8,12.3-1.8,17.3c0,7.7,0.8,16.4,2.2,26.1c0.8,5,3.2,8.7,7.4,11.2
			c3.7,2.2,8.3,3.4,13.6,3.4s10.4-1,15.4-2.7L570.9,94.7z"/>
	</g>
	<g>
		<path class="st0" d="M646.1,98c-3,0-5.5-1.4-7.1-4.5c-1.9-3.5-4.8-7.9-8.7-12.7c-5.9-7.5-9.1-11.7-9.5-12
			c-3.2,2.2-5.8,4.2-7.9,5.3c-0.3,5.5-0.6,10.7-0.6,15.7c0,2.2-0.8,4.2-2.2,5.6c-1.6,1.4-3.5,2.2-5.8,2.2c-5.6,0-8.3-3.4-8.3-9.9
			c0-3,0.2-7.7,0.6-13.9s0.6-10.9,0.6-13.9c0-5.8,0.2-12.2,0.3-19.6s0.3-13.8,0.3-19.4c0-1.8-0.2-3.7-0.3-5.9
			c-0.2-2.2-0.3-4.3-0.3-5.9c0-2.2,0.8-4.2,2.2-5.6c1.6-1.4,3.5-2.2,5.8-2.2c2.4,0,4.3,0.8,5.8,2.2s2.2,3.4,2.2,5.6
			c0,1.8,0.2,3.8,0.3,6.1c0.2,2.4,0.3,4.3,0.3,6.1c0,4.6-0.2,10.3-0.3,16.7c-0.2,6.1-0.3,11.5-0.3,16.4c5.3-4.2,13.5-11.7,24.4-22.6
			c1.8-1.8,3.7-2.6,5.9-2.6c2.2,0,4.2,0.8,5.8,2.4c1.8,1.6,2.6,3.5,2.6,5.6c0,1.8-0.8,3.5-2.2,5.3c-4.6,5.1-10.1,10.6-16.5,16.4
			l12.3,15.9c5.9,7.9,9,13.1,9,15.9c0,2.1-0.8,4-2.6,5.5C650.3,97.2,648.3,98,646.1,98z"/>
		<path d="M646.1,98.8c-3.4,0-6.1-1.6-7.9-5c-1.9-3.5-4.8-7.7-8.7-12.5c-4.6-5.9-7.9-9.9-9-11.5c-2.7,1.9-5,3.5-6.9,4.6
			c-0.3,5.3-0.5,10.4-0.5,15.2c0,2.6-0.8,4.6-2.6,6.3c-1.6,1.6-3.8,2.4-6.4,2.4c-4.2,0-9.1-1.9-9.1-10.7c0-3,0.2-7.9,0.6-13.9
			c0.5-6.1,0.6-10.9,0.6-13.9c0-5.8,0.2-12.3,0.3-19.6c0.2-7.4,0.3-13.8,0.3-19.4c0-1.6-0.2-3.7-0.3-5.9c-0.2-2.2-0.3-4.3-0.3-6.1
			c0-2.6,0.8-4.6,2.6-6.3c1.6-1.6,3.8-2.4,6.4-2.4s4.6,0.8,6.4,2.4s2.6,3.7,2.6,6.3c0,1.8,0.2,3.7,0.3,6.1s0.3,4.5,0.3,6.3
			c0,4.6-0.2,10.3-0.3,16.7c-0.2,5.5-0.3,10.4-0.3,14.7c5.3-4.3,13-11.5,23.1-21.5c1.9-1.9,4-2.9,6.4-2.9c2.4,0,4.5,1,6.4,2.6
			c1.9,1.8,2.7,3.8,2.7,6.3c0,2.1-0.8,4-2.6,5.8c-4.5,5-9.9,10.4-16,15.9l11.9,15.2c6.1,8.2,9.1,13.5,9.1,16.4c0,2.4-1,4.5-2.9,6.1
			C650.6,98,648.5,98.8,646.1,98.8z M621.1,67.5l0.5,0.6c0.3,0.5,3.8,5,9.5,12c3.8,5,6.7,9.1,8.8,12.8c1.4,2.7,3.5,4,6.4,4
			c2.1,0,3.8-0.6,5.5-2.1c1.6-1.4,2.2-3,2.2-5c0-1.6-1.4-5.8-8.8-15.4l-12.7-16.4l0.6-0.5c6.4-5.6,11.9-11.1,16.5-16.2
			c1.4-1.6,2.1-3,2.1-4.6c0-1.9-0.8-3.5-2.2-5c-1.6-1.4-3.2-2.2-5.3-2.2c-1.9,0-3.7,0.8-5.3,2.4C628,43,619.8,50.5,614.3,54.7
			l-1.6,1.1v-1.6c0-4.8,0-10.3,0.3-16.5c0.2-6.4,0.3-12,0.3-16.7c0-1.8-0.2-3.7-0.3-6.1s-0.3-4.5-0.3-6.3c0-2.1-0.6-3.7-2.1-5.1
			c-1.4-1.3-3-1.9-5.3-1.9c-2.2,0-3.8,0.6-5.3,1.9s-2.1,3-2.1,5.1c0,1.6,0.2,3.7,0.3,5.9c0.2,2.2,0.3,4.3,0.3,6.1
			c0,5.6-0.2,12.2-0.3,19.4c-0.2,7.2-0.3,13.8-0.3,19.6c0,3-0.2,7.9-0.6,13.9c-0.5,6.1-0.6,10.7-0.6,13.9c0,6.1,2.4,9.1,7.5,9.1
			c2.1,0,3.8-0.6,5.3-2.1c1.4-1.3,2.1-3,2.1-5.1c0-5,0.2-10.3,0.6-15.7v-0.5l0.3-0.2c2.1-1.1,4.6-3,7.7-5.3L621.1,67.5z"/>
	</g>
	<g>
		<path class="st0" d="M680.2,67.8c0,2.2,0,5.8,0.2,10.7c0.2,5,0.2,8.5,0.2,10.7c0,2.2-0.8,4.2-2.2,5.6c-1.4,1.4-3.5,2.2-5.8,2.2
			c-2.4,0-4.3-0.8-5.8-2.2c-1.4-1.4-2.2-3.4-2.2-5.6c0-2.2,0-5.8-0.2-10.7s-0.2-8.5-0.2-10.7c0-3.5,0.2-7.9,0.6-13.1
			c0.3-5.3,0.6-9.6,0.6-13.1c0-2.2,0.8-4.2,2.2-5.6s3.5-2.2,5.8-2.2c2.4,0,4.3,0.8,5.8,2.2s2.2,3.4,2.2,5.6c0,3.5-0.2,7.9-0.6,13.1
			S680.2,64.3,680.2,67.8z M675.1,24.5c-2.6,0-4.6-0.8-6.6-2.6c-1.9-1.8-2.7-3.7-2.7-6.3c0-2.4,1-4.5,2.7-6.3c1.8-1.8,4-2.6,6.6-2.6
			s4.6,0.8,6.6,2.6c1.9,1.8,2.7,3.7,2.7,6.3c0,2.4-1,4.5-2.7,6.3C679.9,23.7,677.7,24.5,675.1,24.5z"/>
		<path d="M672.5,98.1c-2.6,0-4.6-0.8-6.4-2.4c-1.8-1.6-2.6-3.7-2.6-6.3c0-2.2,0-5.8-0.2-10.7c-0.2-4.8-0.2-8.5-0.2-10.7
			c0-3.5,0.2-8,0.6-13.1c0.3-5.3,0.6-9.6,0.6-13.1c0-2.6,0.8-4.6,2.6-6.3c1.6-1.6,3.8-2.4,6.4-2.4s4.6,0.8,6.4,2.4s2.6,3.7,2.6,6.3
			c0,3.5-0.2,8-0.6,13.1c-0.3,5.3-0.6,9.6-0.6,13.1c0,2.2,0,5.9,0.2,10.7c0.2,5.1,0.2,8.7,0.2,10.7c0,2.6-0.8,4.6-2.6,6.3
			C677.2,97.3,674.9,98.1,672.5,98.1z M673.2,34.5c-2.1,0-3.8,0.6-5.3,1.9c-1.4,1.3-2.1,3-2.1,5.1c0,3.5-0.2,8-0.6,13.1
			c-0.3,5.3-0.6,9.6-0.6,13.1c0,2.2,0,5.9,0.2,10.7c0.2,5,0.2,8.5,0.2,10.7c0,2.1,0.6,3.7,2.1,5.1c1.4,1.3,3,1.9,5.3,1.9
			c2.2,0,3.8-0.6,5.3-1.9c1.4-1.3,2.1-3,2.1-5.1c0-2.2,0-5.8-0.2-10.7c-0.2-4.8-0.2-8.5-0.2-10.7c0-3.5,0.2-8,0.6-13.1
			c0.3-5.3,0.6-9.6,0.6-13.1c0-2.1-0.6-3.7-2.1-5.1C677.2,35.1,675.4,34.5,673.2,34.5z M675.1,25.3c-2.7,0-5.1-1-7.1-2.7
			c-2.1-1.8-3-4.2-3-6.7c0-2.7,1-5,3-6.7c1.9-1.8,4.3-2.7,7.1-2.7c2.7,0,5.1,1,7.1,2.7c1.9,1.8,3,4.2,3,6.7c0,2.7-1,5-3,6.7
			C680.2,24.5,677.8,25.3,675.1,25.3z M675.1,7.9c-2.4,0-4.3,0.8-5.9,2.4c-1.8,1.6-2.6,3.4-2.6,5.6s0.8,4,2.6,5.6s3.7,2.4,5.9,2.4
			c2.4,0,4.3-0.8,5.9-2.2c1.6-1.6,2.6-3.4,2.6-5.6s-0.8-4-2.6-5.6C679.4,8.7,677.5,7.9,675.1,7.9z"/>
	</g>
	<g>
		<path class="st0" d="M742.1,99.7c-4.8,0-7.5-2.4-8-7.2c-0.5-4-1.1-8.2-1.6-12.2c-0.6-4.3-1-8.3-1-12.2c0-1,0-2.7,0.2-5.3
			c0.2-2.4,0.2-4.2,0.2-5.3c0-0.3,0-1,0.2-2.1c0-1.1,0.2-2.1,0.2-2.7c0-3.2-0.8-5-2.4-5c-3.4,0-6.7,2.2-9.9,6.6
			c-3.2,4.3-5.8,9.8-7.5,16.5c0,1.3-0.2,3-0.5,5.3c-0.2,1.8-0.3,3.5-0.3,5.3c0,1.1-0.2,2.9-0.3,5.1c-0.3,2.2-0.3,4-0.3,5.1
			c0,2.2-0.8,4.2-2.4,5.8c-1.6,1.4-3.5,2.2-5.9,2.2c-2.4,0-4.3-0.8-5.8-2.2c-1.6-1.4-2.2-3.4-2.2-5.6c0-1.1-0.2-2.9-0.3-5.1
			c-0.2-2.2-0.3-4-0.3-5.1c0-3.8,0.3-9.1,0.8-16c0.5-6.9,0.8-12.2,0.8-16c0-1.1,0-3-0.2-5.5s-0.2-4.2-0.2-5.3c0-2.2,0.8-4.2,2.4-5.6
			c1.6-1.4,3.5-2.2,5.9-2.2c5.1,0,7.9,3,8.3,9.3v0.6c5.8-5.8,11.9-8.7,18.1-8.7c7.4,0,12.5,3,15.4,9.3c1.9,4.2,2.9,10.4,2.9,18.8
			v4.2c0,1.8,0,3,0,3.8c0,3,0.5,7.1,1.3,11.9c0.8,4.8,1.3,8.8,1.3,11.9c0,2.2-0.8,4-2.4,5.5C746.3,98.9,744.4,99.7,742.1,99.7z"/>
		<path d="M742.1,100.5c-5.3,0-8.3-2.7-8.8-7.9c-0.5-4-1.1-8.2-1.6-12.2c-0.6-4.3-1-8.5-1-12.3c0-1.1,0-2.9,0.2-5.3
			c0.2-2.6,0.2-4.2,0.2-5.1c0-0.3,0-1,0.2-2.1c0-1.1,0.2-1.9,0.2-2.7c0-1.9-0.3-4.2-1.6-4.2c-3,0-6.3,2.1-9.3,6.3
			c-3.2,4.2-5.6,9.6-7.4,16.2c0,1.3-0.3,3.2-0.5,5.3c-0.2,1.8-0.3,3.5-0.3,5.3c0,1.1-0.2,2.9-0.3,5.1c-0.3,2.2-0.3,3.8-0.3,5
			c0,2.6-0.8,4.6-2.6,6.3c-1.8,1.6-3.8,2.6-6.4,2.6s-4.6-0.8-6.4-2.4c-1.8-1.6-2.6-3.7-2.6-6.3c0-1.1-0.2-2.7-0.3-5
			c-0.3-2.2-0.3-4-0.3-5.1c0-3.8,0.3-9.3,0.8-16c0.5-6.7,0.8-12.2,0.8-16c0-1.1,0-2.9-0.2-5.3c-0.2-2.4-0.2-4.2-0.2-5.3
			c0-2.4,1-4.5,2.7-6.1c1.8-1.6,3.8-2.4,6.4-2.4c3.7,0,8.2,1.6,9,9c5.5-5.1,11.4-7.7,17.5-7.7c7.7,0,13.1,3.4,16.2,9.8
			c1.9,4.3,2.9,10.6,2.9,19.1v4.2c0,1.8,0,3,0,3.8c0,3,0.5,6.9,1.3,11.7c0.8,4.8,1.3,8.8,1.3,11.9c0,2.4-0.8,4.5-2.6,6.1
			C746.8,99.7,744.5,100.5,742.1,100.5z M729.8,47.1c2.1,0,3.2,1.9,3.2,5.8c0,0.8,0,1.6-0.2,2.7c0,1.1-0.2,1.8-0.2,2.1
			c0,1,0,2.7-0.2,5.3c-0.2,2.4-0.2,4.2-0.2,5.1c0,3.7,0.3,7.9,0.8,12c0.5,4.2,1.1,8.2,1.6,12.2c0.5,4.3,2.9,6.4,7.2,6.4
			c2.1,0,3.8-0.6,5.3-1.9c1.4-1.3,2.1-2.9,2.1-5c0-3-0.5-6.9-1.3-11.7c-0.8-4.8-1.3-8.8-1.3-12c0-0.8,0-2.1,0-3.8v-4.2
			c0-8.2-1-14.3-2.7-18.4c-2.7-5.9-7.5-8.8-14.6-8.8c-6.1,0-12,2.9-17.6,8.5l-1.3,1.3l-0.2-2.4c-0.3-5.8-2.7-8.5-7.5-8.5
			c-2.1,0-3.8,0.6-5.3,1.9c-1.4,1.3-2.1,2.9-2.1,5c0,1.1,0,2.9,0.2,5.3c0.2,2.4,0.2,4.2,0.2,5.5c0,3.8-0.3,9.3-0.8,16
			s-0.8,12.2-0.8,16c0,1.1,0.2,2.7,0.3,5c0.3,2.2,0.3,4,0.3,5.1c0,2.1,0.6,3.7,2.1,5.1c1.4,1.3,3,2.1,5.3,2.1c2.2,0,3.8-0.6,5.3-2.1
			c1.4-1.4,2.1-3,2.1-5.1c0-1.1,0.2-2.9,0.3-5.1c0.3-2.2,0.3-4,0.3-5c0-1.8,0.2-3.5,0.3-5.5c0.3-2.1,0.5-4,0.5-5.3v-0.2
			c1.9-6.7,4.5-12.3,7.7-16.7C722.6,49.4,726.1,47.1,729.8,47.1z"/>
	</g>
	<g>
		<path class="st0" d="M804,57.4c-0.3,0.2-3.5,2.4-9.8,6.9c-4,2.7-7.1,5.3-9.1,7.5c-1.9,2.1-4,3.2-6.3,3.2c-2.2,0-4.2-0.8-5.9-2.4
			c-1.8-1.6-2.6-3.5-2.6-5.6c0-3.2,2.6-6.7,7.5-10.6c4.6-3.4,9.3-6.6,14.1-9.9c5.1-3.8,7.5-7.4,7.5-10.4c0-3.7-1.9-7.1-5.6-10.3
			c-3.7-3.2-7.5-4.8-11.5-4.8c-2.1,0-5,1.3-8.7,3.7c-3.7,2.4-6.3,3.7-7.9,3.7c-2.2,0-4.3-0.8-5.9-2.6c-1.6-1.8-2.4-3.7-2.4-5.8
			c0-4,3.4-7.5,10.3-10.7c5.8-2.7,10.6-4.2,14.6-4.2c8.5,0,16.2,3.2,23.1,9.5s10.4,13.5,10.4,21.6C816.2,43.9,812,51.1,804,57.4z
			 M775.6,99.7c-2.2,0-4.3-0.6-6.1-2.1c-2.1-1.6-3-3.5-3-5.8c0-2.7,0.8-5.1,2.4-7.4c1.9-2.7,4.5-4.2,7.5-4.2c2.7,0,4.8,1,6.3,3
			c1.1,1.6,1.8,3.5,1.8,5.8c0,2.4-0.6,4.6-1.9,6.7C780.9,98.4,778.7,99.7,775.6,99.7z"/>
		<path d="M775.6,100.5c-2.4,0-4.6-0.8-6.6-2.2c-2.2-1.8-3.4-3.8-3.4-6.4c0-2.9,0.8-5.5,2.6-7.9c2.1-3,4.8-4.5,8.3-4.5
			c2.9,0,5.3,1.1,6.9,3.4c1.3,1.8,1.9,3.8,1.9,6.3c0,2.6-0.6,5-2.1,7.2C781.6,99.1,779,100.5,775.6,100.5z M776.6,81
			c-2.9,0-5.1,1.3-6.9,3.8c-1.4,2.1-2.2,4.5-2.2,7.1c0,2.1,1,3.8,2.7,5.3c1.8,1.3,3.5,1.9,5.6,1.9c2.7,0,4.6-1.1,6.3-3.7
			c1.3-1.9,1.8-4,1.8-6.3c0-2.1-0.5-3.8-1.6-5.5C780.8,81.9,779,81,776.6,81z M779,75.7c-2.4,0-4.6-1-6.4-2.7
			c-1.9-1.8-2.7-3.8-2.7-6.3c0-3.4,2.6-7.1,7.9-11.2c4.6-3.4,9.5-6.6,14.1-9.9c4.8-3.7,7.2-6.9,7.2-9.8c0-3.4-1.8-6.7-5.3-9.6
			c-3.5-3-7.2-4.6-11.1-4.6c-1.9,0-4.8,1.1-8.3,3.5c-3.8,2.6-6.6,3.7-8.3,3.7c-2.6,0-4.6-1-6.4-2.9c-1.8-1.9-2.6-4-2.6-6.3
			c0-4.3,3.7-8.2,10.7-11.5c5.9-2.9,10.9-4.3,14.9-4.3c8.7,0,16.7,3.2,23.7,9.6S817,27.3,817,35.6s-4.2,15.7-12.3,22.1l0,0
			c-0.3,0.2-3.5,2.4-9.8,6.9c-3.8,2.7-6.9,5.3-9,7.5C783.8,74.5,781.4,75.7,779,75.7z M782.7,20c4.2,0,8.3,1.6,12.2,5
			c3.8,3.4,5.9,7.1,5.9,10.9c0,3.4-2.6,7.1-7.9,11.1c-4.6,3.4-9.5,6.7-14.1,9.9c-4.8,3.7-7.2,7.1-7.2,9.9c0,1.9,0.8,3.5,2.2,5.1
			c1.6,1.4,3.4,2.2,5.3,2.2c2.1,0,3.8-1,5.6-2.9c2.1-2.4,5.3-5,9.3-7.7c6.1-4.3,9.3-6.6,9.8-6.9c7.9-6.1,11.7-13.1,11.7-20.8
			c0-7.9-3.4-14.9-10.1-21c-6.7-6.1-14.3-9.3-22.6-9.3c-3.7,0-8.5,1.4-14.1,4.2c-6.6,3-9.9,6.6-9.9,10.1c0,1.9,0.6,3.5,2.2,5.1
			c1.4,1.6,3.2,2.2,5.3,2.2c1,0,3-0.6,7.4-3.5C777.2,21.2,780.3,20,782.7,20z"/>
	</g>
</g>
</svg>
