<?xml version="1.0" encoding="utf-8"?>
<!-- Generator: Adobe Illustrator 21.0.0, SVG Export Plug-In . SVG Version: 6.00 Build 0)  -->
<svg version="1.1" id="Layer_1" xmlns="http://www.w3.org/2000/svg" xmlns:xlink="http://www.w3.org/1999/xlink" x="0px" y="0px"
	 viewBox="0 0 517.5 94.1" style="enable-background:new 0 0 517.5 94.1;" xml:space="preserve">
<style type="text/css">
	.st0{fill:#FFFFFF;}
</style>
<g>
	<g>
		<path d="M79,23.6c-0.4,1-0.9,2.2-1.5,3.7c-0.4,1.4-1.1,3.5-2,6.3c-1.4,3.6-3.6,8.9-6.7,15.7c-3.1,7-5.3,12.3-6.7,15.7
			c-1,2.6-2,4.6-2.8,6.2c-1.2,2-2.9,3.1-5.3,3.1c-1.4,0-2.7-0.4-3.8-1.1c-1.3-0.9-2-2-2.1-3.5c-1.1-2.8-1.8-5.1-2.1-6.9
			c-1.1-5.2-2.6-13.1-4.5-23.7c-1.6,4.9-3.3,9.4-5.2,13.3c-2.7,5.9-4.6,10.5-5.4,13.9c0.2,0.5,0.3,1.1,0.3,1.7c0,1.5-0.7,2.8-2,3.7
			c-1.2,0.8-2.5,1.2-3.9,1.2c-1.8,0-3.3-0.5-4.5-1.4c-1.3-1-1.9-2.4-2-4.1l-1.1-4.3c-0.8-3.8-2.1-9.5-4-17.1
			c-1.6-5.8-4.3-14.1-8.1-24.8c-0.2-0.6-0.3-1.2-0.3-1.8c0-1.5,0.6-2.6,1.7-3.5c1-0.8,2.2-1.2,3.6-1.2c1.9,0,3.3,0.8,4.5,2.4
			c0.6,0.9,1.3,2.4,2.1,4.7c2.4,6.9,5.1,17,8.1,30.2c2-4.8,4-10.4,6-16.9c1.6-5.3,3-9.1,4-11.3c2.5-5.3,5-8,7.5-8
			c2.4,0,4.2,1.3,5.3,3.9c0.5,1.3,1.1,3.5,1.6,6.8c0.1,1,0.5,3.5,1,7.4c0.5,4.2,2.1,11.9,4.6,23c2.6-6.1,6.1-14.9,10.5-26.3
			c0.3-0.7,0.9-2.9,1.9-6.8c0.7-2.7,1.6-4.9,2.7-6.5c1.2-1.7,2.7-2.6,4.7-2.6c1.5,0,2.7,0.5,3.7,1.4c1,0.9,1.5,2.1,1.5,3.6
			C80.3,20.1,79.9,21.4,79,23.6z"/>
		<path d="M54.1,74.8c-1.5,0-2.9-0.4-4.1-1.2c-1.4-1-2.2-2.2-2.3-3.8c-1.1-2.8-1.8-5.2-2.1-7c-1-4.9-2.4-12.2-4.1-21.7
			c-1.4,4.2-3,8.1-4.6,11.5c-2.7,5.7-4.5,10.3-5.3,13.6c0.2,0.6,0.3,1.1,0.3,1.8c0,1.7-0.8,3.1-2.2,4.1c-1.3,0.9-2.7,1.3-4.2,1.3
			c-1.9,0-3.5-0.5-4.8-1.5c-1.4-1.1-2.1-2.6-2.2-4.4l-1.1-4.3c-0.8-3.8-2.1-9.6-4-17.2C11.7,40.3,9,32,5.2,21.3
			c-0.2-0.7-0.4-1.3-0.4-2c0-1.6,0.6-2.9,1.9-3.9c1.1-0.8,2.4-1.3,3.9-1.3c2,0,3.7,0.9,4.9,2.6c0.6,0.9,1.4,2.5,2.2,4.8
			c2.3,6.6,4.9,16.3,7.8,28.7c1.8-4.4,3.6-9.6,5.4-15.4c1.6-5.3,3-9.1,4-11.4c2.6-5.6,5.2-8.3,8-8.3c2.6,0,4.5,1.4,5.7,4.2
			c0.6,1.3,1.1,3.6,1.6,6.9c0.2,1,0.5,3.5,1,7.4c0.5,4,1.9,11.2,4.3,21.5c2.5-6,5.8-14.3,9.9-24.9c0.3-0.7,0.9-2.9,1.9-6.7
			c0.7-2.8,1.6-5,2.8-6.7c1.3-1.9,3-2.8,5.1-2.8c1.6,0,3,0.5,4.1,1.5c1.1,1,1.6,2.3,1.6,3.9c0,0.4-0.1,1.2-1.3,4.2l0,0
			c-0.4,1-0.9,2.2-1.5,3.7c-0.4,1.4-1.1,3.5-2,6.3c-1.4,3.6-3.6,8.9-6.7,15.8c-3.1,7-5.4,12.3-6.7,15.7c-1,2.6-2,4.7-2.9,6.2
			C58.5,73.7,56.6,74.8,54.1,74.8z M41.6,37l0.4,2c1.9,10.5,3.4,18.4,4.5,23.6c0.3,1.8,1,4.1,2.1,6.8l0,0.2c0.1,1.3,0.7,2.3,1.9,3.1
			c1,0.7,2.2,1.1,3.5,1.1c2.2,0,3.8-0.9,4.8-2.8c0.9-1.5,1.8-3.6,2.8-6.1c1.3-3.4,3.6-8.7,6.7-15.7c3-6.8,5.3-12.1,6.7-15.7
			c0.9-2.7,1.6-4.9,2-6.3c0.6-1.5,1.1-2.8,1.5-3.8c1.1-2.7,1.3-3.5,1.3-3.8c0-1.3-0.4-2.4-1.3-3.2c-0.9-0.8-2-1.2-3.4-1.2
			c-1.8,0-3.2,0.8-4.3,2.4c-1,1.5-1.9,3.7-2.6,6.4c-1,3.9-1.7,6.1-1.9,6.8C61.9,42.1,58.4,51,55.8,57l-0.6,1.4l-0.3-1.5
			c-2.6-11.1-4.1-18.9-4.6-23.1c-0.5-3.8-0.8-6.4-1-7.4c-0.5-3.2-1-5.5-1.5-6.7c-1-2.4-2.6-3.6-4.8-3.6c-2.3,0-4.7,2.6-7.1,7.7
			c-1,2.2-2.4,6-4,11.2c-2,6.5-4.1,12.2-6,17l-0.6,1.5L24.9,52c-3-13.2-5.7-23.3-8.1-30.2c-0.8-2.2-1.4-3.7-2-4.5
			c-1-1.4-2.3-2.1-4-2.1c-1.3,0-2.4,0.4-3.3,1.1c-1,0.8-1.5,1.8-1.5,3.1c0,0.6,0.1,1.1,0.3,1.7c3.8,10.7,6.5,19.1,8.1,24.9
			c1.8,7.6,3.2,13.4,4,17.2l1.2,4.4c0,1.6,0.6,2.8,1.8,3.7c1.1,0.8,2.5,1.3,4.1,1.3c1.3,0,2.5-0.4,3.6-1.1c1.2-0.9,1.8-1.9,1.8-3.3
			c0-0.5-0.1-1.1-0.3-1.5l-0.1-0.2l0-0.2c0.9-3.4,2.7-8.1,5.4-14c1.8-3.9,3.5-8.3,5.1-13.2L41.6,37z"/>
	</g>
	<g>
		<path d="M96.5,37.1c1.8-1.8,3.7-3.1,5.8-4c2-0.9,4.2-1.3,6.6-1.3c4.2,0,7.2,1.2,9.1,3.5c1.4,1.8,2.2,4.5,2.5,8.1
			c0.1,3,0.3,6,0.4,9.1c0.4,4,0.6,6.4,0.7,7.2c0.3,2.7,0.8,5.1,1.3,7.1c0.1,0.5,0.2,1,0.2,1.4c0,1.4-0.5,2.5-1.6,3.4
			s-2.3,1.3-3.7,1.3c-2.5,0-4.1-1.2-4.8-3.7c-0.6-2-1.1-4.8-1.6-8.4c-0.4-3.5-0.7-6.3-0.7-8.5c0-0.6,0-1.5,0.1-2.8
			c0.1-1.2,0.1-2.2,0.1-2.8c0-1.8,0-2.9-0.1-3.2c-0.2-1.3-0.9-2-1.9-2c-2.7,0-5.2,1.3-7.4,3.8c-1.1,1.3-2.7,3.6-4.6,7.1
			c0,8.9-0.4,14.2-1.3,16c-1,2-2.5,3-4.6,3c-1.4,0-2.6-0.5-3.7-1.4c-1.1-0.9-1.6-2.1-1.6-3.4c0-0.5,0.1-1.1,0.4-2
			c0.2-0.5,0.3-3.9,0.4-9.9c-0.1-4.9-0.1-13.1,0.1-24.6l0.1-1.2c0.1-2.9,0.2-4.8,0.2-5.8c0-0.8-0.1-1.9-0.3-3.4s-0.3-2.6-0.3-3.4
			c0-1.4,0.5-2.5,1.5-3.4s2.2-1.3,3.6-1.3c2.4,0,4.1,1.3,4.9,3.9c0.5,1.5,0.7,3.7,0.7,6.8c0,2.5-0.1,4.9-0.2,7.5
			C96.6,32.4,96.5,34.7,96.5,37.1z"/>
		<path d="M117.8,73.6c-2.7,0-4.5-1.4-5.3-4c-0.6-2-1.1-4.9-1.6-8.5c-0.4-3.5-0.7-6.4-0.7-8.6c0-0.6,0-1.5,0.1-2.8
			c0.1-1.3,0.1-2.2,0.1-2.8c0-2.3,0-2.9-0.1-3.1c-0.2-1.4-0.9-1.6-1.4-1.6c-2.6,0-4.9,1.2-7,3.6c-1.1,1.2-2.6,3.5-4.5,6.9
			c0,9-0.4,14.2-1.3,16.1c-1,2.2-2.7,3.3-5,3.3c-1.5,0-2.8-0.5-4-1.5c-1.2-1-1.8-2.3-1.8-3.8c0-0.5,0.1-1.2,0.4-2.1
			c0.1-0.3,0.3-1.9,0.4-9.8c-0.1-4.9-0.1-13.2,0.1-24.6l0.1-1.2c0.1-2.9,0.2-4.8,0.2-5.8c0-0.7-0.1-1.8-0.3-3.3
			c-0.2-1.5-0.4-2.7-0.4-3.4c0-1.5,0.6-2.8,1.7-3.8c1.1-1,2.4-1.5,4-1.5c2.7,0,4.5,1.4,5.4,4.2c0.5,1.5,0.7,3.8,0.7,6.9
			c0,2.5-0.1,5-0.2,7.5c-0.1,2-0.2,4-0.2,6c1.6-1.4,3.3-2.5,5.1-3.3c2.1-0.9,4.4-1.3,6.8-1.3c4.3,0,7.5,1.3,9.4,3.7
			c1.4,1.8,2.3,4.7,2.6,8.4c0.1,3,0.3,6.1,0.4,9.1c0.4,3.9,0.6,6.3,0.7,7.2c0.3,2.7,0.8,5.1,1.2,7.1c0.1,0.6,0.2,1,0.2,1.5
			c0,1.5-0.6,2.8-1.7,3.8C120.6,73.1,119.3,73.6,117.8,73.6z M108.9,41.2c0.9,0,2.1,0.4,2.4,2.4c0,0.2,0.1,0.8,0.1,3.2
			c0,0.6,0,1.5-0.1,2.8c-0.1,1.2-0.1,2.2-0.1,2.8c0,2.2,0.2,5,0.7,8.5c0.5,3.6,1,6.4,1.6,8.3c0.7,2.2,2.1,3.3,4.3,3.3
			c1.3,0,2.4-0.4,3.3-1.2c0.9-0.8,1.4-1.8,1.4-3c0-0.4-0.1-0.8-0.2-1.2c-0.5-2-0.9-4.5-1.3-7.2c-0.1-0.9-0.3-3.3-0.7-7.2
			c-0.1-3.1-0.3-6.1-0.4-9.1c-0.3-3.5-1.1-6.2-2.4-7.8c-1.7-2.2-4.6-3.3-8.7-3.3c-2.3,0-4.4,0.4-6.4,1.3c-2,0.8-3.9,2.1-5.6,3.9
			L96,38.3v-1.2c0-2.4,0.1-4.8,0.2-7.2c0.1-2.5,0.2-5,0.2-7.4c0-3-0.2-5.2-0.7-6.6c-0.8-2.4-2.2-3.6-4.4-3.6c-1.3,0-2.4,0.4-3.3,1.2
			c-0.9,0.8-1.3,1.8-1.3,3.1c0,0.7,0.1,1.8,0.3,3.3c0.2,1.5,0.4,2.7,0.4,3.4c0,1-0.1,3-0.2,5.8l-0.1,1.2C87,41.8,86.9,50.1,87.1,55
			c-0.2,9.2-0.4,9.9-0.5,10.1c-0.3,0.8-0.4,1.4-0.4,1.8c0,1.2,0.5,2.2,1.4,3c1,0.8,2.1,1.3,3.3,1.3c1.9,0,3.2-0.9,4.1-2.7
			c0.8-1.7,1.2-7.1,1.2-15.8v-0.1l0.1-0.1c2-3.6,3.5-5.9,4.7-7.2C103.4,42.5,106,41.2,108.9,41.2z"/>
	</g>
	<g>
		<path d="M144.3,72.9c-4.5,0-8.4-1.6-11.7-4.7c-3.6-3.4-5.5-8-5.6-13.7c-0.2-5.4,1.3-10.3,4.5-14.5c3.7-5,8.9-7.5,15.6-7.5
			c4.9,0,8.8,2,11.7,5.9c2.6,3.5,3.9,7.9,3.9,13.1c0,5.7-1.5,10.5-4.6,14.6C154.6,70.7,150,72.9,144.3,72.9z M146.5,42.3
			c-3,0-5.4,1.3-7.1,4.1c-1.5,2.3-2.2,5.1-2.2,8.2c0,2.9,0.8,5.2,2.5,6.8c1.3,1.3,2.9,1.9,4.6,1.9c2.1,0,4-0.7,5.6-2.2
			c1.8-1.7,2.7-4,2.9-6.9C153,46.3,151,42.4,146.5,42.3z"/>
		<path d="M144.3,73.4c-4.7,0-8.7-1.6-12-4.8c-3.7-3.5-5.6-8.2-5.8-14c-0.2-5.5,1.4-10.5,4.6-14.8c3.8-5.1,9.2-7.7,16-7.7
			c5,0,9.1,2,12.1,6.1c2.7,3.6,4,8.1,4,13.4c0,5.8-1.6,10.8-4.7,14.9C154.9,71.1,150.2,73.4,144.3,73.4z M147,33.1
			c-6.5,0-11.6,2.5-15.2,7.3c-3.1,4.1-4.5,8.9-4.4,14.2c0.2,5.5,2,10,5.5,13.3c3.2,3,7,4.5,11.4,4.5c5.5,0,10-2.2,13.3-6.5
			c3-3.9,4.5-8.7,4.5-14.3c0-5.1-1.3-9.4-3.8-12.8C155.5,35,151.7,33.1,147,33.1z M144.3,63.8c-1.9,0-3.6-0.7-5-2
			c-1.8-1.7-2.7-4.1-2.7-7.1c0-3.2,0.8-6,2.3-8.4c1.8-2.9,4.4-4.4,7.6-4.4c1.7,0,3.2,0.6,4.3,1.7c1.9,2,2.7,5.4,2.5,10.7
			c-0.1,3-1.1,5.4-3,7.2C148.5,63,146.5,63.8,144.3,63.8z M146.4,42.8c-2.8,0-5,1.3-6.6,3.9c-1.4,2.2-2.1,4.9-2.1,7.9
			c0,2.8,0.8,4.9,2.3,6.4c1.2,1.2,2.6,1.7,4.3,1.7c2,0,3.7-0.7,5.2-2c1.7-1.6,2.6-3.8,2.7-6.5c0.2-4.9-0.5-8.2-2.2-10
			C149.1,43.3,148,42.8,146.4,42.8L146.4,42.8C146.5,42.8,146.4,42.8,146.4,42.8z"/>
	</g>
	<g>
		<path d="M213,53.5c0,1.4,0,3.6,0.1,6.7c0.1,3.1,0.1,5.3,0.1,6.7c0,1.4-0.5,2.6-1.4,3.5s-2.2,1.4-3.6,1.4c-1.5,0-2.7-0.5-3.6-1.4
			s-1.4-2.1-1.4-3.5c0-1.4,0-3.6-0.1-6.7c-0.1-3.1-0.1-5.3-0.1-6.7c0-2.2,0.1-4.9,0.4-8.2c0.2-3.3,0.4-6,0.4-8.2
			c0-1.4,0.5-2.6,1.4-3.5s2.2-1.4,3.6-1.4c1.5,0,2.7,0.5,3.6,1.4s1.4,2.1,1.4,3.5c0,2.2-0.1,4.9-0.4,8.2
			C213.1,48.6,213,51.3,213,53.5z M209.8,26.5c-1.6,0-2.9-0.5-4.1-1.6s-1.7-2.3-1.7-3.9c0-1.5,0.6-2.8,1.7-3.9s2.5-1.6,4.1-1.6
			c1.6,0,2.9,0.5,4.1,1.6s1.7,2.3,1.7,3.9c0,1.5-0.6,2.8-1.7,3.9S211.4,26.5,209.8,26.5z"/>
		<path d="M208.1,72.4c-1.6,0-2.9-0.5-4-1.5c-1.1-1-1.6-2.3-1.6-3.9c0-1.4,0-3.6-0.1-6.7c-0.1-3-0.1-5.3-0.1-6.7
			c0-2.2,0.1-5,0.4-8.2c0.2-3.3,0.4-6,0.4-8.2c0-1.6,0.5-2.9,1.6-3.9c1-1,2.4-1.5,4-1.5c1.6,0,2.9,0.5,4,1.5c1.1,1,1.6,2.3,1.6,3.9
			c0,2.2-0.1,5-0.4,8.2c-0.2,3.3-0.4,6-0.4,8.2c0,1.4,0,3.7,0.1,6.7c0.1,3.2,0.1,5.4,0.1,6.7c0,1.6-0.5,2.9-1.6,3.9
			C211.1,71.9,209.7,72.4,208.1,72.4z M208.6,32.7c-1.3,0-2.4,0.4-3.3,1.2c-0.9,0.8-1.3,1.9-1.3,3.2c0,2.2-0.1,5-0.4,8.2
			c-0.2,3.3-0.4,6-0.4,8.2c0,1.4,0,3.7,0.1,6.7c0.1,3.1,0.1,5.3,0.1,6.7c0,1.3,0.4,2.3,1.3,3.2c0.9,0.8,1.9,1.2,3.3,1.2
			c1.4,0,2.4-0.4,3.3-1.2c0.9-0.8,1.3-1.9,1.3-3.2c0-1.4,0-3.6-0.1-6.7c-0.1-3-0.1-5.3-0.1-6.7c0-2.2,0.1-5,0.4-8.2
			c0.2-3.3,0.4-6,0.4-8.2c0-1.3-0.4-2.3-1.3-3.2C211,33.1,210,32.7,208.6,32.7z M209.8,27c-1.7,0-3.2-0.6-4.4-1.7
			c-1.3-1.1-1.9-2.6-1.9-4.2c0-1.7,0.6-3.1,1.9-4.2c1.2-1.1,2.7-1.7,4.4-1.7c1.7,0,3.2,0.6,4.4,1.7c1.2,1.1,1.9,2.6,1.9,4.2
			c0,1.7-0.6,3.1-1.9,4.2C213,26.5,211.5,27,209.8,27z M209.8,16.1c-1.5,0-2.7,0.5-3.7,1.5c-1.1,1-1.6,2.1-1.6,3.5
			c0,1.4,0.5,2.5,1.6,3.5c1.1,1,2.3,1.5,3.7,1.5c1.5,0,2.7-0.5,3.7-1.4c1-1,1.6-2.1,1.6-3.5c0-1.4-0.5-2.5-1.6-3.5
			C212.5,16.6,211.3,16.1,209.8,16.1z"/>
	</g>
	<g>
		<path d="M248.5,43.8c-2.4,0-3.9-1-4.4-3.1c-1-0.2-2-0.3-3-0.3c-5.9,0-8.9,0.8-8.9,2.4c0,1,1.8,2.2,5.3,3.9c4.9,2.2,8.1,4,9.9,5.2
			c3.6,2.6,5.3,5.5,5.3,8.7c0,4.2-2,7.4-5.9,9.6c-3.2,1.7-7.1,2.6-11.7,2.6c-3.3,0-6.2-0.5-8.9-1.5c-3.7-1.4-5.5-3.4-5.5-6.1
			c0-2.5,1.5-3.7,4.4-3.7c1.1,0,2.8,0.4,4.9,1.1c2.1,0.7,3.8,1.1,4.9,1.1c5,0,7.5-1,7.5-3c0-1.3-1.7-2.6-5.2-4.2
			c-5.1-2.2-8.3-3.8-9.7-4.8c-3.5-2.4-5.2-5.4-5.2-8.9c0-4.9,2.6-8.3,7.8-10c3.1-1,7.7-1.5,14-1.5c2.5,0,4.3,0.3,5.4,1
			c1.6,0.9,2.4,2.4,2.4,4.7C252,41.6,250.8,43.8,248.5,43.8z"/>
		<path d="M235.2,73.5c-3.3,0-6.4-0.5-9.1-1.5c-3.9-1.4-5.8-3.6-5.8-6.5c0-1.9,0.8-4.2,4.9-4.2c1.2,0,2.8,0.4,5.1,1.1
			c2.1,0.7,3.7,1,4.8,1c3.2,0,7-0.4,7-2.5c0-0.6-0.6-1.8-4.9-3.7c-5.1-2.3-8.3-3.9-9.8-4.9c-3.6-2.5-5.4-5.6-5.4-9.3
			c0-5.1,2.8-8.7,8.2-10.4c3.1-1,7.9-1.5,14.1-1.5c2.6,0,4.4,0.3,5.7,1c1.8,0.9,2.7,2.7,2.7,5.2c0,4.7-1.4,7.1-4.1,7.1
			c-3.1,0-4.3-1.6-4.8-3.1c-0.9-0.1-1.7-0.2-2.6-0.2c-7.6,0-8.4,1.3-8.4,1.9c0,0.3,0.4,1.3,5,3.4c4.9,2.3,8.2,4,9.9,5.3
			c3.7,2.7,5.5,5.7,5.5,9.1c0,4.4-2.1,7.8-6.1,10C243.9,72.6,239.9,73.5,235.2,73.5z M225.1,62.2c-2.6,0-3.9,1-3.9,3.2
			c0,2.5,1.7,4.3,5.2,5.6c2.6,1,5.6,1.5,8.8,1.5c4.5,0,8.3-0.9,11.4-2.6c3.8-2.1,5.6-5.1,5.6-9.2c0-3.1-1.7-5.9-5.1-8.3
			c-1.7-1.2-5-3-9.8-5.2c-5-2.3-5.6-3.5-5.6-4.3c0-2,3-2.9,9.4-2.9c1.1,0,2.1,0.1,3.1,0.3l0.3,0.1l0.1,0.3c0.4,1.8,1.7,2.7,3.9,2.7
			c0.8,0,3.1,0,3.1-6.1c0-2.1-0.7-3.5-2.2-4.3c-1.1-0.6-2.9-0.9-5.2-0.9c-6.2,0-10.8,0.5-13.8,1.5c-5,1.7-7.5,4.8-7.5,9.5
			c0,3.3,1.7,6.1,5,8.5c1.4,1,4.6,2.6,9.6,4.8c3.7,1.6,5.5,3.1,5.5,4.6c0,2.4-2.6,3.5-8,3.5c-1.2,0-2.9-0.4-5.1-1.1
			C227.8,62.6,226.2,62.2,225.1,62.2z"/>
	</g>
	<g>
		<path d="M327,24.8c-0.6,0-1.2-0.1-1.9-0.3c-3.2-1-7-1.5-11.6-1.5c-1.5,0-3.2,0.1-5.2,0.3s-4.1,0.5-6.5,0.9c0,4.7,0,8.8,0,12.1
			c3.7-0.9,6.8-1.4,9.3-1.4c4.6,0,8.5,0.2,11.9,0.6c3.2,0.4,4.7,2.1,4.7,5c0,1.4-0.5,2.6-1.5,3.6c-1,1-2.2,1.4-3.7,1.4
			c-1.3,0-3.2-0.1-5.7-0.3c-2.6-0.2-4.5-0.3-5.7-0.3c-1.8,0-4.9,0.6-9.3,1.7v23.1c0,1.4-0.6,2.6-1.7,3.6c-1.1,1-2.4,1.4-3.8,1.4
			c-1.4,0-2.6-0.5-3.5-1.4s-1.3-2.1-1.3-3.6V27.5c0-1,0-2.4,0.1-4.3c0-1.9,0.1-3.4,0.1-4.3c0-1.4,0.5-2.6,1.5-3.6
			c1-1,2.2-1.4,3.7-1.4c0.9,0,1.8,0.2,2.5,0.6c2.8-0.5,5.5-0.9,7.8-1.1c2.4-0.2,4.5-0.3,6.4-0.3c2.8,0,6.3,0.6,10.6,1.7
			c5.3,1.4,8,3.1,8,5c0,1.4-0.5,2.6-1.5,3.6C329.6,24.3,328.4,24.8,327,24.8z"/>
		<path d="M296.4,75.2c-1.6,0-2.8-0.5-3.8-1.6c-1-1-1.5-2.4-1.5-3.9V27.5c0-1,0-2.4,0.1-4.4c0-1.9,0.1-3.4,0.1-4.3
			c0-1.6,0.5-2.9,1.6-4c1.1-1,2.4-1.6,4-1.6c0.9,0,1.8,0.2,2.5,0.5c2.8-0.5,5.4-0.8,7.7-1.1c2.4-0.2,4.6-0.4,6.5-0.4
			c2.8,0,6.4,0.6,10.7,1.7c5.6,1.5,8.4,3.3,8.4,5.5c0,1.5-0.5,2.9-1.6,4c-1.1,1.1-2.4,1.7-3.9,1.7c-0.6,0-1.3-0.1-2-0.4
			c-3.1-1-6.9-1.5-11.4-1.5c-1.5,0-3.2,0.1-5.1,0.3c-1.8,0.2-3.8,0.5-6,0.8c0,4.2,0,7.9,0,11.1c3.5-0.8,6.4-1.2,8.8-1.2
			c4.6,0,8.6,0.2,12,0.6c3.4,0.4,5.2,2.3,5.2,5.5c0,1.6-0.6,2.9-1.7,3.9c-1.1,1-2.5,1.6-4,1.6c-1.3,0-3.2-0.1-5.8-0.3
			c-2.5-0.2-4.5-0.3-5.7-0.3c-1.7,0-4.6,0.5-8.8,1.6v22.7c0,1.6-0.6,2.9-1.8,3.9C299.3,74.7,297.9,75.2,296.4,75.2z M296.8,14.3
			c-1.3,0-2.4,0.4-3.3,1.3c-0.9,0.9-1.3,1.9-1.3,3.3c0,1,0,2.4-0.1,4.4c0,1.9-0.1,3.4-0.1,4.3v42.2c0,1.3,0.4,2.4,1.2,3.2
			c0.8,0.8,1.8,1.3,3.1,1.3c1.3,0,2.5-0.4,3.5-1.3c1-0.9,1.5-1.9,1.5-3.2V46.2l0.4-0.1c4.5-1.1,7.5-1.7,9.4-1.7
			c1.3,0,3.2,0.1,5.8,0.3c2.5,0.2,4.4,0.3,5.7,0.3c1.3,0,2.4-0.4,3.3-1.3c0.9-0.9,1.4-1.9,1.4-3.2c0-2.7-1.4-4.1-4.3-4.5
			c-3.4-0.4-7.3-0.6-11.9-0.6c-2.4,0-5.5,0.5-9.2,1.3l-0.6,0.2l0-0.6c0-3.4,0-7.4,0-12.1l0-0.4l0.4-0.1c2.4-0.4,4.6-0.7,6.5-0.9
			c2-0.2,3.7-0.3,5.2-0.3c4.6,0,8.5,0.5,11.7,1.6c0.6,0.2,1.2,0.3,1.7,0.3c1.3,0,2.3-0.4,3.2-1.4c0.9-0.9,1.3-2,1.3-3.3
			c0-1.1-1.3-2.8-7.6-4.6c-4.2-1.1-7.7-1.7-10.4-1.7c-1.9,0-4,0.1-6.4,0.3c-2.4,0.2-5,0.6-7.8,1.1l-0.2,0l-0.1-0.1
			C298.4,14.4,297.7,14.3,296.8,14.3z"/>
	</g>
	<g>
		<path d="M369.9,49.5c0,1.6,0,4.1,0,7.4s0,5.8,0,7.4c0,0.5,0,1.3,0.1,2.3c0.1,1,0.1,1.8,0.1,2.3c0,1.4-0.5,2.5-1.5,3.4
			c-1,0.9-2.2,1.3-3.7,1.3c-2,0-3.5-0.9-4.5-2.8c-3.1,1.2-6.4,1.7-9.8,1.7c-3.5,0-6.4-0.7-8.8-2.2c-2.7-1.7-4.3-4.1-4.8-7.4
			c-1-6.1-1.4-11.6-1.4-16.4c0-3.2,0.4-6.8,1.1-10.9c0.5-2.8,2.1-4.1,5-4.1c1.4,0,2.6,0.4,3.6,1.3s1.5,2,1.5,3.4
			c0,1.1-0.2,2.8-0.5,5c-0.4,2.3-0.5,4-0.5,5.2c0,3.4,0.1,6.4,0.3,9s0.6,4.7,1,6.4c0.6,0.3,1.2,0.5,1.8,0.6c0.6,0.1,1.1,0.2,1.7,0.2
			c2.7,0,5.7-0.4,9-1.2c0-1.9,0-4,0-6.4c0-2.9-0.1-4.9-0.1-6.2c0-5,0.2-9.4,0.7-13c0.4-2.9,2-4.4,5-4.4c1.4,0,2.7,0.5,3.7,1.4
			c1,0.9,1.5,2,1.4,3.4C370.1,45.9,369.9,50.2,369.9,49.5z"/>
		<path d="M365.1,74.2c-2.1,0-3.7-0.9-4.7-2.6c-3.1,1.1-6.3,1.6-9.5,1.6c-3.6,0-6.6-0.8-9.1-2.3c-2.8-1.8-4.5-4.3-5-7.7
			c-1-6.1-1.4-11.6-1.4-16.4c0-3.2,0.4-6.9,1.1-11c0.5-3,2.4-4.5,5.5-4.5c1.5,0,2.9,0.5,4,1.5c1.1,1,1.7,2.2,1.7,3.8
			c0,1.1-0.2,2.8-0.5,5.1c-0.4,2.3-0.5,4-0.5,5.1c0,3.4,0.1,6.4,0.3,9c0.2,2.4,0.5,4.4,1,6.1c0.5,0.2,1,0.4,1.5,0.5
			c0.5,0.1,1.1,0.2,1.6,0.2c2.6,0,5.4-0.4,8.5-1.1c0-1.8,0-3.8,0-6c0-2.9-0.1-4.9-0.1-6.2c0-5,0.2-9.4,0.7-13.1
			c0.4-3.2,2.3-4.8,5.5-4.8c1.6,0,2.9,0.5,4,1.5c1.1,1,1.7,2.3,1.6,3.8c-0.2,4.3-0.4,7.6-0.5,9.8c-0.1,1.7-0.1,2.7-0.2,3.2h0h0h0
			c0,0,0,0,0,0l0,0c0,1.6,0,4.1,0,7.4c0,3.3,0,5.8,0,7.4c0,0.5,0,1.3,0.1,2.3c0.1,1,0.1,1.8,0.1,2.3c0,1.5-0.6,2.8-1.7,3.8
			C368,73.7,366.6,74.2,365.1,74.2z M360.9,70.3l0.2,0.4c0.8,1.7,2.2,2.5,4,2.5c1.3,0,2.4-0.4,3.3-1.2c0.9-0.8,1.3-1.8,1.3-3
			c0-0.5,0-1.3-0.1-2.3c-0.1-1-0.1-1.8-0.1-2.3c0-1.6,0-4.1,0-7.4c0-3.3,0-5.8,0-7.4h0.1l-0.1,0c0-0.2,0.2-2.7,0.7-13
			c0.1-1.2-0.3-2.2-1.3-3c-0.9-0.8-2.1-1.2-3.4-1.2c-2.7,0-4.2,1.3-4.5,3.9c-0.5,3.6-0.7,8-0.7,13c0,1.2,0,3.3,0.1,6.2
			c0,2.4,0,4.6,0,6.4v0.4l-0.4,0.1c-3.3,0.8-6.3,1.2-9.1,1.2c-0.6,0-1.2-0.1-1.8-0.2c-0.6-0.1-1.2-0.4-1.9-0.6l-0.2-0.1l-0.1-0.2
			c-0.5-1.7-0.8-3.9-1.1-6.5c-0.2-2.6-0.4-5.6-0.4-9.1c0-1.2,0.2-3,0.5-5.3c0.3-2.3,0.5-3.9,0.5-5c0-1.2-0.4-2.2-1.3-3
			c-0.9-0.8-2-1.2-3.3-1.2c-2.6,0-4,1.2-4.5,3.7c-0.7,4-1.1,7.7-1.1,10.8c0,4.8,0.5,10.2,1.4,16.3c0.5,3.1,2,5.4,4.6,7
			c2.3,1.4,5.2,2.1,8.5,2.1c3.3,0,6.5-0.6,9.6-1.7L360.9,70.3z"/>
	</g>
	<g>
		<path d="M407.8,72.3c-1.9,0-3.4-0.9-4.4-2.8c-1.2-2.2-3-4.9-5.4-7.9c-3.7-4.7-5.7-7.3-5.9-7.5c-2,1.4-3.6,2.6-4.9,3.3
			c-0.2,3.4-0.4,6.7-0.4,9.8c0,1.4-0.5,2.6-1.4,3.5c-1,0.9-2.2,1.4-3.6,1.4c-3.5,0-5.2-2.1-5.2-6.2c0-1.9,0.1-4.8,0.4-8.7
			c0.3-3.9,0.4-6.8,0.4-8.7c0-3.6,0.1-7.6,0.2-12.2s0.2-8.6,0.2-12.1c0-1.1-0.1-2.3-0.2-3.7c-0.1-1.4-0.2-2.7-0.2-3.7
			c0-1.4,0.5-2.6,1.4-3.5c1-0.9,2.2-1.4,3.6-1.4c1.5,0,2.7,0.5,3.6,1.4s1.4,2.1,1.4,3.5c0,1.1,0.1,2.4,0.2,3.8
			c0.1,1.5,0.2,2.7,0.2,3.8c0,2.9-0.1,6.4-0.2,10.4c-0.1,3.8-0.2,7.2-0.2,10.2c3.3-2.6,8.4-7.3,15.2-14.1c1.1-1.1,2.3-1.6,3.7-1.6
			s2.6,0.5,3.6,1.5c1.1,1,1.6,2.2,1.6,3.5c0,1.1-0.5,2.2-1.4,3.3c-2.9,3.2-6.3,6.6-10.3,10.2l7.7,9.9c3.7,4.9,5.6,8.2,5.6,9.9
			c0,1.3-0.5,2.5-1.6,3.4C410.4,71.8,409.2,72.3,407.8,72.3z"/>
		<path d="M407.8,72.8c-2.1,0-3.8-1-4.9-3.1c-1.2-2.2-3-4.8-5.4-7.8c-2.9-3.7-4.9-6.2-5.6-7.2c-1.7,1.2-3.1,2.2-4.3,2.9
			c-0.2,3.3-0.3,6.5-0.3,9.5c0,1.6-0.5,2.9-1.6,3.9c-1,1-2.4,1.5-4,1.5c-2.6,0-5.7-1.2-5.7-6.7c0-1.9,0.1-4.9,0.4-8.7
			c0.3-3.8,0.4-6.8,0.4-8.7c0-3.6,0.1-7.7,0.2-12.2c0.1-4.6,0.2-8.6,0.2-12.1c0-1-0.1-2.3-0.2-3.7c-0.1-1.4-0.2-2.7-0.2-3.8
			c0-1.6,0.5-2.9,1.6-3.9c1-1,2.4-1.5,4-1.5c1.6,0,2.9,0.5,4,1.5c1.1,1,1.6,2.3,1.6,3.9c0,1.1,0.1,2.3,0.2,3.8
			c0.1,1.5,0.2,2.8,0.2,3.9c0,2.9-0.1,6.4-0.2,10.4c-0.1,3.4-0.2,6.5-0.2,9.2c3.3-2.7,8.1-7.2,14.4-13.4c1.2-1.2,2.5-1.8,4-1.8
			c1.5,0,2.8,0.6,4,1.6c1.2,1.1,1.7,2.4,1.7,3.9c0,1.3-0.5,2.5-1.6,3.6c-2.8,3.1-6.2,6.5-10,9.9l7.4,9.5c3.8,5.1,5.7,8.4,5.7,10.2
			c0,1.5-0.6,2.8-1.8,3.8C410.6,72.3,409.3,72.8,407.8,72.8z M392.2,53.3l0.3,0.4c0.2,0.3,2.4,3.1,5.9,7.5c2.4,3.1,4.2,5.7,5.5,8
			c0.9,1.7,2.2,2.5,4,2.5c1.3,0,2.4-0.4,3.4-1.3c1-0.9,1.4-1.9,1.4-3.1c0-1-0.9-3.6-5.5-9.6l-7.9-10.2l0.4-0.3
			c4-3.5,7.4-6.9,10.3-10.1c0.9-1,1.3-1.9,1.3-2.9c0-1.2-0.5-2.2-1.4-3.1c-1-0.9-2-1.4-3.3-1.4c-1.2,0-2.3,0.5-3.3,1.5
			c-6.8,6.8-11.9,11.5-15.3,14.1L387,46l0-1c0-3,0-6.4,0.2-10.3c0.1-4,0.2-7.5,0.2-10.4c0-1.1-0.1-2.3-0.2-3.8
			c-0.1-1.5-0.2-2.8-0.2-3.9c0-1.3-0.4-2.3-1.3-3.2c-0.9-0.8-1.9-1.2-3.3-1.2c-1.4,0-2.4,0.4-3.3,1.2c-0.9,0.8-1.3,1.9-1.3,3.2
			c0,1,0.1,2.3,0.2,3.7c0.1,1.4,0.2,2.7,0.2,3.8c0,3.5-0.1,7.6-0.2,12.1c-0.1,4.5-0.2,8.6-0.2,12.2c0,1.9-0.1,4.9-0.4,8.7
			c-0.3,3.8-0.4,6.7-0.4,8.7c0,3.8,1.5,5.7,4.7,5.7c1.3,0,2.4-0.4,3.3-1.3c0.9-0.8,1.3-1.9,1.3-3.2c0-3.1,0.1-6.4,0.4-9.8l0-0.3
			l0.2-0.1c1.3-0.7,2.9-1.9,4.8-3.3L392.2,53.3z"/>
	</g>
	<g>
		<path d="M429.1,53.5c0,1.4,0,3.6,0.1,6.7c0.1,3.1,0.1,5.3,0.1,6.7c0,1.4-0.5,2.6-1.4,3.5s-2.2,1.4-3.6,1.4c-1.5,0-2.7-0.5-3.6-1.4
			s-1.4-2.1-1.4-3.5c0-1.4,0-3.6-0.1-6.7c-0.1-3.1-0.1-5.3-0.1-6.7c0-2.2,0.1-4.9,0.4-8.2c0.2-3.3,0.4-6,0.4-8.2
			c0-1.4,0.5-2.6,1.4-3.5s2.2-1.4,3.6-1.4c1.5,0,2.7,0.5,3.6,1.4s1.4,2.1,1.4,3.5c0,2.2-0.1,4.9-0.4,8.2
			C429.2,48.6,429.1,51.3,429.1,53.5z M425.9,26.5c-1.6,0-2.9-0.5-4.1-1.6s-1.7-2.3-1.7-3.9c0-1.5,0.6-2.8,1.7-3.9s2.5-1.6,4.1-1.6
			c1.6,0,2.9,0.5,4.1,1.6s1.7,2.3,1.7,3.9c0,1.5-0.6,2.8-1.7,3.9S427.5,26.5,425.9,26.5z"/>
		<path d="M424.3,72.4c-1.6,0-2.9-0.5-4-1.5c-1.1-1-1.6-2.3-1.6-3.9c0-1.4,0-3.6-0.1-6.7c-0.1-3-0.1-5.3-0.1-6.7
			c0-2.2,0.1-5,0.4-8.2c0.2-3.3,0.4-6,0.4-8.2c0-1.6,0.5-2.9,1.6-3.9c1-1,2.4-1.5,4-1.5c1.6,0,2.9,0.5,4,1.5c1.1,1,1.6,2.3,1.6,3.9
			c0,2.2-0.1,5-0.4,8.2c-0.2,3.3-0.4,6-0.4,8.2c0,1.4,0,3.7,0.1,6.7c0.1,3.2,0.1,5.4,0.1,6.7c0,1.6-0.5,2.9-1.6,3.9
			C427.2,71.9,425.8,72.4,424.3,72.4z M424.7,32.7c-1.3,0-2.4,0.4-3.3,1.2c-0.9,0.8-1.3,1.9-1.3,3.2c0,2.2-0.1,5-0.4,8.2
			c-0.2,3.3-0.4,6-0.4,8.2c0,1.4,0,3.7,0.1,6.7c0.1,3.1,0.1,5.3,0.1,6.7c0,1.3,0.4,2.3,1.3,3.2c0.9,0.8,1.9,1.2,3.3,1.2
			c1.4,0,2.4-0.4,3.3-1.2c0.9-0.8,1.3-1.9,1.3-3.2c0-1.4,0-3.6-0.1-6.7c-0.1-3-0.1-5.3-0.1-6.7c0-2.2,0.1-5,0.4-8.2
			c0.2-3.3,0.4-6,0.4-8.2c0-1.3-0.4-2.3-1.3-3.2C427.2,33.1,426.1,32.7,424.7,32.7z M425.9,27c-1.7,0-3.2-0.6-4.4-1.7
			c-1.3-1.1-1.9-2.6-1.9-4.2c0-1.7,0.6-3.1,1.9-4.2c1.2-1.1,2.7-1.7,4.4-1.7c1.7,0,3.2,0.6,4.4,1.7c1.2,1.1,1.9,2.6,1.9,4.2
			c0,1.7-0.6,3.1-1.9,4.2C429.1,26.5,427.6,27,425.9,27z M425.9,16.1c-1.5,0-2.7,0.5-3.7,1.5c-1.1,1-1.6,2.1-1.6,3.5
			c0,1.4,0.5,2.5,1.6,3.5c1.1,1,2.3,1.5,3.7,1.5c1.5,0,2.7-0.5,3.7-1.4c1-1,1.6-2.1,1.6-3.5c0-1.4-0.5-2.5-1.6-3.5
			C428.6,16.6,427.4,16.1,425.9,16.1z"/>
	</g>
	<g>
		<path d="M467.7,73.4c-3,0-4.7-1.5-5-4.5c-0.3-2.5-0.7-5.1-1-7.6c-0.4-2.7-0.6-5.2-0.6-7.6c0-0.6,0-1.7,0.1-3.3
			c0.1-1.5,0.1-2.6,0.1-3.3c0-0.2,0-0.6,0.1-1.3c0-0.7,0.1-1.3,0.1-1.7c0-2-0.5-3.1-1.5-3.1c-2.1,0-4.2,1.4-6.2,4.1
			c-2,2.7-3.6,6.1-4.7,10.3c0,0.8-0.1,1.9-0.3,3.3c-0.1,1.1-0.2,2.2-0.2,3.3c0,0.7-0.1,1.8-0.2,3.2c-0.2,1.4-0.2,2.5-0.2,3.2
			c0,1.4-0.5,2.6-1.5,3.6c-1,0.9-2.2,1.4-3.7,1.4c-1.5,0-2.7-0.5-3.6-1.4c-1-0.9-1.4-2.1-1.4-3.5c0-0.7-0.1-1.8-0.2-3.2
			c-0.1-1.4-0.2-2.5-0.2-3.2c0-2.4,0.2-5.7,0.5-10c0.3-4.3,0.5-7.6,0.5-10c0-0.7,0-1.9-0.1-3.4c-0.1-1.5-0.1-2.6-0.1-3.3
			c0-1.4,0.5-2.6,1.5-3.5c1-0.9,2.2-1.4,3.7-1.4c3.2,0,4.9,1.9,5.2,5.8l0,0.4c3.6-3.6,7.4-5.4,11.3-5.4c4.6,0,7.8,1.9,9.6,5.8
			c1.2,2.6,1.8,6.5,1.8,11.7v2.6c0,1.1,0,1.9,0,2.4c0,1.9,0.3,4.4,0.8,7.4c0.5,3,0.8,5.5,0.8,7.4c0,1.4-0.5,2.5-1.5,3.4
			C470.3,72.9,469.1,73.4,467.7,73.4z"/>
		<path d="M467.7,73.9c-3.3,0-5.2-1.7-5.5-4.9c-0.3-2.5-0.7-5.1-1-7.6c-0.4-2.7-0.6-5.3-0.6-7.7c0-0.7,0-1.8,0.1-3.3
			c0.1-1.6,0.1-2.6,0.1-3.2c0-0.2,0-0.6,0.1-1.3c0-0.7,0.1-1.2,0.1-1.7c0-1.2-0.2-2.6-1-2.6c-1.9,0-3.9,1.3-5.8,3.9
			c-2,2.6-3.5,6-4.6,10.1c0,0.8-0.2,2-0.3,3.3c-0.1,1.1-0.2,2.2-0.2,3.3c0,0.7-0.1,1.8-0.2,3.2c-0.2,1.4-0.2,2.4-0.2,3.1
			c0,1.6-0.5,2.9-1.6,3.9c-1.1,1-2.4,1.6-4,1.6c-1.6,0-2.9-0.5-4-1.5c-1.1-1-1.6-2.3-1.6-3.9c0-0.7-0.1-1.7-0.2-3.1
			c-0.2-1.4-0.2-2.5-0.2-3.2c0-2.4,0.2-5.8,0.5-10c0.3-4.2,0.5-7.6,0.5-10c0-0.7,0-1.8-0.1-3.3c-0.1-1.5-0.1-2.6-0.1-3.3
			c0-1.5,0.6-2.8,1.7-3.8c1.1-1,2.4-1.5,4-1.5c2.3,0,5.1,1,5.6,5.6c3.4-3.2,7.1-4.8,10.9-4.8c4.8,0,8.2,2.1,10.1,6.1
			c1.2,2.7,1.8,6.6,1.8,11.9v2.6c0,1.1,0,1.9,0,2.4c0,1.9,0.3,4.3,0.8,7.3c0.5,3,0.8,5.5,0.8,7.4c0,1.5-0.5,2.8-1.6,3.8
			C470.6,73.4,469.2,73.9,467.7,73.9z M460,40.6c1.3,0,2,1.2,2,3.6c0,0.5,0,1-0.1,1.7c0,0.7-0.1,1.1-0.1,1.3c0,0.6,0,1.7-0.1,3.3
			c-0.1,1.5-0.1,2.6-0.1,3.2c0,2.3,0.2,4.9,0.5,7.5c0.3,2.6,0.7,5.1,1,7.6c0.3,2.7,1.8,4,4.5,4c1.3,0,2.4-0.4,3.3-1.2
			c0.9-0.8,1.3-1.8,1.3-3.1c0-1.9-0.3-4.3-0.8-7.3c-0.5-3-0.8-5.5-0.8-7.5c0-0.5,0-1.3,0-2.4v-2.6c0-5.1-0.6-8.9-1.7-11.5
			c-1.7-3.7-4.7-5.5-9.1-5.5c-3.8,0-7.5,1.8-11,5.3l-0.8,0.8l-0.1-1.5c-0.2-3.6-1.7-5.3-4.7-5.3c-1.3,0-2.4,0.4-3.3,1.2
			c-0.9,0.8-1.3,1.8-1.3,3.1c0,0.7,0,1.8,0.1,3.3c0.1,1.5,0.1,2.6,0.1,3.4c0,2.4-0.2,5.8-0.5,10c-0.3,4.2-0.5,7.6-0.5,10
			c0,0.7,0.1,1.7,0.2,3.1c0.2,1.4,0.2,2.5,0.2,3.2c0,1.3,0.4,2.3,1.3,3.2c0.9,0.8,1.9,1.3,3.3,1.3s2.4-0.4,3.3-1.3
			c0.9-0.9,1.3-1.9,1.3-3.2c0-0.7,0.1-1.8,0.2-3.2c0.2-1.4,0.2-2.5,0.2-3.1c0-1.1,0.1-2.2,0.2-3.4c0.2-1.3,0.3-2.5,0.3-3.3l0-0.1
			c1.2-4.2,2.8-7.7,4.8-10.4C455.5,42,457.7,40.6,460,40.6z"/>
	</g>
	<g>
		<path d="M506.3,47c-0.2,0.1-2.2,1.5-6.1,4.3c-2.5,1.7-4.4,3.3-5.7,4.7c-1.2,1.3-2.5,2-3.9,2c-1.4,0-2.6-0.5-3.7-1.5
			c-1.1-1-1.6-2.2-1.6-3.5c0-2,1.6-4.2,4.7-6.6c2.9-2.1,5.8-4.1,8.8-6.2c3.2-2.4,4.7-4.6,4.7-6.5c0-2.3-1.2-4.4-3.5-6.4
			c-2.3-2-4.7-3-7.2-3c-1.3,0-3.1,0.8-5.4,2.3s-3.9,2.3-4.9,2.3c-1.4,0-2.7-0.5-3.7-1.6c-1-1.1-1.5-2.3-1.5-3.6
			c0-2.5,2.1-4.7,6.4-6.7c3.6-1.7,6.6-2.6,9.1-2.6c5.3,0,10.1,2,14.4,5.9c4.3,3.9,6.5,8.4,6.5,13.5C513.9,38.6,511.3,43.1,506.3,47z
			 M488.6,73.4c-1.4,0-2.7-0.4-3.8-1.3c-1.3-1-1.9-2.2-1.9-3.6c0-1.7,0.5-3.2,1.5-4.6c1.2-1.7,2.8-2.6,4.7-2.6c1.7,0,3,0.6,3.9,1.9
			c0.7,1,1.1,2.2,1.1,3.6c0,1.5-0.4,2.9-1.2,4.2C491.9,72.6,490.5,73.4,488.6,73.4z"/>
		<path d="M488.6,73.9c-1.5,0-2.9-0.5-4.1-1.4c-1.4-1.1-2.1-2.4-2.1-4c0-1.8,0.5-3.4,1.6-4.9c1.3-1.9,3-2.8,5.2-2.8
			c1.8,0,3.3,0.7,4.3,2.1c0.8,1.1,1.2,2.4,1.2,3.9c0,1.6-0.4,3.1-1.3,4.5C492.3,73,490.7,73.9,488.6,73.9z M489.2,61.7
			c-1.8,0-3.2,0.8-4.3,2.4c-0.9,1.3-1.4,2.8-1.4,4.4c0,1.3,0.6,2.4,1.7,3.3c1.1,0.8,2.2,1.2,3.5,1.2c1.7,0,2.9-0.7,3.9-2.3
			c0.8-1.2,1.1-2.5,1.1-3.9c0-1.3-0.3-2.4-1-3.4C491.8,62.3,490.7,61.7,489.2,61.7z M490.7,58.4c-1.5,0-2.9-0.6-4-1.7
			c-1.2-1.1-1.7-2.4-1.7-3.9c0-2.1,1.6-4.4,4.9-7c2.9-2.1,5.9-4.1,8.8-6.2c3-2.3,4.5-4.3,4.5-6.1c0-2.1-1.1-4.2-3.3-6
			c-2.2-1.9-4.5-2.9-6.9-2.9c-1.2,0-3,0.7-5.2,2.2c-2.4,1.6-4.1,2.3-5.2,2.3c-1.6,0-2.9-0.6-4-1.8c-1.1-1.2-1.6-2.5-1.6-3.9
			c0-2.7,2.3-5.1,6.7-7.2c3.7-1.8,6.8-2.7,9.3-2.7c5.4,0,10.4,2,14.8,6c4.4,4,6.6,8.7,6.6,13.9c0,5.2-2.6,9.8-7.7,13.8l0,0
			c-0.2,0.1-2.2,1.5-6.1,4.3c-2.4,1.7-4.3,3.3-5.6,4.7C493.7,57.7,492.2,58.4,490.7,58.4z M493,23.7c2.6,0,5.2,1,7.6,3.1
			c2.4,2.1,3.7,4.4,3.7,6.8c0,2.1-1.6,4.4-4.9,6.9c-2.9,2.1-5.9,4.2-8.8,6.2c-3,2.3-4.5,4.4-4.5,6.2c0,1.2,0.5,2.2,1.4,3.2
			c1,0.9,2.1,1.4,3.3,1.4c1.3,0,2.4-0.6,3.5-1.8c1.3-1.5,3.3-3.1,5.8-4.8c3.8-2.7,5.8-4.1,6.1-4.3c4.9-3.8,7.3-8.2,7.3-13
			c0-4.9-2.1-9.3-6.3-13.1c-4.2-3.8-8.9-5.8-14.1-5.8c-2.3,0-5.3,0.9-8.8,2.6c-4.1,1.9-6.2,4.1-6.2,6.3c0,1.2,0.4,2.2,1.4,3.2
			c0.9,1,2,1.4,3.3,1.4c0.6,0,1.9-0.4,4.6-2.2C489.6,24.4,491.5,23.7,493,23.7z"/>
	</g>
</g>
<g>
	<g>
		<path class="st0" d="M76,19.6c-0.4,1-0.9,2.2-1.5,3.7c-0.4,1.4-1.1,3.5-2,6.3c-1.4,3.6-3.6,8.9-6.7,15.7c-3.1,7-5.3,12.3-6.7,15.7
			c-1,2.6-2,4.6-2.8,6.2c-1.2,2-2.9,3.1-5.3,3.1c-1.4,0-2.7-0.4-3.8-1.1c-1.3-0.9-2-2-2.1-3.5c-1.1-2.8-1.8-5.1-2.1-6.9
			c-1.1-5.2-2.6-13.1-4.5-23.7c-1.6,4.9-3.3,9.4-5.2,13.3c-2.7,5.9-4.6,10.5-5.4,13.9c0.2,0.5,0.3,1.1,0.3,1.7c0,1.5-0.7,2.8-2,3.7
			c-1.2,0.8-2.5,1.2-3.9,1.2c-1.8,0-3.3-0.5-4.5-1.4c-1.3-1-1.9-2.4-2-4.1l-1.1-4.3c-0.8-3.8-2.1-9.5-4-17.1
			c-1.6-5.8-4.3-14.1-8.1-24.8c-0.2-0.6-0.3-1.2-0.3-1.8c0-1.5,0.6-2.6,1.7-3.5c1-0.8,2.2-1.2,3.6-1.2c1.9,0,3.3,0.8,4.5,2.4
			c0.6,0.9,1.3,2.4,2.1,4.7c2.4,6.9,5.1,17,8.1,30.2c2-4.8,4-10.4,6-16.9c1.6-5.3,3-9.1,4-11.3c2.5-5.3,5-8,7.5-8
			c2.4,0,4.2,1.3,5.3,3.9c0.5,1.3,1.1,3.5,1.6,6.8c0.1,1,0.5,3.5,1,7.4c0.5,4.2,2.1,11.9,4.6,23c2.6-6.1,6.1-14.9,10.5-26.3
			c0.3-0.7,0.9-2.9,1.9-6.8c0.7-2.7,1.6-4.9,2.7-6.5c1.2-1.7,2.7-2.6,4.7-2.6c1.5,0,2.7,0.5,3.7,1.4c1,0.9,1.5,2.1,1.5,3.6
			C77.3,16.1,76.9,17.4,76,19.6z"/>
		<path d="M51.1,70.8c-1.5,0-2.9-0.4-4.1-1.2c-1.4-1-2.2-2.2-2.3-3.8c-1.1-2.8-1.8-5.2-2.1-7c-1-4.9-2.4-12.2-4.1-21.7
			c-1.4,4.2-3,8.1-4.6,11.5c-2.7,5.7-4.5,10.3-5.3,13.6c0.2,0.6,0.3,1.1,0.3,1.8c0,1.7-0.8,3.1-2.2,4.1c-1.3,0.9-2.7,1.3-4.2,1.3
			c-1.9,0-3.5-0.5-4.8-1.5c-1.4-1.1-2.1-2.6-2.2-4.4l-1.1-4.3c-0.8-3.8-2.1-9.6-4-17.2C8.7,36.3,6,28,2.2,17.3
			c-0.2-0.7-0.4-1.3-0.4-2c0-1.6,0.6-2.9,1.9-3.9c1.1-0.8,2.4-1.3,3.9-1.3c2,0,3.7,0.9,4.9,2.6c0.6,0.9,1.4,2.5,2.2,4.8
			c2.3,6.6,4.9,16.3,7.8,28.7c1.8-4.4,3.6-9.6,5.4-15.4c1.6-5.3,3-9.1,4-11.4c2.6-5.6,5.2-8.3,8-8.3c2.6,0,4.5,1.4,5.7,4.2
			c0.6,1.3,1.1,3.6,1.6,6.9c0.2,1,0.5,3.5,1,7.4c0.5,4,1.9,11.2,4.3,21.5c2.5-6,5.8-14.3,9.9-24.9c0.3-0.7,0.9-2.9,1.9-6.7
			c0.7-2.8,1.6-5,2.8-6.7c1.3-1.9,3-2.8,5.1-2.8c1.6,0,3,0.5,4.1,1.5c1.1,1,1.6,2.3,1.6,3.9c0,0.4-0.1,1.2-1.3,4.2l0,0
			c-0.4,1-0.9,2.2-1.5,3.7c-0.4,1.4-1.1,3.5-2,6.3c-1.4,3.6-3.6,8.9-6.7,15.8c-3.1,7-5.4,12.3-6.7,15.7c-1,2.6-2,4.7-2.9,6.2
			C55.5,69.7,53.6,70.8,51.1,70.8z M38.6,33l0.4,2c1.9,10.5,3.4,18.4,4.5,23.6c0.3,1.8,1,4.1,2.1,6.8l0,0.2c0.1,1.3,0.7,2.3,1.9,3.1
			c1,0.7,2.2,1.1,3.5,1.1c2.2,0,3.8-0.9,4.8-2.8c0.9-1.5,1.8-3.6,2.8-6.1c1.3-3.4,3.6-8.7,6.7-15.7c3-6.8,5.3-12.1,6.7-15.7
			c0.9-2.7,1.6-4.9,2-6.3c0.6-1.5,1.1-2.8,1.5-3.8c1.1-2.7,1.3-3.5,1.3-3.8c0-1.3-0.4-2.4-1.3-3.2c-0.9-0.8-2-1.2-3.4-1.2
			c-1.8,0-3.2,0.8-4.3,2.4c-1,1.5-1.9,3.7-2.6,6.4c-1,3.9-1.7,6.1-1.9,6.8C58.9,38.1,55.4,47,52.8,53l-0.6,1.4l-0.3-1.5
			c-2.6-11.1-4.1-18.9-4.6-23.1c-0.5-3.8-0.8-6.4-1-7.4c-0.5-3.2-1-5.5-1.5-6.7c-1-2.4-2.6-3.6-4.8-3.6c-2.3,0-4.7,2.6-7.1,7.7
			c-1,2.2-2.4,6-4,11.2c-2,6.5-4.1,12.2-6,17l-0.6,1.5L21.9,48c-3-13.2-5.7-23.3-8.1-30.2c-0.8-2.2-1.4-3.7-2-4.5
			c-1-1.4-2.3-2.1-4-2.1c-1.3,0-2.4,0.4-3.3,1.1c-1,0.8-1.5,1.8-1.5,3.1c0,0.6,0.1,1.1,0.3,1.7C6.9,27.7,9.7,36,11.3,41.8
			c1.8,7.6,3.2,13.4,4,17.2l1.2,4.4c0,1.6,0.6,2.8,1.8,3.7c1.1,0.8,2.5,1.3,4.1,1.3c1.3,0,2.5-0.4,3.6-1.1c1.2-0.9,1.8-1.9,1.8-3.3
			c0-0.5-0.1-1.1-0.3-1.5l-0.1-0.2l0-0.2c0.9-3.4,2.7-8.1,5.4-14c1.8-3.9,3.5-8.3,5.1-13.2L38.6,33z"/>
	</g>
	<g>
		<path class="st0" d="M93.5,33.1c1.8-1.8,3.7-3.1,5.8-4c2-0.9,4.2-1.3,6.6-1.3c4.2,0,7.2,1.2,9.1,3.5c1.4,1.8,2.2,4.5,2.5,8.1
			c0.1,3,0.3,6,0.4,9.1c0.4,4,0.6,6.4,0.7,7.2c0.3,2.7,0.8,5.1,1.3,7.1c0.1,0.5,0.2,1,0.2,1.4c0,1.4-0.5,2.5-1.6,3.4
			s-2.3,1.3-3.7,1.3c-2.5,0-4.1-1.2-4.8-3.7c-0.6-2-1.1-4.8-1.6-8.4c-0.4-3.5-0.7-6.3-0.7-8.5c0-0.6,0-1.5,0.1-2.8
			c0.1-1.2,0.1-2.2,0.1-2.8c0-1.8,0-2.9-0.1-3.2c-0.2-1.3-0.9-2-1.9-2c-2.7,0-5.2,1.3-7.4,3.8c-1.1,1.3-2.7,3.6-4.6,7.1
			c0,8.9-0.4,14.2-1.3,16c-1,2-2.5,3-4.6,3c-1.4,0-2.6-0.5-3.7-1.4c-1.1-0.9-1.6-2.1-1.6-3.4c0-0.5,0.1-1.1,0.4-2
			c0.2-0.5,0.3-3.9,0.4-9.9c-0.1-4.9-0.1-13.1,0.1-24.6l0.1-1.2c0.1-2.9,0.2-4.8,0.2-5.8c0-0.8-0.1-1.9-0.3-3.4s-0.3-2.6-0.3-3.4
			c0-1.4,0.5-2.5,1.5-3.4s2.2-1.3,3.6-1.3c2.4,0,4.1,1.3,4.9,3.9c0.5,1.5,0.7,3.7,0.7,6.8c0,2.5-0.1,4.9-0.2,7.5
			C93.6,28.4,93.5,30.7,93.5,33.1z"/>
		<path d="M114.8,69.6c-2.7,0-4.5-1.4-5.3-4c-0.6-2-1.1-4.9-1.6-8.5c-0.4-3.5-0.7-6.4-0.7-8.6c0-0.6,0-1.5,0.1-2.8
			c0.1-1.3,0.1-2.2,0.1-2.8c0-2.3,0-2.9-0.1-3.1c-0.2-1.4-0.9-1.6-1.4-1.6c-2.6,0-4.9,1.2-7,3.6c-1.1,1.2-2.6,3.5-4.5,6.9
			c0,9-0.4,14.2-1.3,16.1c-1,2.2-2.7,3.3-5,3.3c-1.5,0-2.8-0.5-4-1.5c-1.2-1-1.8-2.3-1.8-3.8c0-0.5,0.1-1.2,0.4-2.1
			c0.1-0.3,0.3-1.9,0.4-9.8c-0.1-4.9-0.1-13.2,0.1-24.6l0.1-1.2c0.1-2.9,0.2-4.8,0.2-5.8c0-0.7-0.1-1.8-0.3-3.3
			c-0.2-1.5-0.4-2.7-0.4-3.4c0-1.5,0.6-2.8,1.7-3.8c1.1-1,2.4-1.5,4-1.5c2.7,0,4.5,1.4,5.4,4.2c0.5,1.5,0.7,3.8,0.7,6.9
			c0,2.5-0.1,5-0.2,7.5c-0.1,2-0.2,4-0.2,6c1.6-1.4,3.3-2.5,5.1-3.3c2.1-0.9,4.4-1.3,6.8-1.3c4.3,0,7.5,1.3,9.4,3.7
			c1.4,1.8,2.3,4.7,2.6,8.4c0.1,3,0.3,6.1,0.4,9.1c0.4,3.9,0.6,6.3,0.7,7.2c0.3,2.7,0.8,5.1,1.2,7.1c0.1,0.6,0.2,1,0.2,1.5
			c0,1.5-0.6,2.8-1.7,3.8C117.6,69.1,116.3,69.6,114.8,69.6z M105.9,37.2c0.9,0,2.1,0.4,2.4,2.4c0,0.2,0.1,0.8,0.1,3.2
			c0,0.6,0,1.5-0.1,2.8c-0.1,1.2-0.1,2.2-0.1,2.8c0,2.2,0.2,5,0.7,8.5c0.5,3.6,1,6.4,1.6,8.3c0.7,2.2,2.1,3.3,4.3,3.3
			c1.3,0,2.4-0.4,3.3-1.2c0.9-0.8,1.4-1.8,1.4-3c0-0.4-0.1-0.8-0.2-1.2c-0.5-2-0.9-4.5-1.3-7.2c-0.1-0.9-0.3-3.3-0.7-7.2
			c-0.1-3.1-0.3-6.1-0.4-9.1c-0.3-3.5-1.1-6.2-2.4-7.8c-1.7-2.2-4.6-3.3-8.7-3.3c-2.3,0-4.4,0.4-6.4,1.3c-2,0.8-3.9,2.1-5.6,3.9
			L93,34.3v-1.2c0-2.4,0.1-4.8,0.2-7.2c0.1-2.5,0.2-5,0.2-7.4c0-3-0.2-5.2-0.7-6.6c-0.8-2.4-2.2-3.6-4.4-3.6c-1.3,0-2.4,0.4-3.3,1.2
			c-0.9,0.8-1.3,1.8-1.3,3.1c0,0.7,0.1,1.8,0.3,3.3c0.2,1.5,0.4,2.7,0.4,3.4c0,1-0.1,3-0.2,5.8l-0.1,1.2C84,37.8,83.9,46.1,84.1,51
			c-0.2,9.2-0.4,9.9-0.5,10.1c-0.3,0.8-0.4,1.4-0.4,1.8c0,1.2,0.5,2.2,1.4,3c1,0.8,2.1,1.3,3.3,1.3c1.9,0,3.2-0.9,4.1-2.7
			c0.8-1.7,1.2-7.1,1.2-15.8v-0.1l0.1-0.1c2-3.6,3.5-5.9,4.7-7.2C100.4,38.5,103,37.2,105.9,37.2z"/>
	</g>
	<g>
		<path class="st0" d="M141.3,68.9c-4.5,0-8.4-1.6-11.7-4.7c-3.6-3.4-5.5-8-5.6-13.7c-0.2-5.4,1.3-10.3,4.5-14.5
			c3.7-5,8.9-7.5,15.6-7.5c4.9,0,8.8,2,11.7,5.9c2.6,3.5,3.9,7.9,3.9,13.1c0,5.7-1.5,10.5-4.6,14.6C151.6,66.7,147,68.9,141.3,68.9z
			 M143.5,38.3c-3,0-5.4,1.3-7.1,4.1c-1.5,2.3-2.2,5.1-2.2,8.2c0,2.9,0.8,5.2,2.5,6.8c1.3,1.3,2.9,1.9,4.6,1.9c2.1,0,4-0.7,5.6-2.2
			c1.8-1.7,2.7-4,2.9-6.9C150,42.3,148,38.4,143.5,38.3z"/>
		<path d="M141.3,69.4c-4.7,0-8.7-1.6-12-4.8c-3.7-3.5-5.6-8.2-5.8-14c-0.2-5.5,1.4-10.5,4.6-14.8c3.8-5.1,9.2-7.7,16-7.7
			c5,0,9.1,2,12.1,6.1c2.7,3.6,4,8.1,4,13.4c0,5.8-1.6,10.8-4.7,14.9C151.9,67.1,147.2,69.4,141.3,69.4z M144,29.1
			c-6.5,0-11.6,2.5-15.2,7.3c-3.1,4.1-4.5,8.9-4.4,14.2c0.2,5.5,2,10,5.5,13.3c3.2,3,7,4.5,11.4,4.5c5.5,0,10-2.2,13.3-6.5
			c3-3.9,4.5-8.7,4.5-14.3c0-5.1-1.3-9.4-3.8-12.8C152.5,31,148.7,29.1,144,29.1z M141.3,59.8c-1.9,0-3.6-0.7-5-2
			c-1.8-1.7-2.7-4.1-2.7-7.1c0-3.2,0.8-6,2.3-8.4c1.8-2.9,4.4-4.4,7.6-4.4c1.7,0,3.2,0.6,4.3,1.7c1.9,2,2.7,5.4,2.5,10.7
			c-0.1,3-1.1,5.4-3,7.2C145.5,59,143.5,59.8,141.3,59.8z M143.4,38.8c-2.8,0-5,1.3-6.6,3.9c-1.4,2.2-2.1,4.9-2.1,7.9
			c0,2.8,0.8,4.9,2.3,6.4c1.2,1.2,2.6,1.7,4.3,1.7c2,0,3.7-0.7,5.2-2c1.7-1.6,2.6-3.8,2.7-6.5c0.2-4.9-0.5-8.2-2.2-10
			C146.1,39.3,145,38.8,143.4,38.8L143.4,38.8C143.5,38.8,143.4,38.8,143.4,38.8z"/>
	</g>
	<g>
		<path class="st0" d="M210,49.5c0,1.4,0,3.6,0.1,6.7c0.1,3.1,0.1,5.3,0.1,6.7c0,1.4-0.5,2.6-1.4,3.5s-2.2,1.4-3.6,1.4
			c-1.5,0-2.7-0.5-3.6-1.4s-1.4-2.1-1.4-3.5c0-1.4,0-3.6-0.1-6.7c-0.1-3.1-0.1-5.3-0.1-6.7c0-2.2,0.1-4.9,0.4-8.2
			c0.2-3.3,0.4-6,0.4-8.2c0-1.4,0.5-2.6,1.4-3.5s2.2-1.4,3.6-1.4c1.5,0,2.7,0.5,3.6,1.4s1.4,2.1,1.4,3.5c0,2.2-0.1,4.9-0.4,8.2
			C210.1,44.6,210,47.3,210,49.5z M206.8,22.5c-1.6,0-2.9-0.5-4.1-1.6s-1.7-2.3-1.7-3.9c0-1.5,0.6-2.8,1.7-3.9s2.5-1.6,4.1-1.6
			c1.6,0,2.9,0.5,4.1,1.6s1.7,2.3,1.7,3.9c0,1.5-0.6,2.8-1.7,3.9S208.4,22.5,206.8,22.5z"/>
		<path d="M205.1,68.4c-1.6,0-2.9-0.5-4-1.5c-1.1-1-1.6-2.3-1.6-3.9c0-1.4,0-3.6-0.1-6.7c-0.1-3-0.1-5.3-0.1-6.7
			c0-2.2,0.1-5,0.4-8.2c0.2-3.3,0.4-6,0.4-8.2c0-1.6,0.5-2.9,1.6-3.9c1-1,2.4-1.5,4-1.5c1.6,0,2.9,0.5,4,1.5c1.1,1,1.6,2.3,1.6,3.9
			c0,2.2-0.1,5-0.4,8.2c-0.2,3.3-0.4,6-0.4,8.2c0,1.4,0,3.7,0.1,6.7c0.1,3.2,0.1,5.4,0.1,6.7c0,1.6-0.5,2.9-1.6,3.9
			C208.1,67.9,206.7,68.4,205.1,68.4z M205.6,28.7c-1.3,0-2.4,0.4-3.3,1.2c-0.9,0.8-1.3,1.9-1.3,3.2c0,2.2-0.1,5-0.4,8.2
			c-0.2,3.3-0.4,6-0.4,8.2c0,1.4,0,3.7,0.1,6.7c0.1,3.1,0.1,5.3,0.1,6.7c0,1.3,0.4,2.3,1.3,3.2c0.9,0.8,1.9,1.2,3.3,1.2
			c1.4,0,2.4-0.4,3.3-1.2c0.9-0.8,1.3-1.9,1.3-3.2c0-1.4,0-3.6-0.1-6.7c-0.1-3-0.1-5.3-0.1-6.7c0-2.2,0.1-5,0.4-8.2
			c0.2-3.3,0.4-6,0.4-8.2c0-1.3-0.4-2.3-1.3-3.2C208,29.1,207,28.7,205.6,28.7z M206.8,23c-1.7,0-3.2-0.6-4.4-1.7
			c-1.3-1.1-1.9-2.6-1.9-4.2c0-1.7,0.6-3.1,1.9-4.2c1.2-1.1,2.7-1.7,4.4-1.7c1.7,0,3.2,0.6,4.4,1.7c1.2,1.1,1.9,2.6,1.9,4.2
			c0,1.7-0.6,3.1-1.9,4.2C210,22.5,208.5,23,206.8,23z M206.8,12.1c-1.5,0-2.7,0.5-3.7,1.5c-1.1,1-1.6,2.1-1.6,3.5
			c0,1.4,0.5,2.5,1.6,3.5c1.1,1,2.3,1.5,3.7,1.5c1.5,0,2.7-0.5,3.7-1.4c1-1,1.6-2.1,1.6-3.5c0-1.4-0.5-2.5-1.6-3.5
			C209.5,12.6,208.3,12.1,206.8,12.1z"/>
	</g>
	<g>
		<path class="st0" d="M245.5,39.8c-2.4,0-3.9-1-4.4-3.1c-1-0.2-2-0.3-3-0.3c-5.9,0-8.9,0.8-8.9,2.4c0,1,1.8,2.2,5.3,3.9
			c4.9,2.2,8.1,4,9.9,5.2c3.6,2.6,5.3,5.5,5.3,8.7c0,4.2-2,7.4-5.9,9.6c-3.2,1.7-7.1,2.6-11.7,2.6c-3.3,0-6.2-0.5-8.9-1.5
			c-3.7-1.4-5.5-3.4-5.5-6.1c0-2.5,1.5-3.7,4.4-3.7c1.1,0,2.8,0.4,4.9,1.1c2.1,0.7,3.8,1.1,4.9,1.1c5,0,7.5-1,7.5-3
			c0-1.3-1.7-2.6-5.2-4.2c-5.1-2.2-8.3-3.8-9.7-4.8c-3.5-2.4-5.2-5.4-5.2-8.9c0-4.9,2.6-8.3,7.8-10c3.1-1,7.7-1.5,14-1.5
			c2.5,0,4.3,0.3,5.4,1c1.6,0.9,2.4,2.4,2.4,4.7C249,37.6,247.8,39.8,245.5,39.8z"/>
		<path d="M232.2,69.5c-3.3,0-6.4-0.5-9.1-1.5c-3.9-1.4-5.8-3.6-5.8-6.5c0-1.9,0.8-4.2,4.9-4.2c1.2,0,2.8,0.4,5.1,1.1
			c2.1,0.7,3.7,1,4.8,1c3.2,0,7-0.4,7-2.5c0-0.6-0.6-1.8-4.9-3.7c-5.1-2.3-8.3-3.9-9.8-4.9c-3.6-2.5-5.4-5.6-5.4-9.3
			c0-5.1,2.8-8.7,8.2-10.4c3.1-1,7.9-1.5,14.1-1.5c2.6,0,4.4,0.3,5.7,1c1.8,0.9,2.7,2.7,2.7,5.2c0,4.7-1.4,7.1-4.1,7.1
			c-3.1,0-4.3-1.6-4.8-3.1c-0.9-0.1-1.7-0.2-2.6-0.2c-7.6,0-8.4,1.3-8.4,1.9c0,0.3,0.4,1.3,5,3.4c4.9,2.3,8.2,4,9.9,5.3
			c3.7,2.7,5.5,5.7,5.5,9.1c0,4.4-2.1,7.8-6.1,10C240.9,68.6,236.9,69.5,232.2,69.5z M222.1,58.2c-2.6,0-3.9,1-3.9,3.2
			c0,2.5,1.7,4.3,5.2,5.6c2.6,1,5.6,1.5,8.8,1.5c4.5,0,8.3-0.9,11.4-2.6c3.8-2.1,5.6-5.1,5.6-9.2c0-3.1-1.7-5.9-5.1-8.3
			c-1.7-1.2-5-3-9.8-5.2c-5-2.3-5.6-3.5-5.6-4.3c0-2,3-2.9,9.4-2.9c1.1,0,2.1,0.1,3.1,0.3l0.3,0.1l0.1,0.3c0.4,1.8,1.7,2.7,3.9,2.7
			c0.8,0,3.1,0,3.1-6.1c0-2.1-0.7-3.5-2.2-4.3c-1.1-0.6-2.9-0.9-5.2-0.9c-6.2,0-10.8,0.5-13.8,1.5c-5,1.7-7.5,4.8-7.5,9.5
			c0,3.3,1.7,6.1,5,8.5c1.4,1,4.6,2.6,9.6,4.8c3.7,1.6,5.5,3.1,5.5,4.6c0,2.4-2.6,3.5-8,3.5c-1.2,0-2.9-0.4-5.1-1.1
			C224.8,58.6,223.2,58.2,222.1,58.2z"/>
	</g>
	<g>
		<path class="st0" d="M324,20.8c-0.6,0-1.2-0.1-1.9-0.3c-3.2-1-7-1.5-11.6-1.5c-1.5,0-3.2,0.1-5.2,0.3s-4.1,0.5-6.5,0.9
			c0,4.7,0,8.8,0,12.1c3.7-0.9,6.8-1.4,9.3-1.4c4.6,0,8.5,0.2,11.9,0.6c3.2,0.4,4.7,2.1,4.7,5c0,1.4-0.5,2.6-1.5,3.6
			c-1,1-2.2,1.4-3.7,1.4c-1.3,0-3.2-0.1-5.7-0.3c-2.6-0.2-4.5-0.3-5.7-0.3c-1.8,0-4.9,0.6-9.3,1.7v23.1c0,1.4-0.6,2.6-1.7,3.6
			c-1.1,1-2.4,1.4-3.8,1.4c-1.4,0-2.6-0.5-3.5-1.4s-1.3-2.1-1.3-3.6V23.5c0-1,0-2.4,0.1-4.3c0-1.9,0.1-3.4,0.1-4.3
			c0-1.4,0.5-2.6,1.5-3.6c1-1,2.2-1.4,3.7-1.4c0.9,0,1.8,0.2,2.5,0.6c2.8-0.5,5.5-0.9,7.8-1.1c2.4-0.2,4.5-0.3,6.4-0.3
			c2.8,0,6.3,0.6,10.6,1.7c5.3,1.4,8,3.1,8,5c0,1.4-0.5,2.6-1.5,3.6C326.6,20.3,325.4,20.8,324,20.8z"/>
		<path d="M293.4,71.2c-1.6,0-2.8-0.5-3.8-1.6c-1-1-1.5-2.4-1.5-3.9V23.5c0-1,0-2.4,0.1-4.4c0-1.9,0.1-3.4,0.1-4.3
			c0-1.6,0.5-2.9,1.6-4c1.1-1,2.4-1.6,4-1.6c0.9,0,1.8,0.2,2.5,0.5c2.8-0.5,5.4-0.8,7.7-1.1c2.4-0.2,4.6-0.4,6.5-0.4
			c2.8,0,6.4,0.6,10.7,1.7c5.6,1.5,8.4,3.3,8.4,5.5c0,1.5-0.5,2.9-1.6,4c-1.1,1.1-2.4,1.7-3.9,1.7c-0.6,0-1.3-0.1-2-0.4
			c-3.1-1-6.9-1.5-11.4-1.5c-1.5,0-3.2,0.1-5.1,0.3c-1.8,0.2-3.8,0.5-6,0.8c0,4.2,0,7.9,0,11.1c3.5-0.8,6.4-1.2,8.8-1.2
			c4.6,0,8.6,0.2,12,0.6c3.4,0.4,5.2,2.3,5.2,5.5c0,1.6-0.6,2.9-1.7,3.9c-1.1,1-2.5,1.6-4,1.6c-1.3,0-3.2-0.1-5.8-0.3
			c-2.5-0.2-4.5-0.3-5.7-0.3c-1.7,0-4.6,0.5-8.8,1.6v22.7c0,1.6-0.6,2.9-1.8,3.9C296.3,70.7,294.9,71.2,293.4,71.2z M293.8,10.3
			c-1.3,0-2.4,0.4-3.3,1.3c-0.9,0.9-1.3,1.9-1.3,3.3c0,1,0,2.4-0.1,4.4c0,1.9-0.1,3.4-0.1,4.3v42.2c0,1.3,0.4,2.4,1.2,3.2
			c0.8,0.8,1.8,1.3,3.1,1.3c1.3,0,2.5-0.4,3.5-1.3c1-0.9,1.5-1.9,1.5-3.2V42.2l0.4-0.1c4.5-1.1,7.5-1.7,9.4-1.7
			c1.3,0,3.2,0.1,5.8,0.3c2.5,0.2,4.4,0.3,5.7,0.3c1.3,0,2.4-0.4,3.3-1.3c0.9-0.9,1.4-1.9,1.4-3.2c0-2.7-1.4-4.1-4.3-4.5
			c-3.4-0.4-7.3-0.6-11.9-0.6c-2.4,0-5.5,0.5-9.2,1.3l-0.6,0.2l0-0.6c0-3.4,0-7.4,0-12.1l0-0.4l0.4-0.1c2.4-0.4,4.6-0.7,6.5-0.9
			c2-0.2,3.7-0.3,5.2-0.3c4.6,0,8.5,0.5,11.7,1.6c0.6,0.2,1.2,0.3,1.7,0.3c1.3,0,2.3-0.4,3.2-1.4c0.9-0.9,1.3-2,1.3-3.3
			c0-1.1-1.3-2.8-7.6-4.6c-4.2-1.1-7.7-1.7-10.4-1.7c-1.9,0-4,0.1-6.4,0.3c-2.4,0.2-5,0.6-7.8,1.1l-0.2,0l-0.1-0.1
			C295.4,10.4,294.7,10.3,293.8,10.3z"/>
	</g>
	<g>
		<path class="st0" d="M366.9,45.5c0,1.6,0,4.1,0,7.4s0,5.8,0,7.4c0,0.5,0,1.3,0.1,2.3c0.1,1,0.1,1.8,0.1,2.3c0,1.4-0.5,2.5-1.5,3.4
			c-1,0.9-2.2,1.3-3.7,1.3c-2,0-3.5-0.9-4.5-2.8c-3.1,1.2-6.4,1.7-9.8,1.7c-3.5,0-6.4-0.7-8.8-2.2c-2.7-1.7-4.3-4.1-4.8-7.4
			c-1-6.1-1.4-11.6-1.4-16.4c0-3.2,0.4-6.8,1.1-10.9c0.5-2.8,2.1-4.1,5-4.1c1.4,0,2.6,0.4,3.6,1.3s1.5,2,1.5,3.4
			c0,1.1-0.2,2.8-0.5,5c-0.4,2.3-0.5,4-0.5,5.2c0,3.4,0.1,6.4,0.3,9s0.6,4.7,1,6.4c0.6,0.3,1.2,0.5,1.8,0.6c0.6,0.1,1.1,0.2,1.7,0.2
			c2.7,0,5.7-0.4,9-1.2c0-1.9,0-4,0-6.4c0-2.9-0.1-4.9-0.1-6.2c0-5,0.2-9.4,0.7-13c0.4-2.9,2-4.4,5-4.4c1.4,0,2.7,0.5,3.7,1.4
			c1,0.9,1.5,2,1.4,3.4C367.1,41.9,366.9,46.2,366.9,45.5z"/>
		<path d="M362.1,70.2c-2.1,0-3.7-0.9-4.7-2.6c-3.1,1.1-6.3,1.6-9.5,1.6c-3.6,0-6.6-0.8-9.1-2.3c-2.8-1.8-4.5-4.3-5-7.7
			c-1-6.1-1.4-11.6-1.4-16.4c0-3.2,0.4-6.9,1.1-11c0.5-3,2.4-4.5,5.5-4.5c1.5,0,2.9,0.5,4,1.5c1.1,1,1.7,2.2,1.7,3.8
			c0,1.1-0.2,2.8-0.5,5.1c-0.4,2.3-0.5,4-0.5,5.1c0,3.4,0.1,6.4,0.3,9c0.2,2.4,0.5,4.4,1,6.1c0.5,0.2,1,0.4,1.5,0.5
			c0.5,0.1,1.1,0.2,1.6,0.2c2.6,0,5.4-0.4,8.5-1.1c0-1.8,0-3.8,0-6c0-2.9-0.1-4.9-0.1-6.2c0-5,0.2-9.4,0.7-13.1
			c0.4-3.2,2.3-4.8,5.5-4.8c1.6,0,2.9,0.5,4,1.5c1.1,1,1.7,2.3,1.6,3.8c-0.2,4.3-0.4,7.6-0.5,9.8c-0.1,1.7-0.1,2.7-0.2,3.2h0h0h0
			c0,0,0,0,0,0l0,0c0,1.6,0,4.1,0,7.4c0,3.3,0,5.8,0,7.4c0,0.5,0,1.3,0.1,2.3c0.1,1,0.1,1.8,0.1,2.3c0,1.5-0.6,2.8-1.7,3.8
			C365,69.7,363.6,70.2,362.1,70.2z M357.9,66.3l0.2,0.4c0.8,1.7,2.2,2.5,4,2.5c1.3,0,2.4-0.4,3.3-1.2c0.9-0.8,1.3-1.8,1.3-3
			c0-0.5,0-1.3-0.1-2.3c-0.1-1-0.1-1.8-0.1-2.3c0-1.6,0-4.1,0-7.4c0-3.3,0-5.8,0-7.4h0.1l-0.1,0c0-0.2,0.2-2.7,0.7-13
			c0.1-1.2-0.3-2.2-1.3-3c-0.9-0.8-2.1-1.2-3.4-1.2c-2.7,0-4.2,1.3-4.5,3.9c-0.5,3.6-0.7,8-0.7,13c0,1.2,0,3.3,0.1,6.2
			c0,2.4,0,4.6,0,6.4v0.4l-0.4,0.1c-3.3,0.8-6.3,1.2-9.1,1.2c-0.6,0-1.2-0.1-1.8-0.2c-0.6-0.1-1.2-0.4-1.9-0.6l-0.2-0.1l-0.1-0.2
			c-0.5-1.7-0.8-3.9-1.1-6.5c-0.2-2.6-0.4-5.6-0.4-9.1c0-1.2,0.2-3,0.5-5.3c0.3-2.3,0.5-3.9,0.5-5c0-1.2-0.4-2.2-1.3-3
			c-0.9-0.8-2-1.2-3.3-1.2c-2.6,0-4,1.2-4.5,3.7c-0.7,4-1.1,7.7-1.1,10.8c0,4.8,0.5,10.2,1.4,16.3c0.5,3.1,2,5.4,4.6,7
			c2.3,1.4,5.2,2.1,8.5,2.1c3.3,0,6.5-0.6,9.6-1.7L357.9,66.3z"/>
	</g>
	<g>
		<path class="st0" d="M404.8,68.3c-1.9,0-3.4-0.9-4.4-2.8c-1.2-2.2-3-4.9-5.4-7.9c-3.7-4.7-5.7-7.3-5.9-7.5c-2,1.4-3.6,2.6-4.9,3.3
			c-0.2,3.4-0.4,6.7-0.4,9.8c0,1.4-0.5,2.6-1.4,3.5c-1,0.9-2.2,1.4-3.6,1.4c-3.5,0-5.2-2.1-5.2-6.2c0-1.9,0.1-4.8,0.4-8.7
			c0.3-3.9,0.4-6.8,0.4-8.7c0-3.6,0.1-7.6,0.2-12.2s0.2-8.6,0.2-12.1c0-1.1-0.1-2.3-0.2-3.7c-0.1-1.4-0.2-2.7-0.2-3.7
			c0-1.4,0.5-2.6,1.4-3.5c1-0.9,2.2-1.4,3.6-1.4c1.5,0,2.7,0.5,3.6,1.4s1.4,2.1,1.4,3.5c0,1.1,0.1,2.4,0.2,3.8
			c0.1,1.5,0.2,2.7,0.2,3.8c0,2.9-0.1,6.4-0.2,10.4c-0.1,3.8-0.2,7.2-0.2,10.2c3.3-2.6,8.4-7.3,15.2-14.1c1.1-1.1,2.3-1.6,3.7-1.6
			s2.6,0.5,3.6,1.5c1.1,1,1.6,2.2,1.6,3.5c0,1.1-0.5,2.2-1.4,3.3c-2.9,3.2-6.3,6.6-10.3,10.2l7.7,9.9c3.7,4.9,5.6,8.2,5.6,9.9
			c0,1.3-0.5,2.5-1.6,3.4C407.4,67.8,406.2,68.3,404.8,68.3z"/>
		<path d="M404.8,68.8c-2.1,0-3.8-1-4.9-3.1c-1.2-2.2-3-4.8-5.4-7.8c-2.9-3.7-4.9-6.2-5.6-7.2c-1.7,1.2-3.1,2.2-4.3,2.9
			c-0.2,3.3-0.3,6.5-0.3,9.5c0,1.6-0.5,2.9-1.6,3.9c-1,1-2.4,1.5-4,1.5c-2.6,0-5.7-1.2-5.7-6.7c0-1.9,0.1-4.9,0.4-8.7
			c0.3-3.8,0.4-6.8,0.4-8.7c0-3.6,0.1-7.7,0.2-12.2c0.1-4.6,0.2-8.6,0.2-12.1c0-1-0.1-2.3-0.2-3.7c-0.1-1.4-0.2-2.7-0.2-3.8
			c0-1.6,0.5-2.9,1.6-3.9c1-1,2.4-1.5,4-1.5c1.6,0,2.9,0.5,4,1.5c1.1,1,1.6,2.3,1.6,3.9c0,1.1,0.1,2.3,0.2,3.8
			c0.1,1.5,0.2,2.8,0.2,3.9c0,2.9-0.1,6.4-0.2,10.4c-0.1,3.4-0.2,6.5-0.2,9.2c3.3-2.7,8.1-7.2,14.4-13.4c1.2-1.2,2.5-1.8,4-1.8
			c1.5,0,2.8,0.6,4,1.6c1.2,1.1,1.7,2.4,1.7,3.9c0,1.3-0.5,2.5-1.6,3.6c-2.8,3.1-6.2,6.5-10,9.9l7.4,9.5c3.8,5.1,5.7,8.4,5.7,10.2
			c0,1.5-0.6,2.8-1.8,3.8C407.6,68.3,406.3,68.8,404.8,68.8z M389.2,49.3l0.3,0.4c0.2,0.3,2.4,3.1,5.9,7.5c2.4,3.1,4.2,5.7,5.5,8
			c0.9,1.7,2.2,2.5,4,2.5c1.3,0,2.4-0.4,3.4-1.3c1-0.9,1.4-1.9,1.4-3.1c0-1-0.9-3.6-5.5-9.6l-7.9-10.2l0.4-0.3
			c4-3.5,7.4-6.9,10.3-10.1c0.9-1,1.3-1.9,1.3-2.9c0-1.2-0.5-2.2-1.4-3.1c-1-0.9-2-1.4-3.3-1.4c-1.2,0-2.3,0.5-3.3,1.5
			c-6.8,6.8-11.9,11.5-15.3,14.1L384,42l0-1c0-3,0-6.4,0.2-10.3c0.1-4,0.2-7.5,0.2-10.4c0-1.1-0.1-2.3-0.2-3.8
			c-0.1-1.5-0.2-2.8-0.2-3.9c0-1.3-0.4-2.3-1.3-3.2c-0.9-0.8-1.9-1.2-3.3-1.2c-1.4,0-2.4,0.4-3.3,1.2c-0.9,0.8-1.3,1.9-1.3,3.2
			c0,1,0.1,2.3,0.2,3.7c0.1,1.4,0.2,2.7,0.2,3.8c0,3.5-0.1,7.6-0.2,12.1c-0.1,4.5-0.2,8.6-0.2,12.2c0,1.9-0.1,4.9-0.4,8.7
			c-0.3,3.8-0.4,6.7-0.4,8.7c0,3.8,1.5,5.7,4.7,5.7c1.3,0,2.4-0.4,3.3-1.3c0.9-0.8,1.3-1.9,1.3-3.2c0-3.1,0.1-6.4,0.4-9.8l0-0.3
			l0.2-0.1c1.3-0.7,2.9-1.9,4.8-3.3L389.2,49.3z"/>
	</g>
	<g>
		<path class="st0" d="M426.1,49.5c0,1.4,0,3.6,0.1,6.7c0.1,3.1,0.1,5.3,0.1,6.7c0,1.4-0.5,2.6-1.4,3.5s-2.2,1.4-3.6,1.4
			c-1.5,0-2.7-0.5-3.6-1.4s-1.4-2.1-1.4-3.5c0-1.4,0-3.6-0.1-6.7c-0.1-3.1-0.1-5.3-0.1-6.7c0-2.2,0.1-4.9,0.4-8.2
			c0.2-3.3,0.4-6,0.4-8.2c0-1.4,0.5-2.6,1.4-3.5s2.2-1.4,3.6-1.4c1.5,0,2.7,0.5,3.6,1.4s1.4,2.1,1.4,3.5c0,2.2-0.1,4.9-0.4,8.2
			C426.2,44.6,426.1,47.3,426.1,49.5z M422.9,22.5c-1.6,0-2.9-0.5-4.1-1.6s-1.7-2.3-1.7-3.9c0-1.5,0.6-2.8,1.7-3.9s2.5-1.6,4.1-1.6
			c1.6,0,2.9,0.5,4.1,1.6s1.7,2.3,1.7,3.9c0,1.5-0.6,2.8-1.7,3.9S424.5,22.5,422.9,22.5z"/>
		<path d="M421.3,68.4c-1.6,0-2.9-0.5-4-1.5c-1.1-1-1.6-2.3-1.6-3.9c0-1.4,0-3.6-0.1-6.7c-0.1-3-0.1-5.3-0.1-6.7
			c0-2.2,0.1-5,0.4-8.2c0.2-3.3,0.4-6,0.4-8.2c0-1.6,0.5-2.9,1.6-3.9c1-1,2.4-1.5,4-1.5c1.6,0,2.9,0.5,4,1.5c1.1,1,1.6,2.3,1.6,3.9
			c0,2.2-0.1,5-0.4,8.2c-0.2,3.3-0.4,6-0.4,8.2c0,1.4,0,3.7,0.1,6.7c0.1,3.2,0.1,5.4,0.1,6.7c0,1.6-0.5,2.9-1.6,3.9
			C424.2,67.9,422.8,68.4,421.3,68.4z M421.7,28.7c-1.3,0-2.4,0.4-3.3,1.2c-0.9,0.8-1.3,1.9-1.3,3.2c0,2.2-0.1,5-0.4,8.2
			c-0.2,3.3-0.4,6-0.4,8.2c0,1.4,0,3.7,0.1,6.7c0.1,3.1,0.1,5.3,0.1,6.7c0,1.3,0.4,2.3,1.3,3.2c0.9,0.8,1.9,1.2,3.3,1.2
			c1.4,0,2.4-0.4,3.3-1.2c0.9-0.8,1.3-1.9,1.3-3.2c0-1.4,0-3.6-0.1-6.7c-0.1-3-0.1-5.3-0.1-6.7c0-2.2,0.1-5,0.4-8.2
			c0.2-3.3,0.4-6,0.4-8.2c0-1.3-0.4-2.3-1.3-3.2C424.2,29.1,423.1,28.7,421.7,28.7z M422.9,23c-1.7,0-3.2-0.6-4.4-1.7
			c-1.3-1.1-1.9-2.6-1.9-4.2c0-1.7,0.6-3.1,1.9-4.2c1.2-1.1,2.7-1.7,4.4-1.7c1.7,0,3.2,0.6,4.4,1.7c1.2,1.1,1.9,2.6,1.9,4.2
			c0,1.7-0.6,3.1-1.9,4.2C426.1,22.5,424.6,23,422.9,23z M422.9,12.1c-1.5,0-2.7,0.5-3.7,1.5c-1.1,1-1.6,2.1-1.6,3.5
			c0,1.4,0.5,2.5,1.6,3.5c1.1,1,2.3,1.5,3.7,1.5c1.5,0,2.7-0.5,3.7-1.4c1-1,1.6-2.1,1.6-3.5c0-1.4-0.5-2.5-1.6-3.5
			C425.6,12.6,424.4,12.1,422.9,12.1z"/>
	</g>
	<g>
		<path class="st0" d="M464.7,69.4c-3,0-4.7-1.5-5-4.5c-0.3-2.5-0.7-5.1-1-7.6c-0.4-2.7-0.6-5.2-0.6-7.6c0-0.6,0-1.7,0.1-3.3
			c0.1-1.5,0.1-2.6,0.1-3.3c0-0.2,0-0.6,0.1-1.3c0-0.7,0.1-1.3,0.1-1.7c0-2-0.5-3.1-1.5-3.1c-2.1,0-4.2,1.4-6.2,4.1
			c-2,2.7-3.6,6.1-4.7,10.3c0,0.8-0.1,1.9-0.3,3.3c-0.1,1.1-0.2,2.2-0.2,3.3c0,0.7-0.1,1.8-0.2,3.2c-0.2,1.4-0.2,2.5-0.2,3.2
			c0,1.4-0.5,2.6-1.5,3.6c-1,0.9-2.2,1.4-3.7,1.4c-1.5,0-2.7-0.5-3.6-1.4c-1-0.9-1.4-2.1-1.4-3.5c0-0.7-0.1-1.8-0.2-3.2
			c-0.1-1.4-0.2-2.5-0.2-3.2c0-2.4,0.2-5.7,0.5-10c0.3-4.3,0.5-7.6,0.5-10c0-0.7,0-1.9-0.1-3.4c-0.1-1.5-0.1-2.6-0.1-3.3
			c0-1.4,0.5-2.6,1.5-3.5c1-0.9,2.2-1.4,3.7-1.4c3.2,0,4.9,1.9,5.2,5.8l0,0.4c3.6-3.6,7.4-5.4,11.3-5.4c4.6,0,7.8,1.9,9.6,5.8
			c1.2,2.6,1.8,6.5,1.8,11.7v2.6c0,1.1,0,1.9,0,2.4c0,1.9,0.3,4.4,0.8,7.4c0.5,3,0.8,5.5,0.8,7.4c0,1.4-0.5,2.5-1.5,3.4
			C467.3,68.9,466.1,69.4,464.7,69.4z"/>
		<path d="M464.7,69.9c-3.3,0-5.2-1.7-5.5-4.9c-0.3-2.5-0.7-5.1-1-7.6c-0.4-2.7-0.6-5.3-0.6-7.7c0-0.7,0-1.8,0.1-3.3
			c0.1-1.6,0.1-2.6,0.1-3.2c0-0.2,0-0.6,0.1-1.3c0-0.7,0.1-1.2,0.1-1.7c0-1.2-0.2-2.6-1-2.6c-1.9,0-3.9,1.3-5.8,3.9
			c-2,2.6-3.5,6-4.6,10.1c0,0.8-0.2,2-0.3,3.3c-0.1,1.1-0.2,2.2-0.2,3.3c0,0.7-0.1,1.8-0.2,3.2c-0.2,1.4-0.2,2.4-0.2,3.1
			c0,1.6-0.5,2.9-1.6,3.9c-1.1,1-2.4,1.6-4,1.6c-1.6,0-2.9-0.5-4-1.5c-1.1-1-1.6-2.3-1.6-3.9c0-0.7-0.1-1.7-0.2-3.1
			c-0.2-1.4-0.2-2.5-0.2-3.2c0-2.4,0.2-5.8,0.5-10c0.3-4.2,0.5-7.6,0.5-10c0-0.7,0-1.8-0.1-3.3c-0.1-1.5-0.1-2.6-0.1-3.3
			c0-1.5,0.6-2.8,1.7-3.8c1.1-1,2.4-1.5,4-1.5c2.3,0,5.1,1,5.6,5.6c3.4-3.2,7.1-4.8,10.9-4.8c4.8,0,8.2,2.1,10.1,6.1
			c1.2,2.7,1.8,6.6,1.8,11.9v2.6c0,1.1,0,1.9,0,2.4c0,1.9,0.3,4.3,0.8,7.3c0.5,3,0.8,5.5,0.8,7.4c0,1.5-0.5,2.8-1.6,3.8
			C467.6,69.4,466.2,69.9,464.7,69.9z M457,36.6c1.3,0,2,1.2,2,3.6c0,0.5,0,1-0.1,1.7c0,0.7-0.1,1.1-0.1,1.3c0,0.6,0,1.7-0.1,3.3
			c-0.1,1.5-0.1,2.6-0.1,3.2c0,2.3,0.2,4.9,0.5,7.5c0.3,2.6,0.7,5.1,1,7.6c0.3,2.7,1.8,4,4.5,4c1.3,0,2.4-0.4,3.3-1.2
			c0.9-0.8,1.3-1.8,1.3-3.1c0-1.9-0.3-4.3-0.8-7.3c-0.5-3-0.8-5.5-0.8-7.5c0-0.5,0-1.3,0-2.4v-2.6c0-5.1-0.6-8.9-1.7-11.5
			c-1.7-3.7-4.7-5.5-9.1-5.5c-3.8,0-7.5,1.8-11,5.3l-0.8,0.8l-0.1-1.5c-0.2-3.6-1.7-5.3-4.7-5.3c-1.3,0-2.4,0.4-3.3,1.2
			c-0.9,0.8-1.3,1.8-1.3,3.1c0,0.7,0,1.8,0.1,3.3c0.1,1.5,0.1,2.6,0.1,3.4c0,2.4-0.2,5.8-0.5,10c-0.3,4.2-0.5,7.6-0.5,10
			c0,0.7,0.1,1.7,0.2,3.1c0.2,1.4,0.2,2.5,0.2,3.2c0,1.3,0.4,2.3,1.3,3.2c0.9,0.8,1.9,1.3,3.3,1.3s2.4-0.4,3.3-1.3
			c0.9-0.9,1.3-1.9,1.3-3.2c0-0.7,0.1-1.8,0.2-3.2c0.2-1.4,0.2-2.5,0.2-3.1c0-1.1,0.1-2.2,0.2-3.4c0.2-1.3,0.3-2.5,0.3-3.3l0-0.1
			c1.2-4.2,2.8-7.7,4.8-10.4C452.5,38,454.7,36.6,457,36.6z"/>
	</g>
	<g>
		<path class="st0" d="M503.3,43c-0.2,0.1-2.2,1.5-6.1,4.3c-2.5,1.7-4.4,3.3-5.7,4.7c-1.2,1.3-2.5,2-3.9,2c-1.4,0-2.6-0.5-3.7-1.5
			c-1.1-1-1.6-2.2-1.6-3.5c0-2,1.6-4.2,4.7-6.6c2.9-2.1,5.8-4.1,8.8-6.2c3.2-2.4,4.7-4.6,4.7-6.5c0-2.3-1.2-4.4-3.5-6.4
			c-2.3-2-4.7-3-7.2-3c-1.3,0-3.1,0.8-5.4,2.3s-3.9,2.3-4.9,2.3c-1.4,0-2.7-0.5-3.7-1.6c-1-1.1-1.5-2.3-1.5-3.6
			c0-2.5,2.1-4.7,6.4-6.7c3.6-1.7,6.6-2.6,9.1-2.6c5.3,0,10.1,2,14.4,5.9c4.3,3.9,6.5,8.4,6.5,13.5C510.9,34.6,508.3,39.1,503.3,43z
			 M485.6,69.4c-1.4,0-2.7-0.4-3.8-1.3c-1.3-1-1.9-2.2-1.9-3.6c0-1.7,0.5-3.2,1.5-4.6c1.2-1.7,2.8-2.6,4.7-2.6c1.7,0,3,0.6,3.9,1.9
			c0.7,1,1.1,2.2,1.1,3.6c0,1.5-0.4,2.9-1.2,4.2C488.9,68.6,487.5,69.4,485.6,69.4z"/>
		<path d="M485.6,69.9c-1.5,0-2.9-0.5-4.1-1.4c-1.4-1.1-2.1-2.4-2.1-4c0-1.8,0.5-3.4,1.6-4.9c1.3-1.9,3-2.8,5.2-2.8
			c1.8,0,3.3,0.7,4.3,2.1c0.8,1.1,1.2,2.4,1.2,3.9c0,1.6-0.4,3.1-1.3,4.5C489.3,69,487.7,69.9,485.6,69.9z M486.2,57.7
			c-1.8,0-3.2,0.8-4.3,2.4c-0.9,1.3-1.4,2.8-1.4,4.4c0,1.3,0.6,2.4,1.7,3.3c1.1,0.8,2.2,1.2,3.5,1.2c1.7,0,2.9-0.7,3.9-2.3
			c0.8-1.2,1.1-2.5,1.1-3.9c0-1.3-0.3-2.4-1-3.4C488.8,58.3,487.7,57.7,486.2,57.7z M487.7,54.4c-1.5,0-2.9-0.6-4-1.7
			c-1.2-1.1-1.7-2.4-1.7-3.9c0-2.1,1.6-4.4,4.9-7c2.9-2.1,5.9-4.1,8.8-6.2c3-2.3,4.5-4.3,4.5-6.1c0-2.1-1.1-4.2-3.3-6
			c-2.2-1.9-4.5-2.9-6.9-2.9c-1.2,0-3,0.7-5.2,2.2c-2.4,1.6-4.1,2.3-5.2,2.3c-1.6,0-2.9-0.6-4-1.8c-1.1-1.2-1.6-2.5-1.6-3.9
			c0-2.7,2.3-5.1,6.7-7.2c3.7-1.8,6.8-2.7,9.3-2.7c5.4,0,10.4,2,14.8,6c4.4,4,6.6,8.7,6.6,13.9c0,5.2-2.6,9.8-7.7,13.8l0,0
			c-0.2,0.1-2.2,1.5-6.1,4.3c-2.4,1.7-4.3,3.3-5.6,4.7C490.7,53.7,489.2,54.4,487.7,54.4z M490,19.7c2.6,0,5.2,1,7.6,3.1
			c2.4,2.1,3.7,4.4,3.7,6.8c0,2.1-1.6,4.4-4.9,6.9c-2.9,2.1-5.9,4.2-8.8,6.2c-3,2.3-4.5,4.4-4.5,6.2c0,1.2,0.5,2.2,1.4,3.2
			c1,0.9,2.1,1.4,3.3,1.4c1.3,0,2.4-0.6,3.5-1.8c1.3-1.5,3.3-3.1,5.8-4.8c3.8-2.7,5.8-4.1,6.1-4.3c4.9-3.8,7.3-8.2,7.3-13
			c0-4.9-2.1-9.3-6.3-13.1c-4.2-3.8-8.9-5.8-14.1-5.8c-2.3,0-5.3,0.9-8.8,2.6c-4.1,1.9-6.2,4.1-6.2,6.3c0,1.2,0.4,2.2,1.4,3.2
			c0.9,1,2,1.4,3.3,1.4c0.6,0,1.9-0.4,4.6-2.2C486.6,20.4,488.5,19.7,490,19.7z"/>
	</g>
</g>
</svg>
